<svg xmlns="http://www.w3.org/2000/svg" xmlns:xlink="http://www.w3.org/1999/xlink" width="111" height="90" viewBox="0 0 111 90">
  <defs>
    <clipPath id="clip-path">
      <rect id="Rectángulo_25750" data-name="Rectángulo 25750" width="78" height="63" transform="translate(0 0.426)" fill="#673ab7" stroke="#7817aa" stroke-width="1"/>
    </clipPath>
  </defs>
  <g id="Grupo_1068228" data-name="Grupo 1068228" transform="translate(-218 -1888)">
    <circle id="Elipse_1793" data-name="Elipse 1793" cx="45" cy="45" r="45" transform="translate(239 1888)" fill="#ffd54f"/>
    <g id="Grupo_38830" data-name="Grupo 38830" transform="translate(113 1623.684)">
      <g id="Grupo_38831" data-name="Grupo 38831" transform="translate(105 264.89)">
        <g id="Grupo_38830-2" data-name="Grupo 38830" transform="translate(0 0)" clip-path="url(#clip-path)">
          <path id="Trazado_67682" data-name="Trazado 67682" d="M279.161,428.359l-2.787-4.826a3.333,3.333,0,0,0-2.878-1.661H271a24.835,24.835,0,0,0-9.028-18.981,1.133,1.133,0,1,0-1.448,1.742,22.631,22.631,0,0,1,8.209,17.239h-41a1.133,1.133,0,0,0,0,2.265H273.5a1.06,1.06,0,0,1,.915.529l2.787,4.826a1.058,1.058,0,0,1,0,1.057l-2.787,4.827a1.059,1.059,0,0,1-.915.528h-4.409a1.133,1.133,0,1,0,0,2.265H273.5a3.331,3.331,0,0,0,2.878-1.661l2.787-4.827a3.336,3.336,0,0,0,0-3.323Zm0,0" transform="translate(-202.039 -374.807)" fill="#673ab7" stroke="#7817aa" stroke-width="1"/>
          <path id="Trazado_67683" data-name="Trazado 67683" d="M166.97,326.235H111.109a1.06,1.06,0,0,1-.915-.529l-2.787-4.826a1.06,1.06,0,0,1,0-1.057L110.194,315a1.06,1.06,0,0,1,.915-.529h14.308a1.133,1.133,0,0,0,0-2.265h-9.547a22.957,22.957,0,0,1,8.793-17.7l5.717,5.717a1.133,1.133,0,0,0,1.6-1.6l-5.451-5.451a27.647,27.647,0,0,1,6.582-3.095l.734,3.406a1.133,1.133,0,1,0,2.215-.477l-.763-3.544a34.042,34.042,0,0,1,4.554-.78v4.705a1.133,1.133,0,0,0,2.265,0v-4.87q.824-.035,1.665-.036a36.957,36.957,0,0,1,4.994.336v12.326a1.133,1.133,0,1,0,2.265,0V289.2a30.68,30.68,0,0,1,7.155,2.383l-1.311,4.519a1.133,1.133,0,1,0,2.175.631c.9-3.116,4.3-14.81,4.3-14.81a3.687,3.687,0,1,0-2.177-.63l-2.348,8.089a33.305,33.305,0,0,0-7.794-2.491V274.826c1.764-1.229,2.453-5.127,2.453-6.041a3.586,3.586,0,0,0-7.172,0c0,.914.689,4.812,2.454,6.041v11.707a39.285,39.285,0,0,0-4.995-.319q-.837,0-1.664.035v-5.007a3.691,3.691,0,1,0-2.265,0v5.167a36.668,36.668,0,0,0-5.029.853l-2.736-12.7a3.688,3.688,0,0,0,1.761-3.971,3.691,3.691,0,1,0-3.976,4.449l2.765,12.836a30.414,30.414,0,0,0-7.743,3.664l-4.381-4.381a5.252,5.252,0,0,0-.586-2.931,11.507,11.507,0,0,0-1.952-3.076,3.584,3.584,0,0,0-5.072,0,3.6,3.6,0,0,0,0,5.071,11.474,11.474,0,0,0,3.076,1.953,6.224,6.224,0,0,0,2.435.63,2.771,2.771,0,0,0,.5-.043l4.128,4.128q-.273.217-.539.44a24.848,24.848,0,0,0-8.9,18.875h-2.494a3.332,3.332,0,0,0-2.878,1.662l-2.787,4.827a3.336,3.336,0,0,0,0,3.323l2.787,4.827a3.331,3.331,0,0,0,2.878,1.661H166.97a1.133,1.133,0,1,0,0-2.265Zm-17.06-58.771a1.322,1.322,0,0,1,1.321,1.321,9,9,0,0,1-1.321,4.045,8.993,8.993,0,0,1-1.321-4.045,1.322,1.322,0,0,1,1.321-1.321Zm-35.4,17.153c-1.232-1.192.676-3.1,1.868-1.868a8.988,8.988,0,0,1,1.925,3.793,8.988,8.988,0,0,1-3.793-1.925Zm27.9-6.887a1.425,1.425,0,1,1-1.425-1.425,1.425,1.425,0,0,1,1.425,1.425Zm-10.743-6.367a1.425,1.425,0,1,1-1.425-1.425,1.426,1.426,0,0,1,1.425,1.425Zm33.01,6.876a1.425,1.425,0,1,1-1.426-1.425,1.426,1.426,0,0,1,1.426,1.425Zm0,0" transform="translate(-105.001 -265.137)" fill="#673ab7" stroke="#7817aa" stroke-width="1"/>
        </g>
      </g>
    </g>
  </g>
</svg>
