<svg xmlns="http://www.w3.org/2000/svg" xmlns:xlink="http://www.w3.org/1999/xlink" width="717.148" height="372.859" viewBox="0 0 717.148 372.859">
  <defs>
    <clipPath id="clip-path">
      <rect id="Rectángulo_6263" data-name="Rectángulo 6263" width="117.063" height="248.169" transform="translate(-12.551 111.319)" fill="none"/>
    </clipPath>
    <clipPath id="clip-path-2">
      <rect id="Rectángulo_6264" data-name="Rectángulo 6264" width="113.864" height="248.327" transform="translate(-125.415 120.026)" fill="none"/>
    </clipPath>
  </defs>
  <g id="Grupo_38858" data-name="Grupo 38858" transform="translate(612.637 -31.015)">
    <g id="Grupo_38793" data-name="Grupo 38793">
      <path id="Trazado_61839" data-name="Trazado 61839" d="M-365.033,103.454h-38.362c2.31,16.938.09,25.536-5.927,43.267,17.5,8.355,34.3,9.092,50.217,0C-363.552,130.2-365.345,121.563-365.033,103.454Z" fill="#a3a3a3" fill-rule="evenodd"/>
      <path id="Trazado_61840" data-name="Trazado 61840" d="M-365.033,103.454h-38.362c2.31,16.938.09,25.536-5.927,43.267,17.5,8.355,34.3,9.092,50.217,0C-363.552,130.2-365.345,121.563-365.033,103.454Z" fill="none" stroke="#161615" stroke-miterlimit="22.926" stroke-width="0.567"/>
      <path id="Trazado_61841" data-name="Trazado 61841" d="M-352.549,64.9c-1.393,0-.947.157-1.47.448.019.512.035,1.028.043,1.553.128,7.854-.183,11.7-1.72,17.2.341.2-.288.313,1.067.313s5.6-9.249,5.6-14.639S-351.157,64.9-352.549,64.9Z" fill="#d2d1d1" fill-rule="evenodd"/>
      <path id="Trazado_61842" data-name="Trazado 61842" d="M-352.549,64.9c-1.393,0-.947.157-1.47.448.019.512.035,1.028.043,1.553.128,7.854-.183,11.7-1.72,17.2.341.2-.288.313,1.067.313s5.6-9.249,5.6-14.639S-351.157,64.9-352.549,64.9Z" fill="none" stroke="#161615" stroke-miterlimit="22.926" stroke-width="0.567"/>
      <path id="Trazado_61843" data-name="Trazado 61843" d="M-415.93,64.9c1.392,0,.946.157,1.469.448-.019.512-.034,1.028-.043,1.553-.128,7.854.183,11.7,1.721,17.2-.341.2.288.313-1.067.313s-5.6-9.249-5.6-14.639S-417.323,64.9-415.93,64.9Z" fill="#d2d1d1" fill-rule="evenodd"/>
      <path id="Trazado_61844" data-name="Trazado 61844" d="M-415.93,64.9c1.392,0,.946.157,1.469.448-.019.512-.034,1.028-.043,1.553-.128,7.854.183,11.7,1.721,17.2-.341.2.288.313-1.067.313s-5.6-9.249-5.6-14.639S-417.323,64.9-415.93,64.9Z" fill="none" stroke="#161615" stroke-miterlimit="22.926" stroke-width="0.567"/>
      <path id="Trazado_61845" data-name="Trazado 61845" d="M-364.053,112.445a46.226,46.226,0,0,0,4.308-8.917c6.861-18.735,6.693-22.931,5.769-36.628-1.751-26-13.537-35.6-30.236-35.6S-412.7,40.9-414.448,66.9c-.923,13.7-1.091,17.893,5.769,36.628a45.613,45.613,0,0,0,4.64,9.43c4.78-3.109,12.377-5.1,20.408-5.1S-368.833,109.631-364.053,112.445Z" fill="#e8e8e8" fill-rule="evenodd"/>
      <path id="Trazado_61846" data-name="Trazado 61846" d="M-364.053,112.445a46.226,46.226,0,0,0,4.308-8.917c6.861-18.735,6.693-22.931,5.769-36.628-1.751-26-13.537-35.6-30.236-35.6S-412.7,40.9-414.448,66.9c-.923,13.7-1.091,17.893,5.769,36.628a45.613,45.613,0,0,0,4.64,9.43c4.78-3.109,12.377-5.1,20.408-5.1S-368.833,109.631-364.053,112.445Z" fill="none" stroke="#161615" stroke-miterlimit="22.926" stroke-width="0.567"/>
      <line id="Línea_69" data-name="Línea 69" y2="76.557" transform="translate(-384.212 31.298)" fill="none" stroke="#161615" stroke-miterlimit="22.926" stroke-width="0.567" stroke-dasharray="2.4 2.4"/>
      <path id="Trazado_61847" data-name="Trazado 61847" d="M-478.59,387.525l1.173.444,7.377,1.911c.915-4.442-7.215-4.3-10.821-6.449Z" fill="#bababa" fill-rule="evenodd"/>
      <path id="Trazado_61848" data-name="Trazado 61848" d="M-478.59,387.525l1.173.444,7.377,1.911c.915-4.442-7.215-4.3-10.821-6.449Z" fill="none" stroke="#161615" stroke-miterlimit="22.926" stroke-width="0.567"/>
      <path id="Trazado_61849" data-name="Trazado 61849" d="M-484.562,382.867q1.767,2.594,3.536,5.185c3.4,2.549,8.387,3.517,11.79,6.066,1.023-2.161-.17-3.514-2.014-4.552-2.279-1.282-6.537-3.351-8.963-5.348-1.224-1.008-1.365-1.883-2.2-2.629Z" fill="#bababa" fill-rule="evenodd"/>
      <path id="Trazado_61850" data-name="Trazado 61850" d="M-484.562,382.867q1.767,2.594,3.536,5.185c3.4,2.549,8.387,3.517,11.79,6.066,1.023-2.161-.17-3.514-2.014-4.552-2.279-1.282-6.537-3.351-8.963-5.348-1.224-1.008-1.365-1.883-2.2-2.629Z" fill="none" stroke="#161615" stroke-miterlimit="22.926" stroke-width="0.567"/>
      <path id="Trazado_61851" data-name="Trazado 61851" d="M-481.906,390.9c3.6,2.529,8.1,6.824,12.11,9.757,1.677-2.819.152-4.383-2.689-7.066-1.887-1.783-4.714-3.649-6.736-5.626a29.732,29.732,0,0,1-2.455-3.337C-481.676,386.443-481.5,389.5-481.906,390.9Z" fill="#a3a3a3" fill-rule="evenodd"/>
      <path id="Trazado_61852" data-name="Trazado 61852" d="M-481.906,390.9c3.6,2.529,8.1,6.824,12.11,9.757,1.677-2.819.152-4.383-2.689-7.066-1.887-1.783-4.714-3.649-6.736-5.626a29.732,29.732,0,0,1-2.455-3.337C-481.676,386.443-481.5,389.5-481.906,390.9Z" fill="none" stroke="#161615" stroke-miterlimit="22.926" stroke-width="0.567"/>
      <path id="Trazado_61853" data-name="Trazado 61853" d="M-433.812,144.181c9.781-.033,9.382,1.473,14.908,13.007a23.157,23.157,0,0,1-10.877,30.891c-.212.1-.425.2-.639.294-2.278,10.587-7.125,24.628-7.784,27.4a149.727,149.727,0,0,1-5.9,19.534c-.616,1.587-1.664,7.307-4.337,16.767.825,13.4-5.089,32.379-11.231,49.584-5,14.012-10.2,24.651-14.937,38.281l.325,10.223,3.141,14.48q.5,2.325,1.009,4.649c.768,3.542.715,3.567.18,7.14-.5,3.358-1.006,8.242-1.509,11.4-4.355-.754-3.463-6.4-3.507-9.915-.033-2.689-.133-1.994-1.909-3.466a7.337,7.337,0,0,0-1.73-1.179c-4.307-1.885-5.589.578-4.5,5.838.239,1.154,1.69,5.557,1.607,7.032,4.885,8.514,11.883,12.659,7.785,16.9-6.139-8.1-6.739-6.592-12.878-14.69-1.963-3.031-3.274-8.24-5.6-12.551-3.409-6.314-3.182-5.216-1.589-12.42l3.753-16.961c3.4-18.018,4.922-38.716,7.833-57.624,1.721-11.178,2.712-19.326,4.6-27.319a99.986,99.986,0,0,1,2.827-9.757l2.811-11.214c.329-12.395,5.926-56.757,9.612-68.059h0C-461.206,158.39-456.184,144.256-433.812,144.181Z" fill="#a3a3a3" fill-rule="evenodd"/>
      <path id="Trazado_61854" data-name="Trazado 61854" d="M-433.812,144.181c9.781-.033,9.382,1.473,14.908,13.007a23.157,23.157,0,0,1-10.877,30.891c-.212.1-.425.2-.639.294-2.278,10.587-7.125,24.628-7.784,27.4a149.727,149.727,0,0,1-5.9,19.534c-.616,1.587-1.664,7.307-4.337,16.767.825,13.4-5.089,32.379-11.231,49.584-5,14.012-10.2,24.651-14.937,38.281l.325,10.223,3.141,14.48q.5,2.325,1.009,4.649c.768,3.542.715,3.567.18,7.14-.5,3.358-1.006,8.242-1.509,11.4-4.355-.754-3.463-6.4-3.507-9.915-.033-2.689-.133-1.994-1.909-3.466a7.337,7.337,0,0,0-1.73-1.179c-4.307-1.885-5.589.578-4.5,5.838.239,1.154,1.69,5.557,1.607,7.032,4.885,8.514,11.883,12.659,7.785,16.9-6.139-8.1-6.739-6.592-12.878-14.69-1.963-3.031-3.274-8.24-5.6-12.551-3.409-6.314-3.182-5.216-1.589-12.42l3.753-16.961c3.4-18.018,4.922-38.716,7.833-57.624,1.721-11.178,2.712-19.326,4.6-27.319a99.986,99.986,0,0,1,2.827-9.757l2.811-11.214c.329-12.395,5.926-56.757,9.612-68.059h0C-461.206,158.39-456.184,144.256-433.812,144.181Z" fill="none" stroke="#161615" stroke-miterlimit="22.926" stroke-width="0.567"/>
      <path id="Trazado_61855" data-name="Trazado 61855" d="M-287.255,387.525l-1.172.444-7.377,1.911c-.916-4.442,7.214-4.3,10.821-6.449Q-286.118,385.478-287.255,387.525Z" fill="#bababa" fill-rule="evenodd"/>
      <path id="Trazado_61856" data-name="Trazado 61856" d="M-287.255,387.525l-1.172.444-7.377,1.911c-.916-4.442,7.214-4.3,10.821-6.449Q-286.118,385.478-287.255,387.525Z" fill="none" stroke="#161615" stroke-miterlimit="22.926" stroke-width="0.567"/>
      <path id="Trazado_61857" data-name="Trazado 61857" d="M-281.282,382.867l-3.536,5.185c-3.4,2.549-8.387,3.517-11.791,6.066-1.022-2.161.171-3.514,2.015-4.552,2.279-1.282,6.537-3.351,8.962-5.348,1.225-1.008,1.366-1.883,2.2-2.629Z" fill="#bababa" fill-rule="evenodd"/>
      <path id="Trazado_61858" data-name="Trazado 61858" d="M-281.282,382.867l-3.536,5.185c-3.4,2.549-8.387,3.517-11.791,6.066-1.022-2.161.171-3.514,2.015-4.552,2.279-1.282,6.537-3.351,8.962-5.348,1.225-1.008,1.366-1.883,2.2-2.629Z" fill="none" stroke="#161615" stroke-miterlimit="22.926" stroke-width="0.567"/>
      <path id="Trazado_61859" data-name="Trazado 61859" d="M-283.938,390.9c-3.6,2.529-8.105,6.824-12.111,9.757-1.676-2.819-.151-4.383,2.689-7.066,1.887-1.783,4.714-3.649,6.736-5.626a29.481,29.481,0,0,0,2.455-3.337C-284.169,386.443-284.342,389.5-283.938,390.9Z" fill="#a3a3a3" fill-rule="evenodd"/>
      <path id="Trazado_61860" data-name="Trazado 61860" d="M-283.938,390.9c-3.6,2.529-8.105,6.824-12.111,9.757-1.676-2.819-.151-4.383,2.689-7.066,1.887-1.783,4.714-3.649,6.736-5.626a29.481,29.481,0,0,0,2.455-3.337C-284.169,386.443-284.342,389.5-283.938,390.9Z" fill="none" stroke="#161615" stroke-miterlimit="22.926" stroke-width="0.567"/>
      <path id="Trazado_61861" data-name="Trazado 61861" d="M-332.033,144.181c-9.78-.033-9.381,1.473-14.908,13.007a23.158,23.158,0,0,0,10.877,30.891c.212.1.426.2.64.294,2.278,10.587,7.125,24.628,7.784,27.4a149.731,149.731,0,0,0,5.9,19.534c.615,1.587,1.664,7.307,4.337,16.767-.825,13.4,5.089,32.379,11.23,49.584,5,14.012,10.2,24.651,14.938,38.281l-.325,10.223q-1.572,7.24-3.142,14.48l-1.008,4.649c-.768,3.542-.715,3.567-.18,7.14.5,3.358,1.006,8.242,1.509,11.4,4.355-.754,3.463-6.4,3.506-9.915.034-2.689.134-1.994,1.91-3.466a7.331,7.331,0,0,1,1.729-1.179c4.308-1.885,5.59.578,4.5,5.838-.238,1.154-1.689,5.557-1.606,7.032-4.885,8.514-11.883,12.659-7.785,16.9,6.138-8.1,6.739-6.592,12.878-14.69,1.962-3.031,3.273-8.24,5.6-12.551,3.409-6.314,3.183-5.216,1.59-12.42l-3.754-16.961c-3.4-18.018-4.921-38.716-7.832-57.624-1.722-11.178-2.712-19.326-4.6-27.319a99.986,99.986,0,0,0-2.827-9.757l-2.81-11.214c-.33-12.395-5.926-56.757-9.612-68.059h0C-304.639,158.39-309.66,144.256-332.033,144.181Z" fill="#a3a3a3" fill-rule="evenodd"/>
      <path id="Trazado_61862" data-name="Trazado 61862" d="M-332.033,144.181c-9.78-.033-9.381,1.473-14.908,13.007a23.158,23.158,0,0,0,10.877,30.891c.212.1.426.2.64.294,2.278,10.587,7.125,24.628,7.784,27.4a149.731,149.731,0,0,0,5.9,19.534c.615,1.587,1.664,7.307,4.337,16.767-.825,13.4,5.089,32.379,11.23,49.584,5,14.012,10.2,24.651,14.938,38.281l-.325,10.223q-1.572,7.24-3.142,14.48l-1.008,4.649c-.768,3.542-.715,3.567-.18,7.14.5,3.358,1.006,8.242,1.509,11.4,4.355-.754,3.463-6.4,3.506-9.915.034-2.689.134-1.994,1.91-3.466a7.331,7.331,0,0,1,1.729-1.179c4.308-1.885,5.59.578,4.5,5.838-.238,1.154-1.689,5.557-1.606,7.032-4.885,8.514-11.883,12.659-7.785,16.9,6.138-8.1,6.739-6.592,12.878-14.69,1.962-3.031,3.273-8.24,5.6-12.551,3.409-6.314,3.183-5.216,1.59-12.42l-3.754-16.961c-3.4-18.018-4.921-38.716-7.832-57.624-1.722-11.178-2.712-19.326-4.6-27.319a99.986,99.986,0,0,0-2.827-9.757l-2.81-11.214c-.33-12.395-5.926-56.757-9.612-68.059h0C-304.639,158.39-309.66,144.256-332.033,144.181Z" fill="none" stroke="#161615" stroke-miterlimit="22.926" stroke-width="0.567"/>
      <path id="Trazado_61863" data-name="Trazado 61863" d="M-333.033,144.181l-26.512-9.042c-2.548-1.114-5.612,3.007-24.361,3s-22.282-3.989-24.545-3l-26.512,9.042c-10.317,24.747-8.216,37.9-5.433,66.311,2.019,20.619,8.226,34.265,10.827,59.52-4.395,24.462-9.15,49.929-14.054,74.216-1.424,7.053,32.568,36.56,59.533,20.608h.184c26.965,15.952,60.957-13.555,59.533-20.608-4.9-24.287-9.659-49.754-14.054-74.216,2.6-25.255,8.808-38.9,10.827-59.52C-324.817,182.079-322.716,168.928-333.033,144.181Z" fill="#e8e8e8" fill-rule="evenodd"/>
      <path id="Trazado_61864" data-name="Trazado 61864" d="M-333.033,144.181l-26.512-9.042c-2.548-1.114-5.612,3.007-24.361,3s-22.282-3.989-24.545-3l-26.512,9.042c-10.317,24.747-8.216,37.9-5.433,66.311,2.019,20.619,8.226,34.265,10.827,59.52-4.395,24.462-9.15,49.929-14.054,74.216-1.424,7.053,32.568,36.56,59.533,20.608h.184c26.965,15.952,60.957-13.555,59.533-20.608-4.9-24.287-9.659-49.754-14.054-74.216,2.6-25.255,8.808-38.9,10.827-59.52C-324.817,182.079-322.716,168.928-333.033,144.181Z" fill="none" stroke="#161615" stroke-miterlimit="22.926" stroke-width="0.567"/>
      <path id="Trazado_61865" data-name="Trazado 61865" d="M-354.141,75.577c-23.705-4.73-43.2-3.993-60.2,0" fill="none" stroke="#161615" stroke-miterlimit="22.926" stroke-width="0.567" stroke-dasharray="2.4 2.4"/>
      <line id="Línea_70" data-name="Línea 70" y1="76.489" transform="translate(-384.212 31.37)" fill="none" stroke="#161615" stroke-miterlimit="22.926" stroke-width="0.567" stroke-dasharray="2.4 2.4"/>
      <path id="Trazado_61866" data-name="Trazado 61866" d="M-338.427,270.012a312.884,312.884,0,0,0-92.211,0" fill="none" stroke="#161615" stroke-miterlimit="22.926" stroke-width="0.567" stroke-dasharray="2.4 2.4"/>
      <path id="Trazado_61867" data-name="Trazado 61867" d="M-327.611,198.525a469.538,469.538,0,0,0-113.064,0" fill="none" stroke="#161615" stroke-miterlimit="22.926" stroke-width="0.567" stroke-dasharray="2.4 2.4"/>
      <path id="Trazado_61868" data-name="Trazado 61868" d="M-283.7,372.874c-3.856-2.77-6.317-3.668-7.687-6.8-1.44-3.292,0-7.187,0-10.78" fill="none" stroke="#161615" stroke-miterlimit="22.926" stroke-width="0.567"/>
      <path id="Trazado_61869" data-name="Trazado 61869" d="M-482.328,372.874c3.856-2.77,6.317-3.668,7.688-6.8,1.439-3.292,0-7.187,0-10.78" fill="none" stroke="#161615" stroke-miterlimit="22.926" stroke-width="0.567"/>
      <line id="Línea_71" data-name="Línea 71" y2="226.566" transform="translate(-384.09 138.27)" fill="none" stroke="#161615" stroke-miterlimit="22.926" stroke-width="0.567" stroke-dasharray="2.4 2.4"/>
      <path id="Trazado_61870" data-name="Trazado 61870" d="M-596.062,387.918l1.173.444,7.376,1.911c.916-4.442-7.214-4.3-10.821-6.449Q-597.2,385.871-596.062,387.918Z" fill="#bababa" fill-rule="evenodd"/>
      <path id="Trazado_61871" data-name="Trazado 61871" d="M-596.062,387.918l1.173.444,7.376,1.911c.916-4.442-7.214-4.3-10.821-6.449Q-597.2,385.871-596.062,387.918Z" fill="none" stroke="#161615" stroke-miterlimit="22.926" stroke-width="0.567"/>
      <path id="Trazado_61872" data-name="Trazado 61872" d="M-602.035,383.26l3.537,5.186c3.4,2.548,8.386,3.516,11.789,6.065,1.023-2.161-.17-3.514-2.014-4.552-2.279-1.282-6.537-3.351-8.962-5.348-1.225-1.008-1.366-1.883-2.2-2.629Q-600.957,382.621-602.035,383.26Z" fill="#bababa" fill-rule="evenodd"/>
      <path id="Trazado_61873" data-name="Trazado 61873" d="M-602.035,383.26l3.537,5.186c3.4,2.548,8.386,3.516,11.789,6.065,1.023-2.161-.17-3.514-2.014-4.552-2.279-1.282-6.537-3.351-8.962-5.348-1.225-1.008-1.366-1.883-2.2-2.629Q-600.957,382.621-602.035,383.26Z" fill="none" stroke="#161615" stroke-miterlimit="22.926" stroke-width="0.567"/>
      <path id="Trazado_61874" data-name="Trazado 61874" d="M-599.379,391.3c3.6,2.529,8.1,6.824,12.111,9.757,1.677-2.819.151-4.383-2.69-7.066-1.886-1.783-4.713-3.649-6.735-5.626a29.486,29.486,0,0,1-2.455-3.337C-599.148,386.836-598.975,389.89-599.379,391.3Z" fill="#a3a3a3" fill-rule="evenodd"/>
      <path id="Trazado_61875" data-name="Trazado 61875" d="M-599.379,391.3c3.6,2.529,8.1,6.824,12.111,9.757,1.677-2.819.151-4.383-2.69-7.066-1.886-1.783-4.713-3.649-6.735-5.626a29.486,29.486,0,0,1-2.455-3.337C-599.148,386.836-598.975,389.89-599.379,391.3Z" fill="none" stroke="#161615" stroke-miterlimit="22.926" stroke-width="0.567"/>
      <path id="Trazado_61876" data-name="Trazado 61876" d="M-551.284,144.574c9.78-.033,9.381,1.473,14.908,13.007a23.158,23.158,0,0,1-10.877,30.891c-.212.1-.426.2-.64.294-2.278,10.587-7.125,24.628-7.784,27.4a149.891,149.891,0,0,1-5.9,19.534c-.616,1.587-1.665,7.307-4.338,16.767.825,13.4-5.088,32.378-11.23,49.584-5,14.012-10.2,24.65-14.938,38.281l.325,10.224q1.57,7.239,3.142,14.479l1.008,4.649c.768,3.542.715,3.567.18,7.141-.5,3.357-1.006,8.241-1.509,11.4-4.354-.754-3.462-6.4-3.506-9.915-.033-2.689-.134-1.994-1.91-3.466a7.33,7.33,0,0,0-1.729-1.179c-4.308-1.884-5.59.578-4.5,5.838.239,1.154,1.689,5.557,1.606,7.032,4.885,8.515,11.884,12.659,7.785,16.9-6.138-8.1-6.739-6.591-12.878-14.69-1.962-3.031-3.273-8.24-5.6-12.551-3.409-6.314-3.183-5.216-1.59-12.42l3.754-16.961c3.4-18.018,4.921-38.717,7.832-57.624,1.722-11.178,2.712-19.326,4.6-27.319a99.7,99.7,0,0,1,2.827-9.757l2.81-11.214c.33-12.4,5.926-56.757,9.612-68.059h0C-578.678,158.783-573.657,144.649-551.284,144.574Z" fill="#a3a3a3" fill-rule="evenodd"/>
      <path id="Trazado_61877" data-name="Trazado 61877" d="M-551.284,144.574c9.78-.033,9.381,1.473,14.908,13.007a23.158,23.158,0,0,1-10.877,30.891c-.212.1-.426.2-.64.294-2.278,10.587-7.125,24.628-7.784,27.4a149.891,149.891,0,0,1-5.9,19.534c-.616,1.587-1.665,7.307-4.338,16.767.825,13.4-5.088,32.378-11.23,49.584-5,14.012-10.2,24.65-14.938,38.281l.325,10.224q1.57,7.239,3.142,14.479l1.008,4.649c.768,3.542.715,3.567.18,7.141-.5,3.357-1.006,8.241-1.509,11.4-4.354-.754-3.462-6.4-3.506-9.915-.033-2.689-.134-1.994-1.91-3.466a7.33,7.33,0,0,0-1.729-1.179c-4.308-1.884-5.59.578-4.5,5.838.239,1.154,1.689,5.557,1.606,7.032,4.885,8.515,11.884,12.659,7.785,16.9-6.138-8.1-6.739-6.591-12.878-14.69-1.962-3.031-3.273-8.24-5.6-12.551-3.409-6.314-3.183-5.216-1.59-12.42l3.754-16.961c3.4-18.018,4.921-38.717,7.832-57.624,1.722-11.178,2.712-19.326,4.6-27.319a99.7,99.7,0,0,1,2.827-9.757l2.81-11.214c.33-12.4,5.926-56.757,9.612-68.059h0C-578.678,158.783-573.657,144.649-551.284,144.574Z" fill="none" stroke="#161615" stroke-miterlimit="22.926" stroke-width="0.567"/>
      <path id="Trazado_61878" data-name="Trazado 61878" d="M-404.727,387.918l-1.173.444-7.377,1.911c-.915-4.442,7.215-4.3,10.822-6.449Z" fill="#bababa" fill-rule="evenodd"/>
      <path id="Trazado_61879" data-name="Trazado 61879" d="M-404.727,387.918l-1.173.444-7.377,1.911c-.915-4.442,7.215-4.3,10.822-6.449Z" fill="none" stroke="#161615" stroke-miterlimit="22.926" stroke-width="0.567"/>
      <path id="Trazado_61880" data-name="Trazado 61880" d="M-398.755,383.26l-3.536,5.186c-3.4,2.548-8.387,3.516-11.79,6.065-1.022-2.161.17-3.514,2.014-4.552,2.279-1.282,6.537-3.351,8.963-5.348,1.224-1.008,1.365-1.883,2.2-2.629Z" fill="#bababa" fill-rule="evenodd"/>
      <path id="Trazado_61881" data-name="Trazado 61881" d="M-398.755,383.26l-3.536,5.186c-3.4,2.548-8.387,3.516-11.79,6.065-1.022-2.161.17-3.514,2.014-4.552,2.279-1.282,6.537-3.351,8.963-5.348,1.224-1.008,1.365-1.883,2.2-2.629Z" fill="none" stroke="#161615" stroke-miterlimit="22.926" stroke-width="0.567"/>
      <path id="Trazado_61882" data-name="Trazado 61882" d="M-401.411,391.3c-3.6,2.529-8.1,6.824-12.11,9.757-1.677-2.819-.151-4.383,2.689-7.066,1.887-1.783,4.714-3.649,6.736-5.626a29.482,29.482,0,0,0,2.455-3.337C-401.641,386.836-401.815,389.89-401.411,391.3Z" fill="#a3a3a3" fill-rule="evenodd"/>
      <path id="Trazado_61883" data-name="Trazado 61883" d="M-401.411,391.3c-3.6,2.529-8.1,6.824-12.11,9.757-1.677-2.819-.151-4.383,2.689-7.066,1.887-1.783,4.714-3.649,6.736-5.626a29.482,29.482,0,0,0,2.455-3.337C-401.641,386.836-401.815,389.89-401.411,391.3Z" fill="none" stroke="#161615" stroke-miterlimit="22.926" stroke-width="0.567"/>
      <path id="Trazado_61884" data-name="Trazado 61884" d="M-482.506,103.847h-38.361c2.309,16.938.09,25.536-5.928,43.268,17.5,8.354,34.3,9.091,50.218,0C-481.024,130.592-482.817,121.956-482.506,103.847Z" fill="#a3a3a3" fill-rule="evenodd"/>
      <path id="Trazado_61885" data-name="Trazado 61885" d="M-482.506,103.847h-38.361c2.309,16.938.09,25.536-5.928,43.268,17.5,8.354,34.3,9.091,50.218,0C-481.024,130.592-482.817,121.956-482.506,103.847Z" fill="none" stroke="#161615" stroke-miterlimit="22.926" stroke-width="0.567"/>
      <path id="Trazado_61886" data-name="Trazado 61886" d="M-449.505,144.574c-9.781-.033-9.381,1.473-14.908,13.007a23.157,23.157,0,0,0,10.877,30.891c.212.1.425.2.639.294,2.278,10.587,7.125,24.628,7.785,27.4a149.731,149.731,0,0,0,5.9,19.534c.616,1.587,1.665,7.307,4.338,16.767-.826,13.4,5.088,32.378,11.23,49.584,5,14.012,10.2,24.65,14.937,38.281l-.325,10.224-3.141,14.479-1.008,4.649c-.769,3.542-.716,3.567-.18,7.141.5,3.357,1.006,8.241,1.509,11.4,4.354-.754,3.462-6.4,3.506-9.915.033-2.689.133-1.994,1.91-3.466a7.311,7.311,0,0,1,1.729-1.179c4.308-1.884,5.589.578,4.5,5.838-.239,1.154-1.69,5.557-1.607,7.032-4.884,8.515-11.883,12.659-7.784,16.9,6.138-8.1,6.739-6.591,12.877-14.69,1.963-3.031,3.274-8.24,5.6-12.551,3.409-6.314,3.183-5.216,1.589-12.42l-3.753-16.961c-3.4-18.018-4.921-38.717-7.833-57.624-1.721-11.178-2.712-19.326-4.6-27.319a99.976,99.976,0,0,0-2.827-9.757l-2.81-11.214c-.33-12.4-5.927-56.757-9.613-68.059h0C-422.111,158.783-427.132,144.649-449.505,144.574Z" fill="#a3a3a3" fill-rule="evenodd"/>
      <path id="Trazado_61887" data-name="Trazado 61887" d="M-449.505,144.574c-9.781-.033-9.381,1.473-14.908,13.007a23.157,23.157,0,0,0,10.877,30.891c.212.1.425.2.639.294,2.278,10.587,7.125,24.628,7.785,27.4a149.731,149.731,0,0,0,5.9,19.534c.616,1.587,1.665,7.307,4.338,16.767-.826,13.4,5.088,32.378,11.23,49.584,5,14.012,10.2,24.65,14.937,38.281l-.325,10.224-3.141,14.479-1.008,4.649c-.769,3.542-.716,3.567-.18,7.141.5,3.357,1.006,8.241,1.509,11.4,4.354-.754,3.462-6.4,3.506-9.915.033-2.689.133-1.994,1.91-3.466a7.311,7.311,0,0,1,1.729-1.179c4.308-1.884,5.589.578,4.5,5.838-.239,1.154-1.69,5.557-1.607,7.032-4.884,8.515-11.883,12.659-7.784,16.9,6.138-8.1,6.739-6.591,12.877-14.69,1.963-3.031,3.274-8.24,5.6-12.551,3.409-6.314,3.183-5.216,1.589-12.42l-3.753-16.961c-3.4-18.018-4.921-38.717-7.833-57.624-1.721-11.178-2.712-19.326-4.6-27.319a99.976,99.976,0,0,0-2.827-9.757l-2.81-11.214c-.33-12.4-5.927-56.757-9.613-68.059h0C-422.111,158.783-427.132,144.649-449.505,144.574Z" fill="none" stroke="#161615" stroke-miterlimit="22.926" stroke-width="0.567"/>
      <path id="Trazado_61888" data-name="Trazado 61888" d="M-501.684,122.026c11.464,0,18.741-8.585,22.941-20.819,6.433-18.734,7.515-20.37,7.3-33.914-.423-26.051-13.538-35.6-30.236-35.6s-29.813,9.551-30.236,35.6c-.22,13.544.862,15.18,7.295,33.914C-520.425,113.441-513.148,122.026-501.684,122.026Z" fill="#e8e8e8" fill-rule="evenodd"/>
      <path id="Trazado_61889" data-name="Trazado 61889" d="M-501.684,122.026c11.464,0,18.741-8.585,22.941-20.819,6.433-18.734,7.515-20.37,7.3-33.914-.423-26.051-13.538-35.6-30.236-35.6s-29.813,9.551-30.236,35.6c-.22,13.544.862,15.18,7.295,33.914C-520.425,113.441-513.148,122.026-501.684,122.026Z" fill="none" stroke="#161615" stroke-miterlimit="22.926" stroke-width="0.567"/>
      <path id="Trazado_61890" data-name="Trazado 61890" d="M-445.685,181.011c-4.593-10.1-8.864-23.913-4.821-36.437l-26.512-9.043c-3.224-1.409-2.019-1.146-3.932,2.088a24.3,24.3,0,0,1-10.148,9.506,20.337,20.337,0,0,1-10.288,2.507v.564l-.121-.564a20.337,20.337,0,0,1-10.288-2.507,24.288,24.288,0,0,1-10.147-9.506c-1.914-3.234-.71-3.5-3.934-2.088l-26.512,9.043c4.044,12.524-.227,26.337-4.82,36.437-2.7,5.946-1.943,23.681-.613,29.874,4.351,20.255,8.226,34.265,10.827,59.52-4.4,24.487-9.007,49.389-13.916,73.7-.738,3.657-1.142,2.806,2.384,3.946,32.379,10.468,44.076,22.5,51.977,28.768a7.359,7.359,0,0,0,5.172,1.663,7.358,7.358,0,0,0,5.171-1.663c7.9-6.272,19.6-18.3,51.978-28.768,3.526-1.14,3.122-.289,2.384-3.946-4.9-24.288-9.66-49.243-14.055-73.7,2.6-25.255,6.478-39.265,10.828-59.52C-443.742,204.692-442.982,186.957-445.685,181.011Z" fill="#e8e8e8" fill-rule="evenodd"/>
      <path id="Trazado_61891" data-name="Trazado 61891" d="M-445.685,181.011c-4.593-10.1-8.864-23.913-4.821-36.437l-26.512-9.043c-3.224-1.409-2.019-1.146-3.932,2.088a24.3,24.3,0,0,1-10.148,9.506,20.337,20.337,0,0,1-10.288,2.507v.564l-.121-.564a20.337,20.337,0,0,1-10.288-2.507,24.288,24.288,0,0,1-10.147-9.506c-1.914-3.234-.71-3.5-3.934-2.088l-26.512,9.043c4.044,12.524-.227,26.337-4.82,36.437-2.7,5.946-1.943,23.681-.613,29.874,4.351,20.255,8.226,34.265,10.827,59.52-4.4,24.487-9.007,49.389-13.916,73.7-.738,3.657-1.142,2.806,2.384,3.946,32.379,10.468,44.076,22.5,51.977,28.768a7.359,7.359,0,0,0,5.172,1.663,7.358,7.358,0,0,0,5.171-1.663c7.9-6.272,19.6-18.3,51.978-28.768,3.526-1.14,3.122-.289,2.384-3.946-4.9-24.288-9.66-49.243-14.055-73.7,2.6-25.255,6.478-39.265,10.828-59.52C-443.742,204.692-442.982,186.957-445.685,181.011Z" fill="none" stroke="#161615" stroke-miterlimit="22.926" stroke-width="0.567"/>
      <path id="Trazado_61892" data-name="Trazado 61892" d="M-470.022,65.292c-1.392,0-.946.157-1.469.448.019.512.034,1.028.043,1.553.128,7.854-.184,11.7-1.721,17.2.342.2-.288.313,1.067.313s5.6-9.249,5.6-14.639S-468.629,65.292-470.022,65.292Z" fill="#d2d1d1" fill-rule="evenodd"/>
      <path id="Trazado_61893" data-name="Trazado 61893" d="M-470.022,65.292c-1.392,0-.946.157-1.469.448.019.512.034,1.028.043,1.553.128,7.854-.184,11.7-1.721,17.2.342.2-.288.313,1.067.313s5.6-9.249,5.6-14.639S-468.629,65.292-470.022,65.292Z" fill="none" stroke="#161615" stroke-miterlimit="22.926" stroke-width="0.567"/>
      <path id="Trazado_61894" data-name="Trazado 61894" d="M-533.4,65.292c1.393,0,.947.157,1.47.448-.019.512-.035,1.028-.043,1.553-.128,7.854.183,11.7,1.72,17.2-.34.2.288.313-1.067.313s-5.6-9.249-5.6-14.639S-534.795,65.292-533.4,65.292Z" fill="#d2d1d1" fill-rule="evenodd"/>
      <path id="Trazado_61895" data-name="Trazado 61895" d="M-533.4,65.292c1.393,0,.947.157,1.47.448-.019.512-.035,1.028-.043,1.553-.128,7.854.183,11.7,1.72,17.2-.34.2.288.313-1.067.313s-5.6-9.249-5.6-14.639S-534.795,65.292-533.4,65.292Z" fill="none" stroke="#161615" stroke-miterlimit="22.926" stroke-width="0.567"/>
      <path id="Trazado_61896" data-name="Trazado 61896" d="M-471.614,75.97c-23.7,4.73-43.2,3.993-60.194,0" fill="none" stroke="#161615" stroke-miterlimit="22.926" stroke-width="0.567" stroke-dasharray="2.4 2.4"/>
      <line id="Línea_72" data-name="Línea 72" y1="90.264" transform="translate(-501.684 31.763)" fill="none" stroke="#161615" stroke-miterlimit="22.926" stroke-width="0.567" stroke-dasharray="2.4 2.4"/>
      <line id="Línea_73" data-name="Línea 73" y2="228.635" transform="translate(-501.378 149.852)" fill="none" stroke="#161615" stroke-miterlimit="22.926" stroke-width="0.567" stroke-dasharray="2.4 2.4"/>
      <path id="Trazado_61897" data-name="Trazado 61897" d="M-455.9,270.4a305.4,305.4,0,0,1-91.1,0" fill="none" stroke="#161615" stroke-miterlimit="22.926" stroke-width="0.567" stroke-dasharray="2.4 2.4"/>
      <path id="Trazado_61898" data-name="Trazado 61898" d="M-445.083,198.918a469.537,469.537,0,0,1-113.064,0" fill="none" stroke="#161615" stroke-miterlimit="22.926" stroke-width="0.567" stroke-dasharray="2.4 2.4"/>
      <path id="Trazado_61899" data-name="Trazado 61899" d="M-505.723,149.3c7.393,1.163,19.26-.148,27.315-12.553l-1.253-8.136C-491.978,145.849-507.7,136.131-505.723,149.3Z" fill="#f6bec1" fill-rule="evenodd"/>
      <path id="Trazado_61900" data-name="Trazado 61900" d="M-505.723,149.3c7.393,1.163,19.26-.148,27.315-12.553l-1.253-8.136C-491.978,145.849-507.7,136.131-505.723,149.3Z" fill="none" stroke="#757474" stroke-miterlimit="22.926" stroke-width="0.75" stroke-dasharray="1.5 0.75"/>
      <path id="Trazado_61901" data-name="Trazado 61901" d="M-410.889,135.97l7.966-13.442a106.928,106.928,0,0,0,39.3.028l7.225,13.657C-371.423,140.5-395.194,140.321-410.889,135.97Z" fill="#f1a0a7" fill-rule="evenodd"/>
      <path id="Trazado_61902" data-name="Trazado 61902" d="M-410.889,135.97l7.966-13.442a106.928,106.928,0,0,0,39.3.028l7.225,13.657C-371.423,140.5-395.194,140.321-410.889,135.97Z" fill="none" stroke="#757474" stroke-miterlimit="22.926" stroke-width="0.75" stroke-dasharray="1.5 0.75"/>
      <path id="Trazado_61903" data-name="Trazado 61903" d="M-495.8,149.625c-7.393,1.163-19.26-.149-27.315-12.553l1.252-8.136C-509.543,146.169-493.824,136.452-495.8,149.625Z" fill="#f6bec1" fill-rule="evenodd"/>
      <path id="Trazado_61904" data-name="Trazado 61904" d="M-495.8,149.625c-7.393,1.163-19.26-.149-27.315-12.553l1.252-8.136C-509.543,146.169-493.824,136.452-495.8,149.625Z" fill="none" stroke="#757474" stroke-miterlimit="22.926" stroke-width="0.75" stroke-dasharray="1.5 0.75"/>
      <path id="Trazado_61905" data-name="Trazado 61905" d="M-522.009,124.143c5.694,5.658,13.22,13.558,20.738,17.258a71.727,71.727,0,0,0-8.45,18.139l-19.689-22.8A36.623,36.623,0,0,0-522.009,124.143Z" fill="#f1a0a7" fill-rule="evenodd"/>
      <path id="Trazado_61906" data-name="Trazado 61906" d="M-522.009,124.143c5.694,5.658,13.22,13.558,20.738,17.258a71.727,71.727,0,0,0-8.45,18.139l-19.689-22.8A36.623,36.623,0,0,0-522.009,124.143Z" fill="none" stroke="#5c5c5b" stroke-miterlimit="22.926" stroke-width="0.75" stroke-dasharray="1.5 0.75"/>
      <path id="Trazado_61907" data-name="Trazado 61907" d="M-479.506,129.621c-4.847,6.186-12.824,10.055-22.1,11.69a30.4,30.4,0,0,0-6.092-16.751c15.879-2.54,21.97-3.916,26.927-6.247Z" fill="#f1a0a7" fill-rule="evenodd"/>
      <path id="Trazado_61908" data-name="Trazado 61908" d="M-479.506,129.621c-4.847,6.186-12.824,10.055-22.1,11.69a30.4,30.4,0,0,0-6.092-16.751c15.879-2.54,21.97-3.916,26.927-6.247Z" fill="none" stroke="#5c5c5b" stroke-miterlimit="22.926" stroke-width="0.75" stroke-dasharray="1.5 0.75"/>
      <path id="Trazado_61909" data-name="Trazado 61909" d="M-500.971,144.885a1.25,1.25,0,0,0-1.25,1.25,1.25,1.25,0,0,0,1.25,1.25,1.25,1.25,0,0,0,1.25-1.25A1.25,1.25,0,0,0-500.971,144.885Z" fill="#757474" fill-rule="evenodd"/>
      <path id="Trazado_61910" data-name="Trazado 61910" d="M-500.971,144.885a1.25,1.25,0,0,0-1.25,1.25,1.25,1.25,0,0,0,1.25,1.25,1.25,1.25,0,0,0,1.25-1.25A1.25,1.25,0,0,0-500.971,144.885Z" fill="none" stroke="#757474" stroke-miterlimit="22.926" stroke-width="0.567"/>
    </g>
    <g id="Grupo_38804" data-name="Grupo 38804" transform="translate(0 -35.086)">
      <g id="Grupo_38796" data-name="Grupo 38796" opacity="0.7">
        <g id="Grupo_38795" data-name="Grupo 38795">
          <g id="Grupo_38794" data-name="Grupo 38794" clip-path="url(#clip-path)">
            <path id="Trazado_61911" data-name="Trazado 61911" d="M63.508,111.923c9.54,5.921,19.572,6.913,40.43,6.7l.074,240.34-116.063.026V251.9C9.543,250.639,17.77,217.2,7.836,129.47,40.495,118.81,63.3,112.08,63.508,111.923Z" fill="#f1a0a7" fill-rule="evenodd"/>
            <path id="Trazado_61912" data-name="Trazado 61912" d="M63.508,111.923c9.54,5.921,19.572,6.913,40.43,6.7l.074,240.34-116.063.026V251.9C9.543,250.639,17.77,217.2,7.836,129.47,40.495,118.81,63.3,112.08,63.508,111.923Z" fill="none" stroke="#757474" stroke-miterlimit="22.926" stroke-width="1" stroke-dasharray="2 1"/>
          </g>
        </g>
      </g>
      <g id="Grupo_38799" data-name="Grupo 38799" opacity="0.7">
        <g id="Grupo_38798" data-name="Grupo 38798">
          <g id="Grupo_38797" data-name="Grupo 38797" clip-path="url(#clip-path-2)">
            <path id="Trazado_61913" data-name="Trazado 61913" d="M-83.712,120.333c-10.633,17.216-14.387,23.759-40.524,26.706-.651,141.708-.679,220.814-.679,220.814,51.4,0,85.309-5.493,112.864-8.866V251.9c-31.515,4.691-24.527-73.42-15.162-112.7C-59.872,128.543-83.5,120.49-83.712,120.333Z" fill="#f1a0a7" fill-rule="evenodd"/>
            <path id="Trazado_61914" data-name="Trazado 61914" d="M-83.712,120.333c-10.633,17.216-14.387,23.759-40.524,26.706-.651,141.708-.679,220.814-.679,220.814,51.4,0,85.309-5.493,112.864-8.866V251.9c-31.515,4.691-24.527-73.42-15.162-112.7C-59.872,128.543-83.5,120.49-83.712,120.333Z" fill="none" stroke="#757474" stroke-miterlimit="22.926" stroke-width="1" stroke-dasharray="2 1"/>
          </g>
        </g>
      </g>
      <path id="Trazado_61915" data-name="Trazado 61915" d="M-42.553,66.946l.73,51.448c-72.864.821-93.523.838-93.523.838" fill="none" stroke="#726159" stroke-miterlimit="22.926" stroke-width="1"/>
      <line id="Línea_74" data-name="Línea 74" x1="0.372" y1="52.264" transform="translate(-135.72 66.384)" fill="none" stroke="#726159" stroke-miterlimit="22.926" stroke-width="1"/>
      <path id="Trazado_61916" data-name="Trazado 61916" d="M-83.6,106.629l-.5,12.242,42.54-.669.205-12.677Z" fill="#f6bec1" fill-rule="evenodd"/>
      <path id="Trazado_61917" data-name="Trazado 61917" d="M-83.6,106.629l-.5,12.242,42.54-.669.205-12.677Z" fill="none" stroke="#757474" stroke-miterlimit="22.926" stroke-width="1" stroke-dasharray="2 1"/>
      <path id="Trazado_61918" data-name="Trazado 61918" d="M-135.4,111.1c12.406,6.774,31.524,7.87,51.6,8.152l.2-12.623c-15.246.291-13.867-.08-29.167-2-3.414-.429-6.316-1.81-11.621-3.091C-130.729,100.006-135.336,104.686-135.4,111.1Z" fill="#f6bec1" fill-rule="evenodd"/>
      <path id="Trazado_61919" data-name="Trazado 61919" d="M-135.4,111.1c12.406,6.774,31.524,7.87,51.6,8.152l.2-12.623c-15.246.291-13.867-.08-29.167-2-3.414-.429-6.316-1.81-11.621-3.091C-130.729,100.006-135.336,104.686-135.4,111.1Z" fill="none" stroke="#757474" stroke-miterlimit="22.926" stroke-width="1" stroke-dasharray="2 1"/>
      <line id="Línea_75" data-name="Línea 75" x2="228.959" transform="translate(-124.653 252.14)" fill="none" stroke="#8b8b8a" stroke-miterlimit="22.926" stroke-width="0.567"/>
      <line id="Línea_76" data-name="Línea 76" x2="228.959" transform="translate(-124.653 252.14)" fill="none" stroke="#8b8b8a" stroke-miterlimit="22.926" stroke-width="0.567"/>
      <path id="Trazado_61920" data-name="Trazado 61920" d="M-124.236,147.039q31.887-1.861,40.135-28.168" fill="none" stroke="#d8006b" stroke-miterlimit="22.926" stroke-width="1"/>
      <path id="Trazado_61921" data-name="Trazado 61921" d="M63.508,111.923q14.22,8.462,40.43,6.7" fill="none" stroke="#00862f" stroke-miterlimit="22.926" stroke-width="1"/>
      <line id="Línea_77" data-name="Línea 77" x1="40.247" y1="0.219" transform="translate(-124.039 118.648)" fill="none" stroke="#d8006b" stroke-miterlimit="22.926" stroke-width="1"/>
      <path id="Trazado_61922" data-name="Trazado 61922" d="M-83.8,119.252l41.976-.858" fill="none" stroke="#00862f" stroke-miterlimit="22.926" stroke-width="1"/>
      <path id="Trazado_61923" data-name="Trazado 61923" d="M-135.669,73.613l11.525,27.752c13.995-3.829,21.2-5.574,39.7-5.4l42.378-.517-.393-22.168Z" fill="#f1a0a7" fill-rule="evenodd"/>
      <path id="Trazado_61924" data-name="Trazado 61924" d="M-135.669,73.613l11.525,27.752c13.995-3.829,21.2-5.574,39.7-5.4l42.378-.517-.393-22.168Z" fill="none" stroke="#757474" stroke-miterlimit="22.926" stroke-width="1" stroke-dasharray="2 1"/>
      <path id="Trazado_61925" data-name="Trazado 61925" d="M-84.1,118.871c-.335-28.252-.061-52.487-.061-52.487" fill="none" stroke="#726159" stroke-miterlimit="22.926" stroke-width="1"/>
      <line id="Línea_78" data-name="Línea 78" x1="0.372" y1="52.264" transform="translate(-124.411 66.384)" fill="none" stroke="#726159" stroke-miterlimit="22.926" stroke-width="1"/>
      <text id="D" transform="translate(-112.052 91.718)" fill="#161615" font-size="21.165" font-family="Calibri-Light, Calibri" font-weight="300"><tspan x="0" y="0">D</tspan></text>
      <g id="Grupo_38800" data-name="Grupo 38800">
        <path id="Trazado_61926" data-name="Trazado 61926" d="M-100.271,84.835a9.521,9.521,0,0,1-.423,2.972,5.637,5.637,0,0,1-1.25,2.154,5.264,5.264,0,0,1-2.041,1.313,8.465,8.465,0,0,1-2.9.444h-2.635a.668.668,0,0,1-.382-.139.588.588,0,0,1-.2-.512V79a.588.588,0,0,1,.2-.512.663.663,0,0,1,.382-.14h2.811a7.808,7.808,0,0,1,2.878.466,5.3,5.3,0,0,1,1.964,1.317,5.592,5.592,0,0,1,1.193,2.046A8.277,8.277,0,0,1-100.271,84.835Zm-1.353.062a7.63,7.63,0,0,0-.295-2.165,4.649,4.649,0,0,0-.909-1.72,4.2,4.2,0,0,0-1.556-1.132,6.06,6.06,0,0,0-2.4-.408h-2.057v11.12h2.067a6.944,6.944,0,0,0,2.31-.336,3.776,3.776,0,0,0,1.576-1.039,4.522,4.522,0,0,0,.946-1.772A9.082,9.082,0,0,0-101.624,84.9Z" fill="none" stroke="#d8006b" stroke-miterlimit="22.926" stroke-width="0.216"/>
      </g>
      <text id="P" transform="translate(-68.762 91.354)" fill="#161615" font-size="21.165" font-family="Calibri-Light, Calibri" font-weight="300"><tspan x="0" y="0">P</tspan></text>
      <g id="Grupo_38801" data-name="Grupo 38801">
        <path id="Trazado_61927" data-name="Trazado 61927" d="M-59.11,81.815a4.49,4.49,0,0,1-.316,1.706,3.788,3.788,0,0,1-.9,1.333,4.113,4.113,0,0,1-1.437.868,5.989,5.989,0,0,1-2.046.31h-1.736v5.115a.212.212,0,0,1-.031.114.212.212,0,0,1-.1.082.818.818,0,0,1-.191.052,1.808,1.808,0,0,1-.305.021,1.836,1.836,0,0,1-.3-.021.813.813,0,0,1-.2-.052.2.2,0,0,1-.1-.082.213.213,0,0,1-.032-.114V78.632a.586.586,0,0,1,.2-.511.665.665,0,0,1,.383-.14h2.717q.4,0,.785.037a6.934,6.934,0,0,1,.9.154,3.546,3.546,0,0,1,1.043.445,3.4,3.4,0,0,1,.9.8,3.484,3.484,0,0,1,.574,1.074A4.189,4.189,0,0,1-59.11,81.815Zm-1.333.114a2.954,2.954,0,0,0-.341-1.472,2.375,2.375,0,0,0-.832-.9,2.757,2.757,0,0,0-1.024-.372,6.945,6.945,0,0,0-1.007-.078h-1.9v5.809h1.82a4.164,4.164,0,0,0,1.466-.223,2.822,2.822,0,0,0,.992-.614,2.616,2.616,0,0,0,.616-.946A3.362,3.362,0,0,0-60.443,81.929Z" fill="none" stroke="#d8006b" stroke-miterlimit="22.926" stroke-width="0.216"/>
      </g>
      <path id="Trazado_61928" data-name="Trazado 61928" d="M-124.236,147.039h-11.458" fill="none" stroke="#111e72" stroke-miterlimit="22.926" stroke-width="1"/>
      <path id="Trazado_61929" data-name="Trazado 61929" d="M-124.039,118.931h-11.31" fill="none" stroke="#111e72" stroke-miterlimit="22.926" stroke-width="1"/>
      <path id="Trazado_61930" data-name="Trazado 61930" d="M-124.5,106.09a2.363,2.363,0,0,0-2.364,2.364,2.363,2.363,0,0,0,2.364,2.363,2.364,2.364,0,0,0,2.364-2.363A2.364,2.364,0,0,0-124.5,106.09Z" fill="#757474" fill-rule="evenodd"/>
      <path id="Trazado_61931" data-name="Trazado 61931" d="M-124.5,106.09a2.363,2.363,0,0,0-2.364,2.364,2.363,2.363,0,0,0,2.364,2.363,2.364,2.364,0,0,0,2.364-2.363A2.364,2.364,0,0,0-124.5,106.09Z" fill="none" stroke="#757474" stroke-miterlimit="22.926" stroke-width="0.567"/>
      <path id="Trazado_61932" data-name="Trazado 61932" d="M-124.915,367.853c-.061-36.785.679-220.814.679-220.814h-11.458c0,39.434-.062,223.327-.062,220.679Z" fill="#f6bec1" fill-rule="evenodd"/>
      <path id="Trazado_61933" data-name="Trazado 61933" d="M-124.915,367.853c-.061-36.785.679-220.814.679-220.814h-11.458c0,39.434-.062,223.327-.062,220.679Z" fill="none" stroke="#8b8b8a" stroke-miterlimit="22.926" stroke-width="0.567" stroke-dasharray="1.13 0.57"/>
      <g id="Grupo_38802" data-name="Grupo 38802">
        <path id="Trazado_61934" data-name="Trazado 61934" d="M-294.637,110.531a8.972,8.972,0,0,1-3.191.552,9.292,9.292,0,0,1-4.8-1.2,8.119,8.119,0,0,1-3.12-3.228,9.308,9.308,0,0,1-1.08-4.452,10.181,10.181,0,0,1,1.08-4.752,7.968,7.968,0,0,1,3.023-3.252,8.568,8.568,0,0,1,4.489-1.164,9.83,9.83,0,0,1,2.975.432,10.4,10.4,0,0,1,2.4,1.08l-1.369,3.288a6.365,6.365,0,0,0-3.887-1.44,4.631,4.631,0,0,0-2.521.744,5.386,5.386,0,0,0-1.872,2.028,5.87,5.87,0,0,0-.7,2.844,6.569,6.569,0,0,0,.647,2.989,4.818,4.818,0,0,0,1.849,2,5.35,5.35,0,0,0,2.808.72,6.132,6.132,0,0,0,2.328-.42,5.141,5.141,0,0,0,1.632-1l1.44,3.12A7.792,7.792,0,0,1-294.637,110.531Z" fill="#161615"/>
        <path id="Trazado_61935" data-name="Trazado 61935" d="M-279.013,100.4v10.488h-3.048l-.24-1.68a4.114,4.114,0,0,1-1.548,1.6,4.517,4.517,0,0,1-2.339.588,3.4,3.4,0,0,1-2.4-.888,3.013,3.013,0,0,1-.984-2.256V100.4h3.36V107q.072,1.536,1.416,1.537a2,2,0,0,0,1.764-1.081,5.273,5.273,0,0,0,.66-2.784V100.4Z" fill="#161615"/>
        <path id="Trazado_61936" data-name="Trazado 61936" d="M-271.08,101.292a6.459,6.459,0,0,1,1.548-1.044,3.206,3.206,0,0,1,1.248-.373l-.168,3.36a2.65,2.65,0,0,0-.408-.024,3.058,3.058,0,0,0-1.776.528,3.507,3.507,0,0,0-1.177,1.356,3.8,3.8,0,0,0-.407,1.693v4.1h-3.337V100.4h3.025l.263,2.4A5.216,5.216,0,0,1-271.08,101.292Z" fill="#161615"/>
        <path id="Trazado_61937" data-name="Trazado 61937" d="M-254.869,100.4l-5.952,10.7h-.1l-6.288-10.7h3.983l2.449,4.992,2.16-4.992Z" fill="#161615"/>
        <path id="Trazado_61938" data-name="Trazado 61938" d="M-241.621,100.4v10.488h-3.359v-1.3a4.711,4.711,0,0,1-3.505,1.584,5.239,5.239,0,0,1-3.78-1.391,5.465,5.465,0,0,1-1.452-4.129,6.276,6.276,0,0,1,.708-3.035,5.243,5.243,0,0,1,1.884-2.029,4.744,4.744,0,0,1,2.521-.72,4.87,4.87,0,0,1,2.208.42,4.539,4.539,0,0,1,1.439,1.188l.216-1.08Zm-3.359,6.456v-2.567a2.457,2.457,0,0,0-1-1.225,3.013,3.013,0,0,0-1.668-.456,2.511,2.511,0,0,0-1.884.816,2.869,2.869,0,0,0-.78,2.064,3.009,3.009,0,0,0,.384,1.5,2.848,2.848,0,0,0,1.02,1.068,2.622,2.622,0,0,0,1.38.384A2.657,2.657,0,0,0-244.98,106.859Z" fill="#161615"/>
        <path id="Trazado_61939" data-name="Trazado 61939" d="M-218.845,91.956v18.935h-3.36v-1.1a6.3,6.3,0,0,1-3.888,1.391,4.961,4.961,0,0,1-2.616-.7,4.817,4.817,0,0,1-1.812-1.992,6.635,6.635,0,0,1-.66-3.048,6,6,0,0,1,.708-2.987,4.755,4.755,0,0,1,1.956-1.921,6.02,6.02,0,0,1,2.856-.66,5.764,5.764,0,0,1,1.944.324,4.068,4.068,0,0,1,1.536.948V91.956Zm-4.464,15.995a3,3,0,0,0,1.1-1.188v-2.568a2.4,2.4,0,0,0-1.031-1.224,3.287,3.287,0,0,0-1.753-.456,2.691,2.691,0,0,0-1.955.817,2.768,2.768,0,0,0-.828,2.063,3.011,3.011,0,0,0,.383,1.5,2.841,2.841,0,0,0,1.02,1.068,2.622,2.622,0,0,0,1.38.384A3.261,3.261,0,0,0-223.309,107.951Z" fill="#161615"/>
        <path id="Trazado_61940" data-name="Trazado 61940" d="M-214.9,95.471a1.9,1.9,0,0,1,1.284-.492,1.826,1.826,0,0,1,1.248.492,1.56,1.56,0,0,1,.552,1.212,1.523,1.523,0,0,1-.552,1.2,1.846,1.846,0,0,1-1.248.48,1.921,1.921,0,0,1-1.284-.48,1.51,1.51,0,0,1-.564-1.2A1.547,1.547,0,0,1-214.9,95.471Zm2.868,4.932v10.488h-3.361V100.4Z" fill="#161615"/>
        <path id="Trazado_61941" data-name="Trazado 61941" d="M-207.589,110.651a5.048,5.048,0,0,1-1.872-1.272l1.393-1.848a4,4,0,0,0,2.615,1.3,2.3,2.3,0,0,0,1.044-.2.655.655,0,0,0,.4-.613.8.8,0,0,0-.456-.732,5.107,5.107,0,0,0-1.02-.42c-.376-.111-.628-.184-.756-.216a4.069,4.069,0,0,1-2.04-1.284,3.075,3.075,0,0,1-.672-1.956,3.363,3.363,0,0,1,.444-1.644,3.4,3.4,0,0,1,1.38-1.32,4.775,4.775,0,0,1,2.328-.516,8.019,8.019,0,0,1,2.208.264,5.788,5.788,0,0,1,1.752.864l-1.272,1.968a4.622,4.622,0,0,0-1.068-.636,2.744,2.744,0,0,0-1.068-.252,1.644,1.644,0,0,0-.935.241.685.685,0,0,0-.361.575.772.772,0,0,0,.42.756,6.535,6.535,0,0,0,1.38.516c.1.032.2.065.3.1s.212.064.324.1q2.472.817,2.473,2.976a3.516,3.516,0,0,1-.505,1.848,3.617,3.617,0,0,1-1.524,1.356,5.456,5.456,0,0,1-2.484.516A6.41,6.41,0,0,1-207.589,110.651Z" fill="#161615"/>
        <path id="Trazado_61942" data-name="Trazado 61942" d="M-194.485,100.4v10.488h-3.361V100.4Zm-.48-1.248h-2.04l1.872-3.239h3.72Z" fill="#161615"/>
        <path id="Trazado_61943" data-name="Trazado 61943" d="M-174.746,100.739a3.136,3.136,0,0,1,.973,2.28v7.872h-3.336v-6.48a2.933,2.933,0,0,0-.265-1.188.96.96,0,0,0-.84-.444,2.037,2.037,0,0,0-1.836,1.14,5.249,5.249,0,0,0-.66,2.676v4.3h-3.359v-6.48a2.7,2.7,0,0,0-.288-1.188,1.052,1.052,0,0,0-.889-.444,1.975,1.975,0,0,0-1.775,1.14,5.215,5.215,0,0,0-.649,2.628v4.344h-3.36V100.4h3.049l.239,1.656a4.121,4.121,0,0,1,3.792-2.184,3.906,3.906,0,0,1,2.1.516,2.648,2.648,0,0,1,1.14,1.525,5.329,5.329,0,0,1,1.6-1.489,3.673,3.673,0,0,1,1.908-.552A3.461,3.461,0,0,1-174.746,100.739Z" fill="#161615"/>
        <path id="Trazado_61944" data-name="Trazado 61944" d="M-169.826,95.471a1.9,1.9,0,0,1,1.284-.492,1.826,1.826,0,0,1,1.248.492,1.56,1.56,0,0,1,.552,1.212,1.523,1.523,0,0,1-.552,1.2,1.846,1.846,0,0,1-1.248.48,1.923,1.923,0,0,1-1.284-.48,1.51,1.51,0,0,1-.564-1.2A1.547,1.547,0,0,1-169.826,95.471Zm2.868,4.932v10.488h-3.36V100.4Z" fill="#161615"/>
        <path id="Trazado_61945" data-name="Trazado 61945" d="M-160.142,91.956v18.935h-3.36V91.956Z" fill="#161615"/>
      </g>
      <g id="Grupo_38803" data-name="Grupo 38803">
        <path id="Trazado_61946" data-name="Trazado 61946" d="M-299.94,128.771v10.488h-3.36v-1.3a4.711,4.711,0,0,1-3.505,1.584,5.238,5.238,0,0,1-3.779-1.391,5.461,5.461,0,0,1-1.452-4.129,6.264,6.264,0,0,1,.708-3.035,5.242,5.242,0,0,1,1.884-2.029,4.742,4.742,0,0,1,2.52-.719,4.854,4.854,0,0,1,2.208.42,4.515,4.515,0,0,1,1.44,1.187l.215-1.08Zm-3.36,6.456V132.66a2.45,2.45,0,0,0-1-1.225,3.015,3.015,0,0,0-1.668-.456,2.515,2.515,0,0,0-1.885.816,2.872,2.872,0,0,0-.779,2.064,3.009,3.009,0,0,0,.384,1.5,2.853,2.853,0,0,0,1.019,1.068,2.622,2.622,0,0,0,1.38.384A2.656,2.656,0,0,0-303.3,135.227Z" fill="#161615"/>
        <path id="Trazado_61947" data-name="Trazado 61947" d="M-285.324,120.324v18.935h-3.361V120.324Z" fill="#161615"/>
        <path id="Trazado_61948" data-name="Trazado 61948" d="M-270.589,128.771v10.488h-3.359v-1.3a4.711,4.711,0,0,1-3.505,1.584,5.235,5.235,0,0,1-3.779-1.391,5.462,5.462,0,0,1-1.453-4.129,6.275,6.275,0,0,1,.708-3.035,5.249,5.249,0,0,1,1.884-2.029,4.743,4.743,0,0,1,2.521-.719,4.857,4.857,0,0,1,2.208.42,4.512,4.512,0,0,1,1.439,1.187l.216-1.08Zm-3.359,6.456V132.66a2.46,2.46,0,0,0-1-1.225,3.017,3.017,0,0,0-1.668-.456,2.512,2.512,0,0,0-1.885.816,2.868,2.868,0,0,0-.779,2.064,3.019,3.019,0,0,0,.383,1.5,2.848,2.848,0,0,0,1.02,1.068,2.622,2.622,0,0,0,1.38.384A2.657,2.657,0,0,0-273.948,135.227Z" fill="#161615"/>
        <path id="Trazado_61949" data-name="Trazado 61949" d="M-247.813,120.324v18.935h-3.36v-1.1a6.3,6.3,0,0,1-3.888,1.391,4.961,4.961,0,0,1-2.616-.7,4.815,4.815,0,0,1-1.811-1.992,6.62,6.62,0,0,1-.66-3.048,5.992,5.992,0,0,1,.708-2.987,4.749,4.749,0,0,1,1.956-1.921,6.015,6.015,0,0,1,2.855-.659,5.76,5.76,0,0,1,1.944.323,4.072,4.072,0,0,1,1.537.948v-9.191Zm-4.463,16a3,3,0,0,0,1.1-1.188v-2.568a2.4,2.4,0,0,0-1.031-1.224,3.3,3.3,0,0,0-1.753-.456,2.693,2.693,0,0,0-1.955.817,2.77,2.77,0,0,0-.828,2.063,3.012,3.012,0,0,0,.384,1.5,2.841,2.841,0,0,0,1.019,1.069,2.63,2.63,0,0,0,1.38.383A3.268,3.268,0,0,0-252.276,136.319Z" fill="#161615"/>
        <path id="Trazado_61950" data-name="Trazado 61950" d="M-237.037,136l1.488,2.5a9.167,9.167,0,0,1-1.824.767,6.317,6.317,0,0,1-1.824.288,6.889,6.889,0,0,1-3.228-.708,4.782,4.782,0,0,1-2.052-1.992,6.067,6.067,0,0,1-.7-2.939,5.265,5.265,0,0,1,.8-2.832,5.761,5.761,0,0,1,2.2-2.053,6.283,6.283,0,0,1,3.048-.756,5.3,5.3,0,0,1,3.708,1.32,6.415,6.415,0,0,1,1.884,3.768l-7.68,2.448a2.618,2.618,0,0,0,2.088.888A3.87,3.87,0,0,0-237.037,136Zm-4.151-4.345a3.021,3.021,0,0,0-.673,2.064v.216l4.608-1.559a2.049,2.049,0,0,0-2.136-1.489A2.267,2.267,0,0,0-241.188,131.651Z" fill="#161615"/>
        <path id="Trazado_61951" data-name="Trazado 61951" d="M-227.725,120.324v18.935h-3.36V120.324Z" fill="#161615"/>
        <path id="Trazado_61952" data-name="Trazado 61952" d="M-209.149,136l1.488,2.5a9.191,9.191,0,0,1-1.824.767,6.318,6.318,0,0,1-1.825.288,6.882,6.882,0,0,1-3.227-.708,4.782,4.782,0,0,1-2.052-1.992,6.056,6.056,0,0,1-.7-2.939,5.256,5.256,0,0,1,.8-2.832,5.761,5.761,0,0,1,2.2-2.053,6.283,6.283,0,0,1,3.048-.756,5.3,5.3,0,0,1,3.708,1.32,6.42,6.42,0,0,1,1.883,3.768l-7.679,2.448a2.618,2.618,0,0,0,2.088.888A3.87,3.87,0,0,0-209.149,136Zm-4.152-4.345a3.026,3.026,0,0,0-.673,2.064v.216l4.609-1.559a2.049,2.049,0,0,0-2.136-1.489A2.269,2.269,0,0,0-213.3,131.651Z" fill="#161615"/>
        <path id="Trazado_61953" data-name="Trazado 61953" d="M-202.213,139.019a5.046,5.046,0,0,1-1.872-1.271l1.393-1.849a4,4,0,0,0,2.615,1.3,2.3,2.3,0,0,0,1.044-.2.655.655,0,0,0,.4-.613.8.8,0,0,0-.456-.732,5.107,5.107,0,0,0-1.02-.42c-.376-.111-.628-.184-.756-.216a4.069,4.069,0,0,1-2.04-1.284,3.075,3.075,0,0,1-.672-1.956,3.366,3.366,0,0,1,.444-1.644,3.4,3.4,0,0,1,1.38-1.32,4.775,4.775,0,0,1,2.328-.515,8.022,8.022,0,0,1,2.208.263,5.789,5.789,0,0,1,1.752.864l-1.272,1.968a4.622,4.622,0,0,0-1.068-.636,2.741,2.741,0,0,0-1.068-.251,1.658,1.658,0,0,0-.936.24.686.686,0,0,0-.36.575.772.772,0,0,0,.42.756,6.48,6.48,0,0,0,1.38.516c.1.033.2.065.3.1s.212.065.324.1q2.472.817,2.473,2.976a3.516,3.516,0,0,1-.505,1.848,3.61,3.61,0,0,1-1.524,1.356,5.457,5.457,0,0,1-2.484.516A6.41,6.41,0,0,1-202.213,139.019Z" fill="#161615"/>
        <path id="Trazado_61954" data-name="Trazado 61954" d="M-185.306,139.211a6.668,6.668,0,0,1-2.051.336,6.129,6.129,0,0,1-4.332-1.476,5.264,5.264,0,0,1-1.6-4.068,5.471,5.471,0,0,1,.78-2.94,5.189,5.189,0,0,1,2.052-1.92,5.866,5.866,0,0,1,2.736-.66,6.323,6.323,0,0,1,4.247,1.392l-1.632,2.161a3.621,3.621,0,0,0-2.3-.817,2.342,2.342,0,0,0-1.788.792,2.82,2.82,0,0,0-.732,1.992,2.741,2.741,0,0,0,.792,2,2.768,2.768,0,0,0,2.064.8,2.751,2.751,0,0,0,1.824-.6l1.68,2.113A5.444,5.444,0,0,1-185.306,139.211Z" fill="#161615"/>
        <path id="Trazado_61955" data-name="Trazado 61955" d="M-181.033,131a5.332,5.332,0,0,1,2.136-2,6.562,6.562,0,0,1,3.131-.733,6.287,6.287,0,0,1,3.084.733,5.155,5.155,0,0,1,2.053,2,5.746,5.746,0,0,1,.72,2.88,5.881,5.881,0,0,1-.72,2.9,5.1,5.1,0,0,1-2.053,2.027,6.4,6.4,0,0,1-3.131.732,6.806,6.806,0,0,1-3.108-.684,5.04,5.04,0,0,1-2.112-1.955,5.818,5.818,0,0,1-.756-3.025A5.531,5.531,0,0,1-181.033,131Zm3.347,4.98a2.311,2.311,0,0,0,1.825.828A2.344,2.344,0,0,0-174,136a3.073,3.073,0,0,0,.708-2.088,3.074,3.074,0,0,0-.708-2.089,2.348,2.348,0,0,0-1.86-.816,2.312,2.312,0,0,0-1.825.829,3.053,3.053,0,0,0-.719,2.076A3.052,3.052,0,0,0-177.686,135.983Z" fill="#161615"/>
        <path id="Trazado_61956" data-name="Trazado 61956" d="M-162.926,124.164v4.559h2.544v2.616h-2.544v7.92h-3.36v-7.92h-1.632v-2.616h1.632v-4.559Z" fill="#161615"/>
        <path id="Trazado_61957" data-name="Trazado 61957" d="M-150.494,136l1.488,2.5a9.167,9.167,0,0,1-1.824.767,6.317,6.317,0,0,1-1.824.288,6.887,6.887,0,0,1-3.228-.708,4.782,4.782,0,0,1-2.052-1.992,6.067,6.067,0,0,1-.7-2.939,5.265,5.265,0,0,1,.8-2.832,5.761,5.761,0,0,1,2.2-2.053,6.283,6.283,0,0,1,3.048-.756,5.3,5.3,0,0,1,3.708,1.32,6.415,6.415,0,0,1,1.884,3.768l-7.68,2.448a2.618,2.618,0,0,0,2.088.888A3.87,3.87,0,0,0-150.494,136Zm-4.152-4.345a3.025,3.025,0,0,0-.672,2.064v.216l4.608-1.559a2.049,2.049,0,0,0-2.136-1.489A2.27,2.27,0,0,0-154.646,131.651Z" fill="#161615"/>
      </g>
      <path id="Trazado_61958" data-name="Trazado 61958" d="M-188.932,147.639l.181.471-4.426,1.7-.362-.941,4.427-1.7Zm-4.607,1.229-.175.827-.55-.549Zm0,0,.362.941.175-.827,3.356,3.347-.712.714-3.356-3.348Zm.887.91.118-.555,3.192.629,3.128.518,3.062.407,3,.3,2.933.187,2.867.076,2.8-.034,2.737-.145,2.673-.254,2.607-.365,2.543-.474,2.477-.585,2.414-.695,2.348-.805,2.284-.914,2.219-1.025,2.155-1.135,2.091-1.245,2.028-1.354,1.962-1.465,1.9-1.575,1.836-1.686,1.771-1.8,1.708-1.907,1.644-2.017,1.58-2.128,1.516-2.239,1.452-2.35,1.389-2.461,1.324-2.571,1.261-2.683,1.2-2.793.525.214-1.2,2.811-1.269,2.7-1.334,2.591-1.4,2.48-1.464,2.369-1.53,2.259-1.595,2.148-1.66,2.037-1.726,1.927-1.791,1.816-1.856,1.705-1.921,1.593-1.986,1.483-2.052,1.371-2.116,1.26L-149,146.549l-2.246,1.037-2.311.926-2.375.814-2.44.7-2.505.591-2.568.48-2.633.368-2.7.257-2.761.145-2.825.035-2.889-.077-2.953-.188-3.017-.3-3.081-.41-3.145-.52Z" fill="#161615"/>
    </g>
  </g>
</svg>
