<svg xmlns="http://www.w3.org/2000/svg" width="305.615" height="340.615" viewBox="0 0 305.615 340.615">
  <g id="Grupo_1068240" data-name="Grupo 1068240" transform="translate(-1062.385 -3965.385)">
    <circle id="Elipse_4839" data-name="Elipse 4839" cx="64.5" cy="64.5" r="64.5" transform="translate(1239 4177)" fill="#895cd8"/>
    <g id="Grupo_38893" data-name="Grupo 38893" transform="translate(-1819.751 3572.654)">
      <path id="Trazado_62076" data-name="Trazado 62076" d="M2967.719,703.595a15.446,15.446,0,0,1-15.429-15.428V572.49l-34.083-19.475a15.667,15.667,0,0,1-6.257-20.536l35.478-71.575a18.471,18.471,0,0,1,6.7-7.421l43.687-27.571a24.837,24.837,0,0,1,25.152-.827c7.08,3.866,13.443,5.746,19.449,5.746a29.131,29.131,0,0,0,15.64-4.719,24.89,24.89,0,0,1,26.4.238l42.573,27.174a18.5,18.5,0,0,1,6.611,7.364l35.486,71.591a15.665,15.665,0,0,1-6.258,20.537l-34.081,19.476V688.167a15.446,15.446,0,0,1-15.428,15.428Z" transform="translate(0 0)" fill="#f8bf14"/>
      <path id="Trazado_62077" data-name="Trazado 62077" d="M3161.656,537.357l-35.484-71.588a9.27,9.27,0,0,0-3.315-3.694L3080.285,434.9a15.678,15.678,0,0,0-16.6-.168c-13.544,8.379-28.052,8.125-44.353-.775a15.629,15.629,0,0,0-15.819.533l-7.342,4.634-.026.016-36.323,22.923a9.248,9.248,0,0,0-3.354,3.719l-35.478,71.575a6.442,6.442,0,0,0,2.572,8.445l38.725,22.128V688.952a6.222,6.222,0,0,0,6.215,6.215h145.639a6.223,6.223,0,0,0,6.215-6.215V647.464a3.886,3.886,0,1,0-7.772,0V687.4H2970.062V519.5a3.886,3.886,0,0,0-7.772,0v39.475l-33.773-19.3,34.918-70.446a1.483,1.483,0,0,1,.539-.6l31.572-19.925a47.483,47.483,0,0,0,9.229,17.653,3.887,3.887,0,0,0,5.981-4.964,39.644,39.644,0,0,1-8.285-17.06l5.193-3.277c.161-.1.327-.2.494-.286a33.5,33.5,0,0,0,66.354-.1,7.933,7.933,0,0,1,1.592.779l4.122,2.63a39.681,39.681,0,0,1-58.587,26.473,3.886,3.886,0,1,0-3.867,6.741,47.447,47.447,0,0,0,69.384-28.791l31.52,20.12a1.5,1.5,0,0,1,.532.594l34.925,70.459-33.773,19.3V519.5a3.886,3.886,0,1,0-7.772,0V631.919a3.886,3.886,0,1,0,7.772,0V567.93l38.724-22.128a6.442,6.442,0,0,0,2.573-8.445Zm-120.332-75.548a25.725,25.725,0,0,1-25.25-20.784c17.967,9.661,34.863,10.059,50.251,1.182A25.61,25.61,0,0,1,3041.325,461.809Z" transform="translate(-0.786 -0.787)" fill="#ffa000"/>
      <g id="Grupo_38825" data-name="Grupo 38825" transform="translate(2981.94 560.812)">
        <path id="Trazado_62078" data-name="Trazado 62078" d="M2990.587,575.1h-2.533v-2.2h7.489v2.2h-2.533v13.216h-2.423Z" transform="translate(-2988.054 -572.675)"/>
        <path id="Trazado_62079" data-name="Trazado 62079" d="M2997.449,572.9h6.608v2.2h-4.185v4.075h3.325v2.2h-3.325v4.735h4.185v2.2h-6.608Z" transform="translate(-2988.793 -572.675)"/>
        <path id="Trazado_62080" data-name="Trazado 62080" d="M3006.127,572.9h3.04l2.356,9.228h.044V572.9h2.159v15.418h-2.488l-2.907-11.255h-.044v11.255h-2.159Z" transform="translate(-2989.475 -572.675)"/>
        <path id="Trazado_62081" data-name="Trazado 62081" d="M3016.335,572.9h6.608v2.2h-4.185v4.075h3.325v2.2h-3.325v4.735h4.185v2.2h-6.608Z" transform="translate(-2990.278 -572.675)"/>
        <path id="Trazado_62082" data-name="Trazado 62082" d="M3025.013,572.9h3.589a3.1,3.1,0,0,1,3.591,3.545v.947q0,2.4-1.586,3.039v.044a1.894,1.894,0,0,1,1.245,1.08,5.451,5.451,0,0,1,.363,2.18v2.71a10.3,10.3,0,0,0,.044,1.068,2.646,2.646,0,0,0,.22.8h-2.467a3.506,3.506,0,0,1-.176-.7,10.539,10.539,0,0,1-.044-1.189V583.6a2.4,2.4,0,0,0-.342-1.476,1.443,1.443,0,0,0-1.177-.418h-.837v6.608h-2.423Zm3.3,6.607a1.454,1.454,0,0,0,1.09-.374,1.769,1.769,0,0,0,.363-1.256v-1.189a1.966,1.966,0,0,0-.3-1.212,1.126,1.126,0,0,0-.936-.374h-1.1v4.4Z" transform="translate(-2990.961 -572.675)"/>
        <path id="Trazado_62083" data-name="Trazado 62083" d="M3038.472,572.9h6.608v2.2H3040.9v4.075h3.325v2.2H3040.9v4.735h4.185v2.2h-6.608Z" transform="translate(-2992.02 -572.675)"/>
        <path id="Trazado_62084" data-name="Trazado 62084" d="M3047.149,572.9h3.04l2.357,9.228h.044V572.9h2.158v15.418h-2.489l-2.907-11.255h-.044v11.255h-2.159Z" transform="translate(-2992.702 -572.675)"/>
        <path id="Trazado_62085" data-name="Trazado 62085" d="M3061.928,587.524a3.977,3.977,0,0,1-.914-2.8v-8.281a3.979,3.979,0,0,1,.914-2.8,4.05,4.05,0,0,1,5.309,0,3.978,3.978,0,0,1,.914,2.8v1.629h-2.291v-1.784q0-1.432-1.211-1.432t-1.212,1.432V584.9q0,1.411,1.212,1.411t1.211-1.411v-2.356h2.291v2.18a3.976,3.976,0,0,1-.914,2.8,4.05,4.05,0,0,1-5.309,0Z" transform="translate(-2993.792 -572.656)"/>
        <path id="Trazado_62086" data-name="Trazado 62086" d="M3071.167,587.532a4.081,4.081,0,0,1-.925-2.875V572.9h2.423v11.938a1.677,1.677,0,0,0,.32,1.145,1.359,1.359,0,0,0,1.827,0,1.674,1.674,0,0,0,.32-1.145V572.9h2.335v11.761a4.082,4.082,0,0,1-.925,2.875,4.1,4.1,0,0,1-5.374,0Z" transform="translate(-2994.518 -572.675)"/>
        <path id="Trazado_62087" data-name="Trazado 62087" d="M3079.948,572.9h6.608v2.2h-4.185v4.075h3.326v2.2h-3.326v4.735h4.185v2.2h-6.608Z" transform="translate(-2995.282 -572.675)"/>
        <path id="Trazado_62088" data-name="Trazado 62088" d="M3088.626,572.9h3.04l2.356,9.228h.044V572.9h2.159v15.418h-2.489l-2.907-11.255h-.044v11.255h-2.159Z" transform="translate(-2995.964 -572.675)"/>
        <path id="Trazado_62089" data-name="Trazado 62089" d="M3100.674,575.1h-2.532v-2.2h7.489v2.2H3103.1v13.216h-2.423Z" transform="translate(-2996.712 -572.675)"/>
        <path id="Trazado_62090" data-name="Trazado 62090" d="M3108.255,572.9h3.281l2.512,15.418h-2.423l-.441-3.062v.043h-2.753l-.439,3.018h-2.247ZM3110.9,583.2l-1.079-7.621h-.044l-1.057,7.621Z" transform="translate(-2997.311 -572.675)"/>
        <path id="Trazado_62091" data-name="Trazado 62091" d="M2998.633,596.8h6.608V599h-4.185v4.075h3.325v2.2h-3.325v4.736h4.185v2.2h-6.608Z" transform="translate(-2988.886 -574.555)"/>
        <path id="Trazado_62092" data-name="Trazado 62092" d="M3007.311,596.8h2.422v13.216h3.987v2.2h-6.409Z" transform="translate(-2989.568 -574.555)"/>
        <path id="Trazado_62093" data-name="Trazado 62093" d="M3021.178,596.8h3.281l2.511,15.418h-2.423l-.441-3.062v.044h-2.753l-.44,3.017h-2.246Zm2.643,10.308-1.079-7.621h-.044l-1.057,7.621Z" transform="translate(-2990.462 -574.555)"/>
        <path id="Trazado_62094" data-name="Trazado 62094" d="M3028.945,596.8h3.04l2.357,9.228h.044V596.8h2.157V612.22h-2.489l-2.907-11.255h-.044V612.22h-2.159Z" transform="translate(-2991.27 -574.555)"/>
        <path id="Trazado_62095" data-name="Trazado 62095" d="M3040.972,596.5h3.281l2.511,15.418h-2.423l-.441-3.062v.044h-2.753l-.44,3.017h-2.246Zm1.871-3.568h2.643l-2.357,2.533H3041.3Zm.771,13.876-1.079-7.621h-.045l-1.057,7.621Z" transform="translate(-2992.019 -574.25)"/>
        <path id="Trazado_62096" data-name="Trazado 62096" d="M3048.739,596.8h2.423v13.216h3.986v2.2h-6.409Z" transform="translate(-2992.827 -574.555)"/>
        <path id="Trazado_62097" data-name="Trazado 62097" d="M3056.963,596.8h2.423V612.22h-2.423Z" transform="translate(-2993.474 -574.555)"/>
        <path id="Trazado_62098" data-name="Trazado 62098" d="M3062,611.42a4.156,4.156,0,0,1-.9-2.875v-.881h2.29v1.058q0,1.5,1.255,1.5a1.178,1.178,0,0,0,.936-.364,1.763,1.763,0,0,0,.32-1.178,3.279,3.279,0,0,0-.44-1.707,8.186,8.186,0,0,0-1.63-1.773,9.768,9.768,0,0,1-2.093-2.39,4.876,4.876,0,0,1-.594-2.411,4.018,4.018,0,0,1,.925-2.831,3.475,3.475,0,0,1,2.687-1,3.343,3.343,0,0,1,2.633,1,4.191,4.191,0,0,1,.892,2.875v.638h-2.292v-.792a1.764,1.764,0,0,0-.309-1.156,1.116,1.116,0,0,0-.9-.364q-1.212,0-1.213,1.476a2.9,2.9,0,0,0,.453,1.564,8.647,8.647,0,0,0,1.641,1.763,9.086,9.086,0,0,1,2.093,2.4,5.336,5.336,0,0,1,.572,2.533,4.134,4.134,0,0,1-.935,2.908,3.522,3.522,0,0,1-2.721,1.013A3.405,3.405,0,0,1,3062,611.42Z" transform="translate(-2993.799 -574.536)"/>
        <path id="Trazado_62099" data-name="Trazado 62099" d="M3070.445,596.8h2.423V612.22h-2.423Z" transform="translate(-2994.534 -574.555)"/>
        <path id="Trazado_62100" data-name="Trazado 62100" d="M3075.484,611.42a4.149,4.149,0,0,1-.9-2.875v-.881h2.29v1.058q0,1.5,1.256,1.5a1.177,1.177,0,0,0,.935-.364,1.761,1.761,0,0,0,.32-1.178,3.267,3.267,0,0,0-.44-1.707,8.179,8.179,0,0,0-1.63-1.773,9.768,9.768,0,0,1-2.093-2.39,4.886,4.886,0,0,1-.594-2.411,4.018,4.018,0,0,1,.925-2.831,3.473,3.473,0,0,1,2.687-1,3.34,3.34,0,0,1,2.632,1,4.186,4.186,0,0,1,.892,2.875v.638h-2.291v-.792a1.772,1.772,0,0,0-.308-1.156,1.119,1.119,0,0,0-.9-.364q-1.212,0-1.212,1.476a2.913,2.913,0,0,0,.451,1.564,8.635,8.635,0,0,0,1.641,1.763,9.075,9.075,0,0,1,2.093,2.4,5.33,5.33,0,0,1,.572,2.533,4.134,4.134,0,0,1-.936,2.908,3.521,3.521,0,0,1-2.721,1.013A3.4,3.4,0,0,1,3075.484,611.42Z" transform="translate(-2994.86 -574.536)"/>
        <path id="Trazado_62101" data-name="Trazado 62101" d="M3087.753,596.8h3.7a3.526,3.526,0,0,1,2.709.969,4.026,4.026,0,0,1,.9,2.841v7.8a4.026,4.026,0,0,1-.9,2.841,3.526,3.526,0,0,1-2.709.969h-3.7Zm3.656,13.216a1.168,1.168,0,0,0,.914-.353,1.68,1.68,0,0,0,.32-1.145V600.5a1.678,1.678,0,0,0-.32-1.144,1.171,1.171,0,0,0-.914-.353h-1.233v11.014Z" transform="translate(-2995.896 -574.555)"/>
        <path id="Trazado_62102" data-name="Trazado 62102" d="M3097.459,596.8h6.608V599h-4.185v4.075h3.325v2.2h-3.325v4.736h4.185v2.2h-6.608Z" transform="translate(-2996.659 -574.555)"/>
        <path id="Trazado_62103" data-name="Trazado 62103" d="M3003.73,635.337a3.969,3.969,0,0,1-.915-2.8v-8.281a3.972,3.972,0,0,1,.915-2.8,4.048,4.048,0,0,1,5.308,0,3.976,3.976,0,0,1,.915,2.8v1.63h-2.292V624.1q0-1.43-1.211-1.432t-1.212,1.432v8.613q0,1.41,1.212,1.41t1.211-1.41V630.36h2.292v2.18a3.973,3.973,0,0,1-.915,2.8,4.046,4.046,0,0,1-5.308,0Z" transform="translate(-2989.215 -576.417)"/>
        <path id="Trazado_62104" data-name="Trazado 62104" d="M3013.958,620.709h3.281l2.512,15.418h-2.423l-.44-3.062v.044h-2.754l-.44,3.017h-2.247Zm2.642,10.308-1.079-7.621h-.044l-1.057,7.621Z" transform="translate(-2989.894 -576.435)"/>
        <path id="Trazado_62105" data-name="Trazado 62105" d="M3021.726,620.709h3.7a3.531,3.531,0,0,1,2.71.969,4.026,4.026,0,0,1,.9,2.841v7.8a4.029,4.029,0,0,1-.9,2.841,3.531,3.531,0,0,1-2.71.968h-3.7Zm3.655,13.216a1.168,1.168,0,0,0,.915-.353,1.681,1.681,0,0,0,.319-1.145v-8.018a1.681,1.681,0,0,0-.319-1.145,1.174,1.174,0,0,0-.915-.352h-1.233v11.013Z" transform="translate(-2990.702 -576.435)"/>
        <path id="Trazado_62106" data-name="Trazado 62106" d="M3033.2,620.709h3.282l2.511,15.418h-2.423l-.44-3.062v.044h-2.754l-.439,3.017h-2.247Zm2.642,10.308-1.079-7.621h-.044l-1.057,7.621Z" transform="translate(-2991.407 -576.435)"/>
        <path id="Trazado_62107" data-name="Trazado 62107" d="M3044.795,620.709h3.568a3.531,3.531,0,0,1,2.709.969,4.022,4.022,0,0,1,.9,2.841v1.519a4.022,4.022,0,0,1-.9,2.841,3.531,3.531,0,0,1-2.709.969h-1.145v6.277h-2.423Zm3.568,6.938a1.14,1.14,0,0,0,.893-.33,1.677,1.677,0,0,0,.3-1.124v-1.827a1.677,1.677,0,0,0-.3-1.124,1.14,1.14,0,0,0-.893-.33h-1.145v4.735Z" transform="translate(-2992.517 -576.435)"/>
        <path id="Trazado_62108" data-name="Trazado 62108" d="M3054.022,620.709h3.591a3.1,3.1,0,0,1,3.59,3.546v.947q0,2.4-1.585,3.04v.044a1.893,1.893,0,0,1,1.244,1.079,5.436,5.436,0,0,1,.364,2.181v2.709a10.02,10.02,0,0,0,.044,1.068,2.64,2.64,0,0,0,.22.8h-2.467a3.5,3.5,0,0,1-.176-.7,10.55,10.55,0,0,1-.044-1.189v-2.82a2.392,2.392,0,0,0-.342-1.475,1.443,1.443,0,0,0-1.177-.419h-.838v6.608h-2.423Zm3.3,6.608a1.46,1.46,0,0,0,1.091-.374,1.774,1.774,0,0,0,.363-1.257V624.5a1.957,1.957,0,0,0-.3-1.211,1.121,1.121,0,0,0-.935-.374h-1.1v4.4Z" transform="translate(-2993.242 -576.435)"/>
        <path id="Trazado_62109" data-name="Trazado 62109" d="M3063.656,620.709h6.608v2.2h-4.185v4.074h3.326v2.2h-3.326v4.736h4.185v2.2h-6.608Z" transform="translate(-2994 -576.435)"/>
        <path id="Trazado_62110" data-name="Trazado 62110" d="M3072.334,620.709h3.04l2.356,9.229h.044v-9.229h2.159v15.418h-2.489l-2.907-11.254h-.044v11.254h-2.159Z" transform="translate(-2994.683 -576.435)"/>
        <path id="Trazado_62111" data-name="Trazado 62111" d="M3082.542,620.709h3.7a3.53,3.53,0,0,1,2.709.969,4.027,4.027,0,0,1,.9,2.841v7.8a4.03,4.03,0,0,1-.9,2.841,3.53,3.53,0,0,1-2.709.968h-3.7Zm3.656,13.216a1.167,1.167,0,0,0,.914-.353,1.681,1.681,0,0,0,.32-1.145v-8.018a1.681,1.681,0,0,0-.32-1.145,1.173,1.173,0,0,0-.914-.352h-1.233v11.013Z" transform="translate(-2995.486 -576.435)"/>
        <path id="Trazado_62112" data-name="Trazado 62112" d="M3094.018,620.709h3.282l2.512,15.418h-2.423l-.441-3.062v.044h-2.753l-.44,3.017h-2.246Zm2.644,10.308-1.079-7.621h-.044l-1.058,7.621Z" transform="translate(-2996.191 -576.435)"/>
      </g>
      <rect id="Rectángulo_6291" data-name="Rectángulo 6291" width="132.963" height="38.72" transform="translate(2973.642 515.934)"/>
      <g id="Grupo_38826" data-name="Grupo 38826" transform="translate(2982.866 521.077)">
        <path id="Trazado_62113" data-name="Trazado 62113" d="M2989.058,529.946h6.259q3.263,0,4.761,1.516a6.408,6.408,0,0,1,1.5,4.665v1.652q0,4.186-2.764,5.3v.076a3.3,3.3,0,0,1,2.169,1.881,9.486,9.486,0,0,1,.634,3.8v4.724a17.92,17.92,0,0,0,.076,1.862,4.636,4.636,0,0,0,.384,1.4h-4.3a6.138,6.138,0,0,1-.307-1.229,18.344,18.344,0,0,1-.077-2.073v-4.915a4.171,4.171,0,0,0-.6-2.572,2.521,2.521,0,0,0-2.054-.73h-1.459v11.52h-4.224Zm5.759,11.519a2.533,2.533,0,0,0,1.9-.652,3.085,3.085,0,0,0,.634-2.189V536.55a3.413,3.413,0,0,0-.519-2.112,1.959,1.959,0,0,0-1.632-.653h-1.92v7.679Z" transform="translate(-2989.058 -529.562)" fill="#f8bf14"/>
        <path id="Trazado_62114" data-name="Trazado 62114" d="M3005.854,529.946h11.519v3.839h-7.3v7.1h5.8v3.84h-5.8v8.255h7.3v3.84h-11.519Z" transform="translate(-2990.379 -529.562)" fill="#f8bf14"/>
        <path id="Trazado_62115" data-name="Trazado 62115" d="M3022.283,555.447a6.928,6.928,0,0,1-1.594-4.877V536.133a6.932,6.932,0,0,1,1.594-4.877,7.06,7.06,0,0,1,9.254,0,6.935,6.935,0,0,1,1.593,4.877v2.841h-3.993v-3.11q0-2.495-2.112-2.5t-2.113,2.5v15.014q0,2.457,2.113,2.457t2.112-2.457v-4.109h3.993v3.8a6.931,6.931,0,0,1-1.593,4.877,7.057,7.057,0,0,1-9.254,0Z" transform="translate(-2991.546 -529.529)" fill="#f8bf14"/>
        <path id="Trazado_62116" data-name="Trazado 62116" d="M3038.388,555.462a7.125,7.125,0,0,1-1.612-5.011v-20.5H3041v20.811a2.927,2.927,0,0,0,.558,2,2.373,2.373,0,0,0,3.187,0,2.934,2.934,0,0,0,.556-2V529.946h4.07v20.5a7.126,7.126,0,0,1-1.613,5.011,7.155,7.155,0,0,1-9.369,0Z" transform="translate(-2992.811 -529.562)" fill="#f8bf14"/>
        <path id="Trazado_62117" data-name="Trazado 62117" d="M3053.7,529.946h11.52v3.839h-7.3v7.1h5.8v3.84h-5.8v8.255h7.3v3.84H3053.7Z" transform="translate(-2994.142 -529.562)" fill="#f8bf14"/>
        <path id="Trazado_62118" data-name="Trazado 62118" d="M3068.824,529.946h6.259q3.264,0,4.761,1.516a6.408,6.408,0,0,1,1.5,4.665v1.652q0,4.186-2.764,5.3v.076a3.3,3.3,0,0,1,2.17,1.881,9.488,9.488,0,0,1,.633,3.8v4.724a17.989,17.989,0,0,0,.076,1.862,4.679,4.679,0,0,0,.384,1.4h-4.3a6.222,6.222,0,0,1-.307-1.229,18.587,18.587,0,0,1-.077-2.073v-4.915a4.177,4.177,0,0,0-.595-2.572,2.521,2.521,0,0,0-2.055-.73h-1.459v11.52h-4.224Zm5.759,11.519a2.536,2.536,0,0,0,1.9-.652,3.086,3.086,0,0,0,.633-2.189V536.55a3.415,3.415,0,0,0-.518-2.112,1.96,1.96,0,0,0-1.633-.653h-1.92v7.679Z" transform="translate(-2995.332 -529.562)" fill="#f8bf14"/>
        <path id="Trazado_62119" data-name="Trazado 62119" d="M3085.62,529.946h6.45a6.159,6.159,0,0,1,4.723,1.689,7.022,7.022,0,0,1,1.574,4.954v13.593a7.015,7.015,0,0,1-1.574,4.953,6.149,6.149,0,0,1-4.723,1.69h-6.45Zm6.374,23.038a2.044,2.044,0,0,0,1.594-.614,2.936,2.936,0,0,0,.556-2V536.4a2.936,2.936,0,0,0-.556-2,2.045,2.045,0,0,0-1.594-.615h-2.15v19.2Z" transform="translate(-2996.653 -529.562)" fill="#f8bf14"/>
        <path id="Trazado_62120" data-name="Trazado 62120" d="M3102.54,529.946h11.519v3.839h-7.3v7.1h5.8v3.84h-5.8v8.255h7.3v3.84H3102.54Z" transform="translate(-2997.984 -529.562)" fill="#f8bf14"/>
      </g>
    </g>
    <g id="Grupo_1068137" data-name="Grupo 1068137" transform="translate(1068 3971)">
      <g id="Grupo_1054402" data-name="Grupo 1054402" transform="translate(0 0)" style="isolation: isolate">
        <line id="Línea_209" data-name="Línea 209" y2="20.566" transform="translate(10.284)" fill="none" stroke="#673ab7" stroke-linecap="round" stroke-linejoin="round" stroke-width="11.23"/>
        <line id="Línea_210" data-name="Línea 210" x1="20.567" transform="translate(0 10.283)" fill="none" stroke="#673ab7" stroke-linecap="round" stroke-linejoin="round" stroke-width="11.23"/>
      </g>
      <g id="Grupo_1054403" data-name="Grupo 1054403" transform="translate(42.215 0)" style="isolation: isolate">
        <line id="Línea_211" data-name="Línea 211" y2="20.566" transform="translate(10.284)" fill="none" stroke="#673ab7" stroke-linecap="round" stroke-linejoin="round" stroke-width="11.23"/>
        <line id="Línea_212" data-name="Línea 212" x1="20.567" transform="translate(0 10.283)" fill="none" stroke="#673ab7" stroke-linecap="round" stroke-linejoin="round" stroke-width="11.23"/>
      </g>
      <g id="Grupo_1054404" data-name="Grupo 1054404" transform="translate(84.433 0)" style="isolation: isolate">
        <line id="Línea_213" data-name="Línea 213" y2="20.566" transform="translate(10.284)" fill="none" stroke="#673ab7" stroke-linecap="round" stroke-linejoin="round" stroke-width="11.23"/>
        <line id="Línea_214" data-name="Línea 214" x1="20.567" transform="translate(0 10.283)" fill="none" stroke="#673ab7" stroke-linecap="round" stroke-linejoin="round" stroke-width="11.23"/>
      </g>
    </g>
  </g>
</svg>
