<svg xmlns="http://www.w3.org/2000/svg" width="167.772" height="138.52" viewBox="0 0 167.772 138.52">
  <g id="Grupo_1068248" data-name="Grupo 1068248" transform="translate(-307.228 -1313.505)">
    <circle id="Elipse_1792" data-name="Elipse 1792" cx="67.333" cy="67.333" r="67.333" transform="translate(340.334 1313.505)" fill="#ffd54f"/>
    <g id="Grupo_38887" data-name="Grupo 38887" transform="translate(307.228 1313.505)">
      <path id="Trazado_67723" data-name="Trazado 67723" d="M256.577,237.747a32.037,32.037,0,0,1,44.993,25.667,2.518,2.518,0,0,0,2.5,2.243,2.429,2.429,0,0,0,.278-.016,2.519,2.519,0,0,0,2.227-2.776,37.068,37.068,0,0,0-52.068-29.7,2.516,2.516,0,1,0,2.072,4.586Zm0,0" transform="translate(-186.829 -229.89)" fill="#673ab7"/>
      <path id="Trazado_67725" data-name="Trazado 67725" d="M298.328,274.116a7.983,7.983,0,1,0,5.644,2.339,7.923,7.923,0,0,0-5.644-2.339Zm2.951,7.983a2.95,2.95,0,1,1-2.951-2.951,2.95,2.95,0,0,1,2.951,2.951Zm0,0" transform="translate(-207.462 -254.338)" fill="#673ab7"/>
      <path id="Trazado_67726" data-name="Trazado 67726" d="M202.7,312.558a37.338,37.338,0,0,0,21.367-25.836,2.516,2.516,0,1,0-4.911-1.1,32.27,32.27,0,0,1-18.41,22.3,50.641,50.641,0,0,0-14.43-17.9,7.979,7.979,0,1,0-13.811-7.662,50.124,50.124,0,0,0-16.588-3c0-.259-.017-.515-.017-.772A31.72,31.72,0,0,1,165.942,255.3a2.516,2.516,0,1,0-3.455-3.659,36.707,36.707,0,0,0-11.62,26.943c0,.321.005.643.014.966A50.42,50.42,0,0,0,105,329.7a49.885,49.885,0,0,0,10.324,30.55,2.516,2.516,0,1,0,4-3.057,44.914,44.914,0,0,1-9.288-27.494,45.321,45.321,0,1,1,45.32,45.32,44.828,44.828,0,0,1-28.3-9.917,2.516,2.516,0,1,0-3.144,3.929A50.356,50.356,0,0,0,202.7,312.558Zm-24.817-29.452a2.948,2.948,0,0,1,4.316,4.012,50.472,50.472,0,0,0-5.045-2.8,2.929,2.929,0,0,1,.728-1.209Zm0,0" transform="translate(-105 -241.533)" fill="#673ab7"/>
      <path id="Trazado_67727" data-name="Trazado 67727" d="M173.676,418.654a35.531,35.531,0,1,0-35.531-35.531,35.57,35.57,0,0,0,35.531,35.531Zm0-66.029a30.5,30.5,0,1,1-30.5,30.5,30.533,30.533,0,0,1,30.5-30.5Zm0,0" transform="translate(-123.323 -294.957)" fill="#673ab7"/>
      <path id="Trazado_67728" data-name="Trazado 67728" d="M180.934,449.182a8.267,8.267,0,1,0-8.266-8.266,8.276,8.276,0,0,0,8.266,8.266Zm0-11.5a3.234,3.234,0,1,1-3.233,3.235,3.239,3.239,0,0,1,3.233-3.235Zm0,0" transform="translate(-142.407 -341.976)" fill="#673ab7"/>
      <path id="Trazado_67729" data-name="Trazado 67729" d="M233.825,449.182a8.267,8.267,0,1,0-8.266-8.266,8.275,8.275,0,0,0,8.266,8.266Zm0-11.5a3.234,3.234,0,1,1-3.234,3.235,3.239,3.239,0,0,1,3.234-3.235Zm0,0" transform="translate(-171.646 -341.976)" fill="#673ab7"/>
      <path id="Trazado_67730" data-name="Trazado 67730" d="M180.934,401.006a8.267,8.267,0,1,0-8.266-8.268,8.277,8.277,0,0,0,8.266,8.268Zm0-11.5a3.234,3.234,0,1,1-3.233,3.233,3.238,3.238,0,0,1,3.233-3.233Zm0,0" transform="translate(-142.407 -315.344)" fill="#673ab7"/>
      <path id="Trazado_67731" data-name="Trazado 67731" d="M233.825,401.006a8.267,8.267,0,1,0-8.266-8.268,8.275,8.275,0,0,0,8.266,8.268Zm0-11.5a3.234,3.234,0,1,1-3.234,3.233,3.237,3.237,0,0,1,3.234-3.233Zm0,0" transform="translate(-171.646 -315.344)" fill="#673ab7"/>
    </g>
  </g>
</svg>
