<svg id="surface1" xmlns="http://www.w3.org/2000/svg" width="73.925" height="81.276" viewBox="0 0 73.925 81.276">
  <path id="Trazado_771889" data-name="Trazado 771889" d="M207.516,229.435a21.541,21.541,0,1,1-3.016-.22A25.533,25.533,0,0,1,207.516,229.435Zm0,0" transform="translate(-153.868 -192.829)" fill="#673ab7"/>
  <path id="Trazado_771890" data-name="Trazado 771890" d="M62.264,45.673a22.216,22.216,0,0,0-3.015-.2,21.606,21.606,0,0,0-18.989,31.9l-.034.017H17.7a7.454,7.454,0,0,1-7.454-7.453v-51.7A7.454,7.454,0,0,1,17.7,10.777h27.34V23.11A5.755,5.755,0,0,0,50.8,28.869H62.264Zm0,0" transform="translate(-8.616 -9.067)" fill="#d1bcff"/>
  <path id="Trazado_771891" data-name="Trazado 771891" d="M229.43,10.777l17.227,18.092H235.189a5.755,5.755,0,0,1-5.759-5.759Zm0,0" transform="translate(-193.009 -9.067)" fill="#ffd54f"/>
  <path id="Trazado_771892" data-name="Trazado 771892" d="M55.393,35.184V19.8a1.779,1.779,0,0,0-.491-1.169L37.657.525A1.719,1.719,0,0,0,36.42,0H9.08A9.109,9.109,0,0,0,0,9.164v51.7a9.052,9.052,0,0,0,9.08,9.1H30.661A23.031,23.031,0,0,0,50.633,81.277a23.288,23.288,0,0,0,4.76-46.093ZM38.114,5.946l11.57,12.179h-7.5a4.092,4.092,0,0,1-4.066-4.082v-8.1ZM3.388,60.864V9.164A5.722,5.722,0,0,1,9.08,3.388H34.726V14.043a7.468,7.468,0,0,0,7.453,7.47h9.825v13.23c-.508-.017-.915-.084-1.356-.084A23.636,23.636,0,0,0,35.2,40.486H13.687a1.694,1.694,0,0,0,0,3.388H32.05a26.952,26.952,0,0,0-2.981,5.252H13.687a1.694,1.694,0,1,0,0,3.388h14.28a22.8,22.8,0,0,0-.644,5.455,23.2,23.2,0,0,0,1.643,8.6H9.08A5.675,5.675,0,0,1,3.388,60.864ZM50.633,77.906A19.9,19.9,0,1,1,50.616,38.1a21.676,21.676,0,0,1,2.778.187,19.909,19.909,0,0,1-2.761,39.622Zm0,0" fill="#673ab7"/>
  <path id="Trazado_771893" data-name="Trazado 771893" d="M77.245,205.072H94.4a1.694,1.694,0,0,0,0-3.388H77.245a1.694,1.694,0,0,0,0,3.388Zm0,0" transform="translate(-63.558 -169.668)" fill="#673ab7"/>
  <path id="Trazado_771894" data-name="Trazado 771894" d="M265.973,295.9l-6.962,7.5v-18.5a1.694,1.694,0,0,0-3.388,0v18.5l-7.013-7.5a1.71,1.71,0,0,0-2.405-.085,1.688,1.688,0,0,0-.085,2.389l9.91,10.655a1.68,1.68,0,0,0,2.473,0l9.91-10.655a1.687,1.687,0,0,0-.068-2.389A1.669,1.669,0,0,0,265.973,295.9Zm0,0" transform="translate(-206.667 -238.253)" fill="#ffd54f"/>
</svg>
