<svg xmlns="http://www.w3.org/2000/svg" width="89.572" height="89.487" viewBox="0 0 89.572 89.487">
  <g id="Grupo_1068240" data-name="Grupo 1068240" transform="translate(-390 -1429.756)">
    <circle id="Elipse_1792" data-name="Elipse 1792" cx="34" cy="34" r="34" transform="translate(411.572 1451.244)" fill="#ffd54f"/>
    <g id="sewing" transform="translate(387.936 1429.756)">
      <path id="Trazado_771878" data-name="Trazado 771878" d="M40.263,457.391a1.2,1.2,0,0,0,1.2,1.2h4.8a1.2,1.2,0,1,0,0-2.4h-4.8A1.2,1.2,0,0,0,40.263,457.391Z" transform="translate(-32.087 -383.214)" fill="#673ab7"/>
      <path id="Trazado_771879" data-name="Trazado 771879" d="M176.262,458.591a1.2,1.2,0,1,0,0-2.4h-4.8a1.2,1.2,0,1,0,0,2.4Z" transform="translate(-141.291 -383.214)" fill="#673ab7"/>
      <path id="Trazado_771880" data-name="Trazado 771880" d="M111.262,458.591a1.2,1.2,0,1,0,0-2.4h-4.8a1.2,1.2,0,1,0,0,2.4Z" transform="translate(-86.689 -383.214)" fill="#673ab7"/>
      <path id="Trazado_771881" data-name="Trazado 771881" d="M305.639,40.03a1.2,1.2,0,0,0,0,2.4h4.8a1.2,1.2,0,0,0,0-2.4Z" transform="translate(-254.003 -33.626)" fill="#673ab7"/>
      <path id="Trazado_771882" data-name="Trazado 771882" d="M82.538,58.222a2.921,2.921,0,0,0-2.142-.939H72.874l2.078-27.37a1.2,1.2,0,0,0-2.393-.182L70.467,57.283H61.156V38.043A2.915,2.915,0,0,0,58,35.138a23.352,23.352,0,0,0-5.513,1.137V23.735a5.334,5.334,0,0,0-5.327-5.329H44.846l-.729-9.6h1.92a1.2,1.2,0,0,0,0-2.4h-2.1l-.252-3.325a.631.631,0,0,1,.631-.679H64.7a.932.932,0,0,1,.931.931V6.4h-3.6a1.2,1.2,0,0,0,0,2.4h3.6v3.556a8.836,8.836,0,0,0,6.772,8.616.949.949,0,0,1,.744.983l-.174,2.294a1.2,1.2,0,0,0,1.105,1.287q.046,0,.092,0a1.2,1.2,0,0,0,1.2-1.109l.174-2.294a3.339,3.339,0,0,0-2.572-3.5,6.444,6.444,0,0,1-4.937-6.284V3.331A3.335,3.335,0,0,0,64.7,0H44.313a3.031,3.031,0,0,0-3.023,3.261l1.15,15.145h-8a5.365,5.365,0,0,0-5.316,4.972c-.873,12.045-5.926,22.7-13.515,28.511a1.2,1.2,0,1,0,1.458,1.906c8.126-6.218,13.528-17.524,14.451-30.243a2.956,2.956,0,0,1,2.923-2.746H47.162a2.932,2.932,0,0,1,2.927,2.929v13.5A23.414,23.414,0,0,0,41.57,72.978h-1a1.2,1.2,0,0,0,0,2.4h3.18A23.552,23.552,0,0,0,48.74,79.04a2.929,2.929,0,0,1-1.578.466H7.393a2.932,2.932,0,0,1-2.927-2.929V61.266a2.915,2.915,0,0,1,2.414-2.881q.65-.113,1.3-.269v11.77a1.2,1.2,0,0,0,2.4,0v-12.5c.5-.183,1-.382,1.491-.6a1.2,1.2,0,0,0-.98-2.19c-.17.076-.34.148-.511.219V44.453a4.9,4.9,0,0,1,4.9-4.9h2.18a7.3,7.3,0,1,0,0-14.593h-.711L14.193,2.8a2.344,2.344,0,0,0-4.653,0L6.791,24.964H3.265a1.2,1.2,0,1,0,0,2.4H6.493l-.1.823a5.517,5.517,0,1,0,10.95,0l-.1-.823h.413a4.9,4.9,0,1,1,0,9.793h-2.18a7.3,7.3,0,0,0-7.3,7.3V55.639q-.85.231-1.709.381a5.311,5.311,0,0,0-4.4,5.245V76.577a5.334,5.334,0,0,0,5.327,5.329H47.161A5.352,5.352,0,0,0,51.1,80.164,23.422,23.422,0,0,0,73.42,77.651a1.2,1.2,0,1,0-1.381-1.962A21.025,21.025,0,1,1,58.2,37.53a.515.515,0,0,1,.558.513v2.938a17.5,17.5,0,0,0-3.876.7,1.2,1.2,0,1,0,.693,2.3,15.1,15.1,0,0,1,3.183-.6v15.1a1.2,1.2,0,0,0,1.2,1.2h15.1a15.13,15.13,0,0,1-.458,2.7A1.2,1.2,0,1,0,76.912,63a17.535,17.535,0,0,0,.546-3.317H80.4a.515.515,0,0,1,.513.557,20.838,20.838,0,0,1-4.954,11.882,1.2,1.2,0,0,0,1.825,1.558A23.225,23.225,0,0,0,83.3,60.436a2.924,2.924,0,0,0-.762-2.214ZM14.96,28.482a3.117,3.117,0,1,1-6.187,0L11.866,3.538l2.657,21.426H13.066V22.608a1.2,1.2,0,0,0-2.4,0v5.776a1.2,1.2,0,0,0,2.4,0v-1.02h1.755Z" fill="#673ab7"/>
      <path id="Trazado_771883" data-name="Trazado 771883" d="M299.49,444.736a17.47,17.47,0,0,0,4.619,2.239,1.2,1.2,0,1,0,.718-2.29,15.065,15.065,0,0,1-3.985-1.932,1.2,1.2,0,1,0-1.352,1.983Z" transform="translate(-249.405 -371.75)" fill="#673ab7"/>
      <path id="Trazado_771884" data-name="Trazado 771884" d="M425.385,416.222a1.2,1.2,0,0,0-1.669.307,15.217,15.217,0,0,1-3.02,3.243,1.2,1.2,0,1,0,1.5,1.873,17.618,17.618,0,0,0,3.5-3.755A1.2,1.2,0,0,0,425.385,416.222Z" transform="translate(-351.284 -349.46)" fill="#673ab7"/>
      <path id="Trazado_771885" data-name="Trazado 771885" d="M279.88,278.044a1.2,1.2,0,0,0-1.427-1.929,17.624,17.624,0,0,0-3.637,3.618,1.2,1.2,0,1,0,1.922,1.437A15.223,15.223,0,0,1,279.88,278.044Z" transform="translate(-228.918 -231.747)" fill="#673ab7"/>
      <path id="Trazado_771886" data-name="Trazado 771886" d="M256.689,333.924a15.148,15.148,0,0,1,.667-4.379,1.2,1.2,0,1,0-2.294-.706,17.547,17.547,0,0,0-.773,5.072,1.2,1.2,0,0,0,1.194,1.206h.006A1.2,1.2,0,0,0,256.689,333.924Z" transform="translate(-211.875 -275.523)" fill="#673ab7"/>
      <path id="Trazado_771887" data-name="Trazado 771887" d="M262.473,398.027a1.2,1.2,0,1,0,1.937-1.417,15.089,15.089,0,0,1-2.064-3.919,1.2,1.2,0,0,0-2.264.794A17.492,17.492,0,0,0,262.473,398.027Z" transform="translate(-216.684 -329.198)" fill="#673ab7"/>
      <path id="Trazado_771888" data-name="Trazado 771888" d="M365.88,454.757a15.106,15.106,0,0,1-4.354.811,1.2,1.2,0,0,0,.044,2.4h.046a17.5,17.5,0,0,0,5.045-.94,1.2,1.2,0,0,0-.782-2.269Z" transform="translate(-300.988 -381.954)" fill="#673ab7"/>
    </g>
  </g>
</svg>
