<svg xmlns="http://www.w3.org/2000/svg" width="107.717" height="89.142" viewBox="0 0 107.717 89.142">
  <g id="Grupo_1068242" data-name="Grupo 1068242" transform="translate(-229.283 -7708.805)">
    <g id="Grupo_38974" data-name="Grupo 38974" transform="translate(-6776 5729.805)">
      <circle id="Elipse_1792" data-name="Elipse 1792" cx="43" cy="43" r="43" transform="translate(7027 1979.196)" fill="#ffd54f"/>
      <g id="Grupo_38887" data-name="Grupo 38887" transform="translate(7005.283 1979)">
        <path id="Trazado_67723" data-name="Trazado 67723" d="M255.31,234.946a20.617,20.617,0,0,1,28.955,16.517,1.62,1.62,0,0,0,1.608,1.443,1.56,1.56,0,0,0,.179-.01,1.621,1.621,0,0,0,1.433-1.786A23.855,23.855,0,0,0,253.977,232a1.619,1.619,0,1,0,1.333,2.951Zm0,0" transform="translate(-210.425 -229.89)" fill="#673ab7"/>
        <path id="Trazado_67725" data-name="Trazado 67725" d="M295.484,274.116a5.137,5.137,0,1,0,3.632,1.505,5.1,5.1,0,0,0-3.632-1.505Zm1.9,5.137a1.9,1.9,0,1,1-1.9-1.9,1.9,1.9,0,0,1,1.9,1.9Zm0,0" transform="translate(-237.009 -261.389)" fill="#673ab7"/>
        <path id="Trazado_67726" data-name="Trazado 67726" d="M167.872,290.6a24.028,24.028,0,0,0,13.75-16.626,1.619,1.619,0,1,0-3.16-.708,20.766,20.766,0,0,1-11.847,14.35,32.589,32.589,0,0,0-9.286-11.52,5.135,5.135,0,1,0-8.888-4.931,32.255,32.255,0,0,0-10.675-1.932c0-.166-.011-.332-.011-.5a20.413,20.413,0,0,1,6.463-14.984,1.619,1.619,0,1,0-2.223-2.355,23.622,23.622,0,0,0-7.478,17.339c0,.207,0,.414.009.622A32.447,32.447,0,0,0,105,301.629a32.1,32.1,0,0,0,6.644,19.66,1.619,1.619,0,1,0,2.572-1.967,28.9,28.9,0,0,1-5.977-17.693A29.165,29.165,0,1,1,137.4,330.793a28.848,28.848,0,0,1-18.21-6.382,1.619,1.619,0,1,0-2.023,2.528,32.405,32.405,0,0,0,50.7-36.342ZM151.9,271.644a1.9,1.9,0,0,1,2.778,2.582,32.484,32.484,0,0,0-3.246-1.8,1.885,1.885,0,0,1,.469-.778Zm0,0" transform="translate(-105 -244.891)" fill="#673ab7"/>
        <path id="Trazado_67727" data-name="Trazado 67727" d="M161.01,393.323a22.865,22.865,0,1,0-22.865-22.865,22.89,22.89,0,0,0,22.865,22.865Zm0-42.491a19.626,19.626,0,1,1-19.627,19.626,19.649,19.649,0,0,1,19.627-19.626Zm0,0" transform="translate(-128.607 -313.72)" fill="#673ab7"/>
        <path id="Trazado_67728" data-name="Trazado 67728" d="M177.987,443.288a5.32,5.32,0,1,0-5.319-5.319,5.326,5.326,0,0,0,5.319,5.319Zm0-7.4a2.081,2.081,0,1,1-2.081,2.082,2.084,2.084,0,0,1,2.081-2.082Zm0,0" transform="translate(-153.194 -374.298)" fill="#673ab7"/>
        <path id="Trazado_67729" data-name="Trazado 67729" d="M230.878,443.288a5.32,5.32,0,1,0-5.319-5.319,5.325,5.325,0,0,0,5.319,5.319Zm0-7.4a2.081,2.081,0,1,1-2.081,2.082,2.084,2.084,0,0,1,2.081-2.082Zm0,0" transform="translate(-190.864 -374.298)" fill="#673ab7"/>
        <path id="Trazado_67730" data-name="Trazado 67730" d="M177.987,395.112a5.32,5.32,0,1,0-5.319-5.321,5.326,5.326,0,0,0,5.319,5.321Zm0-7.4a2.081,2.081,0,1,1-2.081,2.081,2.083,2.083,0,0,1,2.081-2.081Zm0,0" transform="translate(-153.194 -339.986)" fill="#673ab7"/>
        <path id="Trazado_67731" data-name="Trazado 67731" d="M230.878,395.112a5.32,5.32,0,1,0-5.319-5.321,5.325,5.325,0,0,0,5.319,5.321Zm0-7.4a2.081,2.081,0,1,1-2.081,2.081,2.083,2.083,0,0,1,2.081-2.081Zm0,0" transform="translate(-190.864 -339.986)" fill="#673ab7"/>
      </g>
    </g>
  </g>
</svg>
