<svg xmlns="http://www.w3.org/2000/svg" width="162.533" height="97.181" viewBox="0 0 162.533 97.181">
  <g id="Grupo_38829" data-name="Grupo 38829" transform="translate(-231 -1642.071)">
    <circle id="Elipse_1792" data-name="Elipse 1792" cx="48.59" cy="48.59" r="48.59" transform="translate(296.353 1642.071)" fill="#ffd54f"/>
    <g id="Grupo_38828" data-name="Grupo 38828" transform="translate(231 1668.07)">
      <path id="Trazado_67678" data-name="Trazado 67678" d="M230.666,354.89H216.24a1.887,1.887,0,0,0,0,3.774h1.206V380.99a1.888,1.888,0,0,0,3.775,0V358.664h9.319v37.028H139.7a10.466,10.466,0,0,0-1.767-9.52,20.16,20.16,0,0,0,2.226-8.349,19.188,19.188,0,0,0-2.245-8.266,10.548,10.548,0,0,0,1.29-10.892h14.271V380.99a1.887,1.887,0,1,0,3.774,0V358.664h12.361v5.761a1.887,1.887,0,1,0,3.774,0v-5.761h12.078V380.99a1.887,1.887,0,1,0,3.774,0V358.664h12.361v5.761a1.888,1.888,0,0,0,3.775,0v-5.761h1.619a1.887,1.887,0,0,0,0-3.774H108.649A3.651,3.651,0,0,0,105,358.539v37.278a3.652,3.652,0,0,0,3.649,3.648h17.364a1.887,1.887,0,1,0,0-3.774H108.774V358.665h25.981a6.753,6.753,0,0,1,.076,8.7,3.365,3.365,0,0,0-.379,3.732,15.886,15.886,0,0,1,1.927,6.73,16.6,16.6,0,0,1-1.927,6.856,3.368,3.368,0,0,0,.389,3.677,6.756,6.756,0,0,1,1.535,4.469,6.653,6.653,0,0,1-.738,2.868h-.363a1.887,1.887,0,1,0,0,3.774h95.389a3.653,3.653,0,0,0,3.649-3.649V358.538a3.652,3.652,0,0,0-3.649-3.648Zm0,0" transform="translate(-105 -354.89)" fill="#673ab7"/>
      <path id="Trazado_67679" data-name="Trazado 67679" d="M137.285,394.494V405.3a5.347,5.347,0,0,0,10.693,0V394.494a5.347,5.347,0,0,0-10.693,0Zm6.918,0V405.3a1.572,1.572,0,1,1-3.144,0V394.494a1.572,1.572,0,1,1,3.144,0Zm0,0" transform="translate(-126.413 -377.611)" fill="#673ab7"/>
      <path id="Trazado_67680" data-name="Trazado 67680" d="M296.969,424.445a1.887,1.887,0,0,0,1.888-1.886v-12.98a1.888,1.888,0,0,0-1.888-1.888H294.2a1.888,1.888,0,0,0,0,3.775h.888v11.092a1.886,1.886,0,0,0,1.886,1.886Zm0,0" transform="translate(-229.231 -389.91)" fill="#673ab7"/>
      <path id="Trazado_67681" data-name="Trazado 67681" d="M387.789,414.574c-2.051,2.931-3.274,4.533-3.932,5.393-.847,1.109-1.314,1.721-1,2.74a1.962,1.962,0,0,0,1.26,1.281c.251.084.451.151,3.015.151,1,0,2.359-.01,4.22-.034a1.887,1.887,0,1,0-.047-3.774c-1.007.013-2.063.022-3.02.026.668-.9,1.522-2.084,2.6-3.62a8.474,8.474,0,0,0,1.785-4.4,5.209,5.209,0,0,0-10.32-1.008,1.888,1.888,0,0,0,3.7.728,1.434,1.434,0,0,1,2.838.185,5.321,5.321,0,0,1-1.1,2.332Zm0,0" transform="translate(-288.925 -389.537)" fill="#673ab7"/>
    </g>
  </g>
</svg>
