<svg xmlns="http://www.w3.org/2000/svg" width="239.218" height="258.604" viewBox="0 0 239.218 258.604">
  <g id="Grupo_39150" data-name="Grupo 39150" transform="translate(-2910.325 -422.063)">
    <path id="Trazado_62076" data-name="Trazado 62076" d="M2963.044,680.667a14.188,14.188,0,0,1-14.172-14.172V560.239l-31.307-17.889a14.39,14.39,0,0,1-5.747-18.863l32.589-65.746a16.967,16.967,0,0,1,6.151-6.816l40.13-25.326a22.814,22.814,0,0,1,23.1-.76c6.5,3.551,12.348,5.278,17.865,5.278a26.759,26.759,0,0,0,14.366-4.335,22.863,22.863,0,0,1,24.252.218l39.106,24.961a16.989,16.989,0,0,1,6.072,6.765l32.6,65.76a14.389,14.389,0,0,1-5.748,18.864l-31.306,17.89V666.5a14.188,14.188,0,0,1-14.172,14.172Z" transform="translate(0 0)" fill="#f8bf14"/>
    <path id="Trazado_62077" data-name="Trazado 62077" d="M3142,528.782l-32.594-65.758a8.515,8.515,0,0,0-3.045-3.393l-39.106-24.962a14.4,14.4,0,0,0-15.245-.154c-12.441,7.7-25.768,7.464-40.741-.712a14.356,14.356,0,0,0-14.531.489L2990,438.549l-.023.014-33.365,21.056a8.494,8.494,0,0,0-3.081,3.416l-32.589,65.746a5.917,5.917,0,0,0,2.363,7.757l35.571,20.326V668.032a5.716,5.716,0,0,0,5.709,5.709H3098.36a5.716,5.716,0,0,0,5.709-5.709v-38.11a3.57,3.57,0,0,0-7.14,0V666.6H2966.011V512.382a3.57,3.57,0,0,0-7.14,0v36.26l-31.022-17.727,32.074-64.709a1.364,1.364,0,0,1,.5-.548l29-18.3a43.619,43.619,0,0,0,8.477,16.215,3.57,3.57,0,0,0,5.494-4.56,36.417,36.417,0,0,1-7.61-15.67l4.77-3.01c.148-.093.3-.18.454-.262a30.772,30.772,0,0,0,60.95-.1,7.294,7.294,0,0,1,1.463.715l3.786,2.416a36.45,36.45,0,0,1-53.816,24.317,3.569,3.569,0,1,0-3.552,6.192,43.583,43.583,0,0,0,63.733-26.446l28.953,18.481a1.382,1.382,0,0,1,.489.546l32.081,64.721-31.022,17.727V512.38a3.57,3.57,0,0,0-7.14,0V615.643a3.57,3.57,0,0,0,7.14,0V556.865l35.571-20.326a5.918,5.918,0,0,0,2.363-7.757Zm-110.532-69.4a23.63,23.63,0,0,1-23.193-19.091c16.5,8.874,32.024,9.24,46.159,1.086A23.524,23.524,0,0,1,3031.47,459.386Z" transform="translate(-1.537 -1.537)" fill="#ffa000"/>
    <g id="Grupo_38825" data-name="Grupo 38825" transform="translate(2976.108 549.512)">
      <path id="Trazado_62078" data-name="Trazado 62078" d="M2990.38,574.919h-2.326V572.9h6.879v2.023h-2.326v12.14h-2.226Z" transform="translate(-2988.054 -572.693)"/>
      <path id="Trazado_62079" data-name="Trazado 62079" d="M2997.449,572.9h6.07v2.023h-3.844v3.743h3.054v2.023h-3.054v4.349h3.844v2.024h-6.07Z" transform="translate(-2989.498 -572.693)"/>
      <path id="Trazado_62080" data-name="Trazado 62080" d="M3006.127,572.9h2.792l2.164,8.477h.041V572.9h1.983v14.162h-2.286l-2.67-10.339h-.041v10.339h-1.983Z" transform="translate(-2990.832 -572.693)"/>
      <path id="Trazado_62081" data-name="Trazado 62081" d="M3016.335,572.9h6.07v2.023h-3.844v3.743h3.054v2.023h-3.054v4.349h3.844v2.024h-6.07Z" transform="translate(-2992.4 -572.693)"/>
      <path id="Trazado_62082" data-name="Trazado 62082" d="M3025.013,572.9h3.3a2.845,2.845,0,0,1,3.3,3.257v.87q0,2.206-1.457,2.792v.041a1.741,1.741,0,0,1,1.144.992,5.006,5.006,0,0,1,.333,2v2.489a9.542,9.542,0,0,0,.04.981,2.426,2.426,0,0,0,.2.739H3029.6a3.228,3.228,0,0,1-.162-.647,9.693,9.693,0,0,1-.041-1.093v-2.59a2.2,2.2,0,0,0-.314-1.356,1.326,1.326,0,0,0-1.082-.384h-.768v6.07h-2.226Zm3.035,6.069a1.336,1.336,0,0,0,1-.344,1.625,1.625,0,0,0,.333-1.154v-1.093a1.806,1.806,0,0,0-.272-1.113,1.034,1.034,0,0,0-.86-.344h-1.011v4.046Z" transform="translate(-2993.734 -572.693)"/>
      <path id="Trazado_62083" data-name="Trazado 62083" d="M3038.472,572.9h6.07v2.023H3040.7v3.743h3.054v2.023H3040.7v4.349h3.844v2.024h-6.07Z" transform="translate(-2995.802 -572.693)"/>
      <path id="Trazado_62084" data-name="Trazado 62084" d="M3047.149,572.9h2.792l2.165,8.477h.041V572.9h1.982v14.162h-2.286l-2.67-10.339h-.041v10.339h-1.983Z" transform="translate(-2997.136 -572.693)"/>
      <path id="Trazado_62085" data-name="Trazado 62085" d="M3061.854,586.313a3.652,3.652,0,0,1-.84-2.569v-7.607a3.654,3.654,0,0,1,.84-2.57,3.719,3.719,0,0,1,4.876,0,3.654,3.654,0,0,1,.84,2.57v1.5h-2.1v-1.638q0-1.315-1.112-1.315t-1.113,1.315v7.91q0,1.3,1.113,1.3t1.112-1.3v-2.164h2.1v2a3.652,3.652,0,0,1-.84,2.569,3.719,3.719,0,0,1-4.876,0Z" transform="translate(-2999.267 -572.656)"/>
      <path id="Trazado_62086" data-name="Trazado 62086" d="M3071.092,586.34a3.749,3.749,0,0,1-.85-2.641V572.9h2.226v10.966a1.54,1.54,0,0,0,.294,1.052,1.248,1.248,0,0,0,1.678,0,1.539,1.539,0,0,0,.294-1.052V572.9h2.145v10.8a3.75,3.75,0,0,1-.85,2.641,3.769,3.769,0,0,1-4.937,0Z" transform="translate(-3000.685 -572.693)"/>
      <path id="Trazado_62087" data-name="Trazado 62087" d="M3079.948,572.9h6.07v2.023h-3.844v3.743h3.055v2.023h-3.055v4.349h3.844v2.024h-6.07Z" transform="translate(-3002.177 -572.693)"/>
      <path id="Trazado_62088" data-name="Trazado 62088" d="M3088.626,572.9h2.792l2.164,8.477h.041V572.9h1.983v14.162h-2.286l-2.67-10.339h-.041v10.339h-1.983Z" transform="translate(-3003.51 -572.693)"/>
      <path id="Trazado_62089" data-name="Trazado 62089" d="M3100.467,574.919h-2.326V572.9h6.879v2.023h-2.326v12.14h-2.226Z" transform="translate(-3004.973 -572.693)"/>
      <path id="Trazado_62090" data-name="Trazado 62090" d="M3108.05,572.9h3.014l2.307,14.162h-2.226l-.405-2.812v.04h-2.529l-.4,2.773h-2.064Zm2.427,9.469-.991-7h-.041l-.971,7Z" transform="translate(-3006.141 -572.693)"/>
      <path id="Trazado_62091" data-name="Trazado 62091" d="M2998.633,596.8h6.07v2.023h-3.844v3.743h3.054v2.023h-3.054v4.35h3.844v2.023h-6.07Z" transform="translate(-2989.679 -576.367)"/>
      <path id="Trazado_62092" data-name="Trazado 62092" d="M3007.311,596.8h2.225v12.14h3.662v2.023h-5.887Z" transform="translate(-2991.013 -576.367)"/>
      <path id="Trazado_62093" data-name="Trazado 62093" d="M3020.973,596.8h3.013l2.307,14.162h-2.226l-.406-2.812v.041h-2.529l-.4,2.772h-2.063Zm2.427,9.469-.991-7h-.041l-.971,7Z" transform="translate(-2992.759 -576.367)"/>
      <path id="Trazado_62094" data-name="Trazado 62094" d="M3028.945,596.8h2.792l2.165,8.477h.041V596.8h1.982v14.162h-2.286l-2.67-10.339h-.041v10.339h-1.983Z" transform="translate(-2994.338 -576.367)"/>
      <path id="Trazado_62095" data-name="Trazado 62095" d="M3040.767,596.207h3.014l2.307,14.162h-2.226l-.405-2.812v.041h-2.529l-.4,2.772h-2.063Zm1.719-3.278h2.428l-2.165,2.327h-1.679Zm.708,12.746-.991-7h-.041l-.971,7Z" transform="translate(-2995.801 -575.772)"/>
      <path id="Trazado_62096" data-name="Trazado 62096" d="M3048.739,596.8h2.226v12.14h3.661v2.023h-5.887Z" transform="translate(-2997.38 -576.367)"/>
      <path id="Trazado_62097" data-name="Trazado 62097" d="M3056.963,596.8h2.226v14.162h-2.226Z" transform="translate(-2998.644 -576.367)"/>
      <path id="Trazado_62098" data-name="Trazado 62098" d="M3061.927,610.21a3.817,3.817,0,0,1-.828-2.641v-.809h2.1v.971q0,1.376,1.153,1.376a1.083,1.083,0,0,0,.86-.334,1.621,1.621,0,0,0,.294-1.082,3.01,3.01,0,0,0-.4-1.568,7.517,7.517,0,0,0-1.5-1.628,8.97,8.97,0,0,1-1.923-2.2,4.478,4.478,0,0,1-.546-2.215,3.692,3.692,0,0,1,.85-2.6,3.192,3.192,0,0,1,2.468-.92,3.071,3.071,0,0,1,2.419.92,3.85,3.85,0,0,1,.819,2.641v.586h-2.1v-.728a1.621,1.621,0,0,0-.283-1.062,1.024,1.024,0,0,0-.829-.334q-1.113,0-1.114,1.356a2.668,2.668,0,0,0,.416,1.436,7.938,7.938,0,0,0,1.507,1.619,8.348,8.348,0,0,1,1.922,2.206,4.9,4.9,0,0,1,.525,2.327,3.8,3.8,0,0,1-.859,2.671,3.236,3.236,0,0,1-2.5.93A3.128,3.128,0,0,1,3061.927,610.21Z" transform="translate(-2999.28 -576.33)"/>
      <path id="Trazado_62099" data-name="Trazado 62099" d="M3070.445,596.8h2.226v14.162h-2.226Z" transform="translate(-3000.716 -576.367)"/>
      <path id="Trazado_62100" data-name="Trazado 62100" d="M3075.41,610.21a3.811,3.811,0,0,1-.83-2.641v-.809h2.1v.971q0,1.376,1.154,1.376a1.082,1.082,0,0,0,.859-.334,1.617,1.617,0,0,0,.293-1.082,3,3,0,0,0-.4-1.568,7.511,7.511,0,0,0-1.5-1.628,8.976,8.976,0,0,1-1.923-2.2,4.489,4.489,0,0,1-.545-2.215,3.691,3.691,0,0,1,.85-2.6,3.19,3.19,0,0,1,2.468-.92,3.068,3.068,0,0,1,2.418.92,3.845,3.845,0,0,1,.819,2.641v.586h-2.1v-.728a1.627,1.627,0,0,0-.283-1.062,1.027,1.027,0,0,0-.829-.334q-1.113,0-1.113,1.356a2.676,2.676,0,0,0,.415,1.436,7.938,7.938,0,0,0,1.507,1.619,8.341,8.341,0,0,1,1.923,2.206,4.9,4.9,0,0,1,.526,2.327,3.8,3.8,0,0,1-.86,2.671,3.235,3.235,0,0,1-2.5.93A3.126,3.126,0,0,1,3075.41,610.21Z" transform="translate(-3001.352 -576.33)"/>
      <path id="Trazado_62101" data-name="Trazado 62101" d="M3087.753,596.8h3.4a3.238,3.238,0,0,1,2.488.89,3.7,3.7,0,0,1,.829,2.61v7.161a3.7,3.7,0,0,1-.829,2.61,3.239,3.239,0,0,1-2.488.89h-3.4Zm3.358,12.14a1.073,1.073,0,0,0,.84-.324,1.544,1.544,0,0,0,.294-1.052V600.2a1.543,1.543,0,0,0-.294-1.051,1.076,1.076,0,0,0-.84-.324h-1.132v10.117Z" transform="translate(-3003.376 -576.367)"/>
      <path id="Trazado_62102" data-name="Trazado 62102" d="M3097.459,596.8h6.07v2.023h-3.844v3.743h3.054v2.023h-3.054v4.35h3.844v2.023h-6.07Z" transform="translate(-3004.868 -576.367)"/>
      <path id="Trazado_62103" data-name="Trazado 62103" d="M3003.656,634.126a3.645,3.645,0,0,1-.841-2.569V623.95a3.648,3.648,0,0,1,.841-2.569,3.718,3.718,0,0,1,4.875,0,3.652,3.652,0,0,1,.84,2.569v1.5h-2.1v-1.639q0-1.314-1.112-1.315t-1.114,1.315v7.911q0,1.295,1.114,1.295t1.112-1.295v-2.165h2.1v2a3.65,3.65,0,0,1-.84,2.569,3.716,3.716,0,0,1-4.875,0Z" transform="translate(-2990.323 -580.004)"/>
      <path id="Trazado_62104" data-name="Trazado 62104" d="M3013.753,620.709h3.013l2.307,14.162h-2.226l-.4-2.812v.041h-2.53l-.4,2.772h-2.064Zm2.427,9.469-.991-7h-.041l-.971,7Z" transform="translate(-2991.649 -580.041)"/>
      <path id="Trazado_62105" data-name="Trazado 62105" d="M3021.726,620.709h3.4a3.244,3.244,0,0,1,2.489.89,3.7,3.7,0,0,1,.83,2.61v7.162a3.7,3.7,0,0,1-.83,2.61,3.243,3.243,0,0,1-2.489.889h-3.4Zm3.357,12.14a1.073,1.073,0,0,0,.84-.324,1.544,1.544,0,0,0,.293-1.052v-7.365a1.544,1.544,0,0,0-.293-1.052,1.078,1.078,0,0,0-.84-.323h-1.132v10.116Z" transform="translate(-2993.229 -580.041)"/>
      <path id="Trazado_62106" data-name="Trazado 62106" d="M3033,620.709h3.014l2.306,14.162h-2.226l-.4-2.812v.041h-2.53l-.4,2.772h-2.064Zm2.427,9.469-.991-7h-.041l-.971,7Z" transform="translate(-2994.606 -580.041)"/>
      <path id="Trazado_62107" data-name="Trazado 62107" d="M3044.795,620.709h3.277a3.243,3.243,0,0,1,2.489.89,3.7,3.7,0,0,1,.829,2.61v1.4a3.694,3.694,0,0,1-.829,2.61,3.243,3.243,0,0,1-2.489.89h-1.051v5.766h-2.226Zm3.277,6.373a1.047,1.047,0,0,0,.82-.3,1.539,1.539,0,0,0,.273-1.032v-1.678a1.54,1.54,0,0,0-.273-1.032,1.047,1.047,0,0,0-.82-.3h-1.051v4.349Z" transform="translate(-2996.774 -580.041)"/>
      <path id="Trazado_62108" data-name="Trazado 62108" d="M3054.022,620.709h3.3a2.844,2.844,0,0,1,3.3,3.257v.87q0,2.205-1.456,2.792v.041a1.738,1.738,0,0,1,1.143.991,4.993,4.993,0,0,1,.334,2v2.488a9.186,9.186,0,0,0,.041.981,2.425,2.425,0,0,0,.2.739h-2.266a3.237,3.237,0,0,1-.162-.647,9.72,9.72,0,0,1-.041-1.093v-2.591a2.2,2.2,0,0,0-.314-1.355,1.325,1.325,0,0,0-1.082-.385h-.769v6.07h-2.226Zm3.035,6.07a1.341,1.341,0,0,0,1-.344,1.63,1.63,0,0,0,.333-1.154v-1.093a1.8,1.8,0,0,0-.273-1.112,1.03,1.03,0,0,0-.859-.344h-1.012v4.046Z" transform="translate(-2998.192 -580.041)"/>
      <path id="Trazado_62109" data-name="Trazado 62109" d="M3063.656,620.709h6.07v2.024h-3.844v3.742h3.055V628.5h-3.055v4.35h3.844v2.023h-6.07Z" transform="translate(-2999.673 -580.041)"/>
      <path id="Trazado_62110" data-name="Trazado 62110" d="M3072.334,620.709h2.792l2.164,8.478h.041v-8.478h1.983v14.162h-2.286l-2.67-10.338h-.041v10.338h-1.983Z" transform="translate(-3001.007 -580.041)"/>
      <path id="Trazado_62111" data-name="Trazado 62111" d="M3082.542,620.709h3.4a3.242,3.242,0,0,1,2.488.89,3.7,3.7,0,0,1,.83,2.61v7.162a3.7,3.7,0,0,1-.83,2.61,3.241,3.241,0,0,1-2.488.889h-3.4Zm3.358,12.14a1.073,1.073,0,0,0,.84-.324,1.545,1.545,0,0,0,.294-1.052v-7.365a1.545,1.545,0,0,0-.294-1.052,1.078,1.078,0,0,0-.84-.323h-1.132v10.116Z" transform="translate(-3002.575 -580.041)"/>
      <path id="Trazado_62112" data-name="Trazado 62112" d="M3093.813,620.709h3.015l2.307,14.162h-2.226l-.406-2.812v.041h-2.529l-.4,2.772h-2.063Zm2.428,9.469-.991-7h-.04l-.972,7Z" transform="translate(-3003.953 -580.041)"/>
    </g>
    <rect id="Rectángulo_6291" data-name="Rectángulo 6291" width="122.135" height="35.567" transform="translate(2968.485 508.289)"/>
    <g id="Grupo_38826" data-name="Grupo 38826" transform="translate(2976.958 513.013)">
      <path id="Trazado_62113" data-name="Trazado 62113" d="M2989.058,529.946h5.749a4.96,4.96,0,0,1,5.749,5.678v1.517q0,3.845-2.539,4.867v.07a3.035,3.035,0,0,1,1.992,1.728,8.715,8.715,0,0,1,.582,3.492v4.339a16.435,16.435,0,0,0,.07,1.71,4.254,4.254,0,0,0,.353,1.287h-3.95a5.651,5.651,0,0,1-.282-1.129,16.918,16.918,0,0,1-.07-1.9v-4.515a3.831,3.831,0,0,0-.548-2.363,2.315,2.315,0,0,0-1.886-.67h-1.341v10.581h-3.879Zm5.29,10.581a2.327,2.327,0,0,0,1.746-.6,2.833,2.833,0,0,0,.582-2.011v-1.9a3.136,3.136,0,0,0-.477-1.94,1.8,1.8,0,0,0-1.5-.6h-1.764v7.054Z" transform="translate(-2989.058 -529.593)" fill="#f8bf14"/>
      <path id="Trazado_62114" data-name="Trazado 62114" d="M3005.854,529.946h10.581v3.527h-6.7V540h5.325v3.527h-5.325v7.583h6.7v3.527h-10.581Z" transform="translate(-2991.639 -529.593)" fill="#f8bf14"/>
      <path id="Trazado_62115" data-name="Trazado 62115" d="M3022.153,553.337a6.365,6.365,0,0,1-1.464-4.48V535.6a6.368,6.368,0,0,1,1.464-4.48,6.485,6.485,0,0,1,8.5,0,6.371,6.371,0,0,1,1.463,4.48v2.61h-3.668v-2.857q0-2.291-1.94-2.293t-1.94,2.293V549.14q0,2.257,1.94,2.257t1.94-2.257v-3.775h3.668v3.492a6.368,6.368,0,0,1-1.463,4.48,6.483,6.483,0,0,1-8.5,0Z" transform="translate(-2993.919 -529.529)" fill="#f8bf14"/>
      <path id="Trazado_62116" data-name="Trazado 62116" d="M3038.257,553.384a6.546,6.546,0,0,1-1.481-4.6V529.946h3.88v19.117a2.689,2.689,0,0,0,.512,1.834,2.18,2.18,0,0,0,2.927,0,2.7,2.7,0,0,0,.511-1.834V529.946h3.739v18.835a6.546,6.546,0,0,1-1.482,4.6,6.573,6.573,0,0,1-8.606,0Z" transform="translate(-2996.392 -529.593)" fill="#f8bf14"/>
      <path id="Trazado_62117" data-name="Trazado 62117" d="M3053.7,529.946h10.581v3.527h-6.7V540h5.326v3.527h-5.326v7.583h6.7v3.527H3053.7Z" transform="translate(-2998.992 -529.593)" fill="#f8bf14"/>
      <path id="Trazado_62118" data-name="Trazado 62118" d="M3068.824,529.946h5.749a4.96,4.96,0,0,1,5.749,5.678v1.517q0,3.845-2.539,4.867v.07a3.034,3.034,0,0,1,1.993,1.728,8.716,8.716,0,0,1,.582,3.492v4.339a16.5,16.5,0,0,0,.07,1.71,4.282,4.282,0,0,0,.353,1.287h-3.95a5.718,5.718,0,0,1-.282-1.129,17.146,17.146,0,0,1-.07-1.9v-4.515a3.836,3.836,0,0,0-.547-2.363,2.315,2.315,0,0,0-1.887-.67H3072.7v10.581h-3.879Zm5.29,10.581a2.329,2.329,0,0,0,1.747-.6,2.833,2.833,0,0,0,.582-2.011v-1.9a3.136,3.136,0,0,0-.476-1.94,1.8,1.8,0,0,0-1.5-.6H3072.7v7.054Z" transform="translate(-3001.317 -529.593)" fill="#f8bf14"/>
      <path id="Trazado_62119" data-name="Trazado 62119" d="M3085.62,529.946h5.925a5.658,5.658,0,0,1,4.339,1.551,6.451,6.451,0,0,1,1.446,4.551v12.486a6.445,6.445,0,0,1-1.446,4.55,5.649,5.649,0,0,1-4.339,1.552h-5.925Zm5.855,21.162a1.879,1.879,0,0,0,1.464-.564,2.7,2.7,0,0,0,.511-1.835V535.871a2.7,2.7,0,0,0-.511-1.834,1.879,1.879,0,0,0-1.464-.565H3089.5v17.635Z" transform="translate(-3003.898 -529.593)" fill="#f8bf14"/>
      <path id="Trazado_62120" data-name="Trazado 62120" d="M3102.54,529.946h10.582v3.527h-6.7V540h5.326v3.527h-5.326v7.583h6.7v3.527H3102.54Z" transform="translate(-3006.498 -529.593)" fill="#f8bf14"/>
    </g>
  </g>
</svg>
