<svg xmlns="http://www.w3.org/2000/svg" xmlns:xlink="http://www.w3.org/1999/xlink" width="459.418" height="290.605" viewBox="0 0 459.418 290.605">
  <defs>
    <clipPath id="clip-path">
      <path id="Trazado_30076" data-name="Trazado 30076" d="M237,370.407H211.282V357.118a12.858,12.858,0,0,1,12.857-12.858h0A12.858,12.858,0,0,1,237,357.118Z" transform="translate(-211.282 -344.26)" fill="#7986cb"/>
    </clipPath>
  </defs>
  <g id="Grupo_1068226" data-name="Grupo 1068226" transform="translate(-915 -387.197)">
    <g id="BACKGROUND" transform="translate(989.438 387.197)">
      <g id="Grupo_32241" data-name="Grupo 32241">
        <path id="Trazado_61861" data-name="Trazado 61861" d="M113.663,122.832c16.09-.556,31.649,5.082,47.04,9.805s31.865,8.605,47.444,4.543c20.946-5.461,35.559-23.824,48.682-41.04S284.8,60.666,305.84,55.6c19.651-4.731,40.854,3.75,55.157,18.033s22.557,33.589,27.709,53.135c12.759,48.414,6.6,104.231-26.55,141.751-26.523,30.019-66.56,44.764-106.107,51.136-28.528,4.6-58.187,5.365-85.928-2.723a140.388,140.388,0,0,1-81.105-63.412C68.3,217.936,49.081,125.063,113.663,122.832Z" transform="translate(-69.318 -32.473)" fill="#ffd54f"/>
        <path id="Trazado_61862" data-name="Trazado 61862" d="M197.27,111.762c19.37.359,40.227-6.771,54.715-16.884,8.032-5.606,15.212-12.749,19.5-21.556s5.421-19.413,1.684-28.467c-5.392-13.063-19.576-20.454-33.459-23.094a82.21,82.21,0,0,0-61.625,13.166C165.642,43.6,152.6,55.951,149.37,71.4c-3.48,16.647,10.855,29.418,24.965,35.657A59.4,59.4,0,0,0,197.27,111.762Z" transform="translate(-97.694 -20.373)" fill="#ffd54f"/>
      </g>
    </g>
    <g id="Grupo_80076" data-name="Grupo 80076" transform="translate(915 425.611)">
      <g id="Grupo_32955" data-name="Grupo 32955" transform="translate(0 14.916)">
        <path id="Trazado_30055" data-name="Trazado 30055" d="M92.533,366.576a4.43,4.43,0,0,0-3.62,1.875,8.667,8.667,0,0,1-3.442-3.479,19.5,19.5,0,0,1-1.383-4.023,19.259,19.259,0,0,0-2.124-5.535,10.968,10.968,0,0,0-8.789-4.963V279.827H69.581v70.648a10.969,10.969,0,0,0-8.367,4.94,19.259,19.259,0,0,0-2.124,5.535,19.456,19.456,0,0,1-1.384,4.023,8.661,8.661,0,0,1-3.441,3.479,4.44,4.44,0,1,0,.672,3.68,12.381,12.381,0,0,0,5.952-5.488,22.5,22.5,0,0,0,1.674-4.765,16.306,16.306,0,0,1,1.688-4.539,7.383,7.383,0,0,1,5.331-3.24v12.86a4.439,4.439,0,1,0,3.594,0v-12.91a7.4,7.4,0,0,1,5.753,3.291,16.307,16.307,0,0,1,1.688,4.539,22.5,22.5,0,0,0,1.674,4.765,12.381,12.381,0,0,0,5.952,5.488,4.437,4.437,0,1,0,4.292-5.555Z" transform="translate(-46.206 -186.776)" fill="#080033"/>
        <path id="Trazado_30056" data-name="Trazado 30056" d="M91.581,218.992c-1.858-4.868-4.323-9.552-5.338-14.663-2.065-10.4,2.181-21.11,9.123-29.13V162.492a22.816,22.816,0,0,1-18.157-17.806H66.843a22.815,22.815,0,0,1-18.157,17.806V175.2c6.941,8.019,11.187,18.726,9.123,29.13-1.014,5.11-3.48,9.795-5.338,14.663a64.5,64.5,0,0,0-2.1,39.113,125.966,125.966,0,0,0,21.654,2.21,125.963,125.963,0,0,0,21.653-2.21A64.5,64.5,0,0,0,91.581,218.992Z" transform="translate(-46.854 -144.686)" fill="#361274"/>
        <path id="Trazado_30057" data-name="Trazado 30057" d="M64.2,162.272a25.752,25.752,0,0,0,24.811-.284" transform="translate(-51.809 -150.075)" fill="none" stroke="#fff" stroke-linecap="round" stroke-linejoin="round" stroke-width="0.723" stroke-dasharray="2.89 0 0 0 0"/>
        <path id="Trazado_30058" data-name="Trazado 30058" d="M48.46,186.92a73.978,73.978,0,0,1,47.428.231" transform="translate(-46.908 -156.66)" fill="none" stroke="#fff" stroke-linecap="round" stroke-linejoin="round" stroke-width="0.723" stroke-dasharray="2.89 0 0 0 0"/>
        <path id="Trazado_30059" data-name="Trazado 30059" d="M54.864,248.716a54.481,54.481,0,0,0,37.993-.616" transform="translate(-48.903 -176.895)" fill="none" stroke="#fff" stroke-linecap="round" stroke-linejoin="round" stroke-width="0.723" stroke-dasharray="2.89 0 0 0 0"/>
        <path id="Trazado_30060" data-name="Trazado 30060" d="M48.315,299.344a82.5,82.5,0,0,0,47.012-.616" transform="translate(-46.863 -192.663)" fill="none" stroke="#fff" stroke-linecap="round" stroke-linejoin="round" stroke-width="0.804" stroke-dasharray="3.215 0 0 0 0"/>
        <line id="Línea_17" data-name="Línea 17" y2="115.629" transform="translate(25.172)" fill="none" stroke="#fff" stroke-linecap="round" stroke-linejoin="round" stroke-width="0.804" stroke-dasharray="3.215 0 0 0 0"/>
      </g>
      <g id="Grupo_32963" data-name="Grupo 32963" transform="translate(111.739 152.331)">
        <path id="Trazado_30061" data-name="Trazado 30061" d="M237,370.407H211.282V357.118a12.858,12.858,0,0,1,12.857-12.858h0A12.858,12.858,0,0,1,237,357.118Z" transform="translate(-209.359 -344.26)" fill="#9fa8da"/>
        <rect id="Rectángulo_7602" data-name="Rectángulo 7602" width="29.561" height="4.05" rx="2.025" transform="translate(0 23.62)" fill="#7986cb"/>
        <g id="Grupo_32962" data-name="Grupo 32962" transform="translate(1.923)">
          <g id="Grupo_32961" data-name="Grupo 32961" clip-path="url(#clip-path)">
            <g id="Grupo_32960" data-name="Grupo 32960" transform="translate(-1.865 -1.865)">
              <g id="Grupo_32956" data-name="Grupo 32956" transform="translate(12.857)">
                <path id="Trazado_30062" data-name="Trazado 30062" d="M230.976,343.417a1.865,1.865,0,1,1-1.865-1.865A1.864,1.864,0,0,1,230.976,343.417Z" transform="translate(-227.247 -341.552)" fill="#7986cb"/>
              </g>
              <g id="Grupo_32957" data-name="Grupo 32957" transform="translate(0.518 1.416)">
                <path id="Trazado_30063" data-name="Trazado 30063" d="M237.577,353.524a1.865,1.865,0,1,1-1.865-1.865A1.864,1.864,0,0,1,237.577,353.524Z" transform="translate(-216.964 -346.116)" fill="#7986cb"/>
                <path id="Trazado_30064" data-name="Trazado 30064" d="M248.222,353.524a1.865,1.865,0,1,1-1.865-1.865A1.865,1.865,0,0,1,248.222,353.524Z" transform="translate(-220.279 -346.116)" fill="#7986cb"/>
                <path id="Trazado_30065" data-name="Trazado 30065" d="M241.621,345.474a1.865,1.865,0,1,1-1.865-1.865A1.865,1.865,0,0,1,241.621,345.474Z" transform="translate(-218.223 -343.609)" fill="#7986cb"/>
                <path id="Trazado_30066" data-name="Trazado 30066" d="M219.673,345.474a1.865,1.865,0,1,1-1.865-1.865A1.864,1.864,0,0,1,219.673,345.474Z" transform="translate(-211.387 -343.609)" fill="#7986cb"/>
                <path id="Trazado_30067" data-name="Trazado 30067" d="M213.055,353.524a1.865,1.865,0,1,1-1.865-1.865A1.864,1.864,0,0,1,213.055,353.524Z" transform="translate(-209.326 -346.116)" fill="#7986cb"/>
                <path id="Trazado_30068" data-name="Trazado 30068" d="M224.225,353.524a1.865,1.865,0,1,1-1.865-1.865A1.865,1.865,0,0,1,224.225,353.524Z" transform="translate(-212.805 -346.116)" fill="#7986cb"/>
              </g>
              <g id="Grupo_32958" data-name="Grupo 32958" transform="translate(3.664 13.438)">
                <path id="Trazado_30069" data-name="Trazado 30069" d="M244.328,362.933a1.864,1.864,0,1,1-1.864-1.865A1.865,1.865,0,0,1,244.328,362.933Z" transform="translate(-222.212 -361.068)" fill="#7986cb"/>
                <path id="Trazado_30070" data-name="Trazado 30070" d="M230.976,362.933a1.865,1.865,0,1,1-1.865-1.865A1.865,1.865,0,0,1,230.976,362.933Z" transform="translate(-218.054 -361.068)" fill="#7986cb"/>
                <path id="Trazado_30071" data-name="Trazado 30071" d="M217.623,362.933a1.864,1.864,0,1,1-1.865-1.865A1.865,1.865,0,0,1,217.623,362.933Z" transform="translate(-213.895 -361.068)" fill="#7986cb"/>
              </g>
              <g id="Grupo_32959" data-name="Grupo 32959" transform="translate(0 20.397)">
                <path id="Trazado_30072" data-name="Trazado 30072" d="M250.93,373.039a1.865,1.865,0,1,1-1.865-1.864A1.865,1.865,0,0,1,250.93,373.039Z" transform="translate(-220.605 -371.175)" fill="#7986cb"/>
                <path id="Trazado_30073" data-name="Trazado 30073" d="M212.3,373.039a1.864,1.864,0,1,1-1.864-1.864A1.864,1.864,0,0,1,212.3,373.039Z" transform="translate(-208.574 -371.175)" fill="#7986cb"/>
                <path id="Trazado_30074" data-name="Trazado 30074" d="M237.577,373.039a1.865,1.865,0,1,1-1.865-1.864A1.864,1.864,0,0,1,237.577,373.039Z" transform="translate(-216.446 -371.175)" fill="#7986cb"/>
                <path id="Trazado_30075" data-name="Trazado 30075" d="M224.225,373.039a1.865,1.865,0,1,1-1.865-1.864A1.865,1.865,0,0,1,224.225,373.039Z" transform="translate(-212.287 -371.175)" fill="#7986cb"/>
              </g>
            </g>
          </g>
        </g>
      </g>
      <g id="Grupo_32973" data-name="Grupo 32973" transform="translate(103.09 179.997)">
        <g id="Grupo_32968" data-name="Grupo 32968" transform="translate(4.445 7.776)">
          <g id="Grupo_32965" data-name="Grupo 32965" transform="translate(0 0.005)">
            <g id="Grupo_32964" data-name="Grupo 32964" transform="translate(0 0)">
              <rect id="Rectángulo_7603" data-name="Rectángulo 7603" width="1.326" height="38.075" transform="translate(0 1.27) rotate(-73.237)" fill="#ff9029"/>
            </g>
          </g>
          <g id="Grupo_32967" data-name="Grupo 32967" transform="translate(0.001 0)">
            <g id="Grupo_32966" data-name="Grupo 32966" transform="translate(0)">
              <rect id="Rectángulo_7604" data-name="Rectángulo 7604" width="38.075" height="1.326" transform="matrix(0.957, -0.289, 0.289, 0.957, 0, 10.992)" fill="#ff9029"/>
            </g>
          </g>
        </g>
        <g id="Grupo_32969" data-name="Grupo 32969" transform="translate(1.774)">
          <path id="Trazado_30077" data-name="Trazado 30077" d="M237.452,390.907H201.738a3.234,3.234,0,0,1-3.234-3.233h0a3.234,3.234,0,0,1,3.234-3.233h35.714a3.233,3.233,0,0,1,3.233,3.233h0A3.233,3.233,0,0,1,237.452,390.907Z" transform="translate(-198.504 -384.44)" fill="#ffb74a"/>
        </g>
        <g id="Grupo_32972" data-name="Grupo 32972" transform="translate(0 3.233)">
          <g id="Grupo_32970" data-name="Grupo 32970">
            <path id="Trazado_30078" data-name="Trazado 30078" d="M200.516,409.416h-4.589l5.271-20.28h4.589Z" transform="translate(-195.928 -389.136)" fill="#ffb74a"/>
          </g>
          <g id="Grupo_32971" data-name="Grupo 32971" transform="translate(35.871)">
            <path id="Trazado_30079" data-name="Trazado 30079" d="M253.295,409.416h4.589l-5.271-20.28h-4.589Z" transform="translate(-248.024 -389.136)" fill="#ffb74a"/>
          </g>
        </g>
      </g>
      <path id="Trazado_30080" data-name="Trazado 30080" d="M156.282,274.645c6.313,1.347,12.229-3.4,16.482-8.252s8.5-10.511,14.8-11.934c4.974-1.124,10.206.751,14.417,3.627a71.813,71.813,0,0,1,8.9,7.736" transform="translate(-80.49 -163.857)" fill="none" stroke="#a777ce" stroke-linecap="round" stroke-linejoin="round" stroke-width="1.734"/>
      <g id="Grupo_32977" data-name="Grupo 32977" transform="translate(389.135 59.214)">
        <g id="Grupo_32974" data-name="Grupo 32974" transform="translate(33.684)">
          <path id="Trazado_30081" data-name="Trazado 30081" d="M682.7,209.54a.7.7,0,0,0-1.312-.12l-1.654,3.432,3.968.365Z" transform="translate(-666.34 -209.022)" fill="#1b141c"/>
          <path id="Trazado_30082" data-name="Trazado 30082" d="M677.547,214.584,672.719,224.6l4.9,11.012,6.822-9.936-2.923-10.727Z" transform="translate(-664.156 -210.754)" fill="#ffb74a"/>
          <rect id="Rectángulo_7605" data-name="Rectángulo 7605" width="11.768" height="93.608" transform="matrix(0.996, 0.091, -0.091, 0.996, 8.563, 13.845)" fill="#fff"/>
        </g>
        <g id="Grupo_32975" data-name="Grupo 32975" transform="translate(16.774 10.977)">
          <path id="Trazado_30083" data-name="Trazado 30083" d="M642.2,225.36a.7.7,0,0,0-1.311.126l-.986,3.68,3.967-.381Z" transform="translate(-637.025 -224.965)" fill="#1b141c"/>
          <path id="Trazado_30084" data-name="Trazado 30084" d="M638.6,230.894l-2.877,10.74,6.864,9.907,4.85-11.033-4.871-9.995Z" transform="translate(-635.723 -226.693)" fill="#ffb74a"/>
          <rect id="Rectángulo_7606" data-name="Rectángulo 7606" width="11.768" height="93.608" transform="translate(0 14.941) rotate(-5.493)" fill="#ba68c8"/>
        </g>
        <g id="Grupo_32976" data-name="Grupo 32976" transform="translate(40.02 27.8)">
          <path id="Trazado_30085" data-name="Trazado 30085" d="M708.567,249.991a.7.7,0,0,0-1.291-.264l-2.021,3.23,3.9.8Z" transform="translate(-680.625 -249.396)" fill="#1b141c"/>
          <path id="Trazado_30086" data-name="Trazado 30086" d="M702.588,254.568l-5.9,9.425,3.66,11.483,7.87-9.128-1.729-10.983Z" transform="translate(-677.958 -251.007)" fill="#ffb74a"/>
          <rect id="Rectángulo_7607" data-name="Rectángulo 7607" width="11.768" height="93.608" transform="translate(18.733 12.986) rotate(11.544)" fill="#d2bef6"/>
        </g>
        <path id="Trazado_30087" data-name="Trazado 30087" d="M671.669,381.363H620.977l-9.615-80.633h69.922Z" transform="translate(-611.362 -237.585)" fill="#080033"/>
      </g>
      <g id="Grupo_32979" data-name="Grupo 32979" transform="translate(172.681 69.611)">
        <path id="Trazado_30088" data-name="Trazado 30088" d="M462.47,234.578l-.876-3.994H347.08l2.127,9.7h0l23.652,107.88,2.6,11.878,114.479-.165h0Z" transform="translate(-312.595 -226.135)" fill="#361274"/>
        <g id="Grupo_32978" data-name="Grupo 32978">
          <path id="Trazado_30089" data-name="Trazado 30089" d="M415.091,394.889H300.576L297,411.216H411.512Z" transform="translate(-296.997 -277.309)" fill="#556bc1"/>
          <path id="Trazado_30090" data-name="Trazado 30090" d="M440.452,229.923H325.937l-27.471,125.3H412.981Z" transform="translate(-297.454 -225.929)" fill="#f5f5f5"/>
          <path id="Trazado_30091" data-name="Trazado 30091" d="M415.722,283.347c-2.075-4.158-6.339-6.623-11.459-6.623-4.587,6.851-12.962,7.5-12.962,7.5s-8.09-.648-9.673-7.5h0a20.236,20.236,0,0,0-14.363,6.623l-14.806,15.8,8.908,9.206,9.138-8.542-9.621,43.882h34.763l9.621-43.882,5.392,8.542,12.944-9.206Z" transform="translate(-314.271 -240.506)" fill="none" stroke="#1b141c" stroke-linecap="round" stroke-linejoin="round" stroke-width="0.653"/>
          <path id="Trazado_30092" data-name="Trazado 30092" d="M453.188,224.123H338.673l-2.127,9.7H451.061Z" transform="translate(-309.315 -224.123)" fill="#361274"/>
          <line id="Línea_18" data-name="Línea 18" x1="16.075" y2="73.319" transform="translate(106.556 33.951)" fill="none" stroke="#1b141c" stroke-linecap="round" stroke-linejoin="round" stroke-width="0.653" stroke-dasharray="2.612 0 0 0 0"/>
          <line id="Línea_19" data-name="Línea 19" x2="6.901" transform="translate(119.442 33.951)" fill="none" stroke="#1b141c" stroke-miterlimit="10" stroke-width="0.653"/>
          <line id="Línea_20" data-name="Línea 20" x1="1.513" y2="6.901" transform="translate(122.41 19.935)" fill="none" stroke="#1b141c" stroke-miterlimit="10" stroke-width="0.653"/>
          <line id="Línea_21" data-name="Línea 21" x1="1.513" y2="6.901" transform="translate(45.931 19.935)" fill="none" stroke="#1b141c" stroke-miterlimit="10" stroke-width="0.653"/>
          <line id="Línea_22" data-name="Línea 22" x2="6.901" transform="translate(103.368 107.269)" fill="none" stroke="#1b141c" stroke-miterlimit="10" stroke-width="0.653"/>
          <line id="Línea_23" data-name="Línea 23" x2="76.479" transform="translate(46.717 23.252)" fill="none" stroke="#1b141c" stroke-linecap="round" stroke-linejoin="round" stroke-width="0.653" stroke-dasharray="2.612 0 0 0 0"/>
        </g>
        <path id="Trazado_30093" data-name="Trazado 30093" d="M492.67,224.123l5.188,4.586L469.582,358.03h-6.271Z" transform="translate(-348.796 -224.123)" fill="#7b1fa2"/>
        <path id="Trazado_30094" data-name="Trazado 30094" d="M491,238.211l5.247,4.342L470.04,362.418l-5.259-4.614Z" transform="translate(-349.254 -228.511)" fill="#ccc"/>
        <path id="Trazado_30095" data-name="Trazado 30095" d="M500.694,230.783,496.111,360l-23.692.1Z" transform="translate(-351.633 -226.197)" fill="#080033"/>
      </g>
      <g id="Grupo_32983" data-name="Grupo 32983" transform="translate(33.894 59.189)">
        <g id="Grupo_32980" data-name="Grupo 32980" transform="translate(13.412)">
          <rect id="Rectángulo_7608" data-name="Rectángulo 7608" width="7.164" height="121.825" transform="translate(12.737 15.415)" fill="#1b141c"/>
          <path id="Trazado_30096" data-name="Trazado 30096" d="M138.66,405.8H123.8a8.888,8.888,0,0,0-8.888,8.888h32.638A8.888,8.888,0,0,0,138.66,405.8Z" transform="translate(-114.91 -270.285)" fill="#1b141c"/>
          <circle id="Elipse_539" data-name="Elipse 539" cx="8.238" cy="8.238" r="8.238" transform="translate(6.402 16.03) rotate(-76.648)" fill="#1b141c"/>
        </g>
        <rect id="Rectángulo_7609" data-name="Rectángulo 7609" width="33.431" height="62.781" transform="translate(12.235 41.154)" fill="#556bc1"/>
        <g id="Grupo_32981" data-name="Grupo 32981" transform="translate(0 29.513)">
          <path id="Trazado_30097" data-name="Trazado 30097" d="M126.286,287.685l-13.623-16.352L99.04,254.981h54.494L139.91,271.333Z" transform="translate(-96.555 -252.824)" fill="#78a4a5"/>
          <path id="Trazado_30098" data-name="Trazado 30098" d="M126.286,326.21l13.623,16.352,13.623,16.352H99.04l13.623-16.352Z" transform="translate(-96.555 -275.009)" fill="#78a4a5"/>
          <path id="Trazado_30099" data-name="Trazado 30099" d="M152.737,256.162H97.588a2.157,2.157,0,0,1-2.157-2.157h0a2.157,2.157,0,0,1,2.157-2.157h55.149a2.157,2.157,0,0,1,2.157,2.157h0A2.157,2.157,0,0,1,152.737,256.162Z" transform="translate(-95.431 -251.848)" fill="#486363"/>
          <path id="Trazado_30100" data-name="Trazado 30100" d="M152.737,374.888H97.588a2.157,2.157,0,0,1-2.157-2.157h0a2.157,2.157,0,0,1,2.157-2.157h55.149a2.157,2.157,0,0,1,2.157,2.157h0A2.156,2.156,0,0,1,152.737,374.888Z" transform="translate(-95.431 -288.826)" fill="#486363"/>
        </g>
        <rect id="Rectángulo_7610" data-name="Rectángulo 7610" width="40.397" height="62.781" transform="translate(8.752 41.154)" fill="#ba68c8"/>
        <g id="Grupo_32982" data-name="Grupo 32982" transform="translate(8.752 41.154)">
          <path id="Trazado_30101" data-name="Trazado 30101" d="M148.539,281.056l-20.2-3.075-20.2-3.075,20.2-3.075,20.2-3.075" transform="translate(-108.142 -268.754)" fill="none" stroke="#e2e6ff" stroke-linecap="round" stroke-linejoin="round" stroke-width="1.734"/>
          <path id="Trazado_30102" data-name="Trazado 30102" d="M108.142,299.385l20.2-3.075,20.2-3.075-20.2-3.075-20.2-3.075" transform="translate(-108.142 -274.463)" fill="none" stroke="#ebe1ff" stroke-linecap="round" stroke-linejoin="round" stroke-width="1.734"/>
          <path id="Trazado_30103" data-name="Trazado 30103" d="M148.539,317.713l-20.2-3.075-20.2-3.075,20.2-3.075,20.2-3.075" transform="translate(-108.142 -280.171)" fill="none" stroke="#ebe1ff" stroke-linecap="round" stroke-linejoin="round" stroke-width="1.734"/>
          <path id="Trazado_30104" data-name="Trazado 30104" d="M108.142,336.041l20.2-3.075,20.2-3.075-20.2-3.075-20.2-3.075" transform="translate(-108.142 -285.88)" fill="none" stroke="#ebe1ff" stroke-linecap="round" stroke-linejoin="round" stroke-width="1.734"/>
          <path id="Trazado_30105" data-name="Trazado 30105" d="M148.539,354.369l-20.2-3.075-20.2-3.075,20.2-3.075,20.2-3.075" transform="translate(-108.142 -291.588)" fill="none" stroke="#ebe1ff" stroke-linecap="round" stroke-linejoin="round" stroke-width="1.734"/>
        </g>
      </g>
      <path id="Trazado_30106" data-name="Trazado 30106" d="M356.194,294.115c15.874-5.114,30.312-16.739,53.541-21.411" transform="translate(-142.753 -169.642)" fill="none" stroke="#a777ce" stroke-linecap="round" stroke-linejoin="round" stroke-width="1.734"/>
      <g id="Grupo_32993" data-name="Grupo 32993" transform="translate(111.262)">
        <path id="Trazado_30107" data-name="Trazado 30107" d="M371.58,289.389c-.009-1.19.206-2.421-.548-3.342l-.032-.731,1.266-8.7-9.7-.4,1.25,8.6s-3.951,2.962-3.929,5.451c.012,1.462,1.319,2.832,2.4,3.717l.121,1.639a1.008,1.008,0,0,0,1.079.93l.364-.028a1.006,1.006,0,0,0,.93-1.078l-.051-.689h0l.038.518a1.007,1.007,0,0,0,1.079.93l.364-.027a1.008,1.008,0,0,0,.93-1.079l-.023-.306a1.007,1.007,0,0,0,1.078.93l.364-.028a1.006,1.006,0,0,0,.93-1.078l-.016-.212.034,0a1,1,0,0,0,1.026.685l.364-.027a1.007,1.007,0,0,0,.93-1.079l-.232-3.118Z" transform="translate(-255.166 -170.735)" fill="#ff5754"/>
        <path id="Trazado_30108" data-name="Trazado 30108" d="M226.629,244.483l-8.332,3.9s-4.543-1.936-6.686-.671c-1.259.744-1.79,2.56-2.017,3.935l-1.358.926a1.007,1.007,0,0,0-.264,1.4l.206.3a1.007,1.007,0,0,0,1.4.264l.141-.1a1.007,1.007,0,0,0-.264,1.4l.205.3a1.007,1.007,0,0,0,1.4.264l.429-.293h0l-.176.12a1.007,1.007,0,0,0-.264,1.4l.206.3a1.007,1.007,0,0,0,1.4.264l.176-.12.019.028a1,1,0,0,0-.079,1.231l.206.3a1.007,1.007,0,0,0,1.4.264l2.583-1.763,1.266-.745a5.211,5.211,0,0,0,2.234-2.653l.616-.395,7.451-1.042Zm-16.542,9.706.06-.041h0Z" transform="translate(-207.797 -160.852)" fill="#ff5754"/>
        <path id="Trazado_30109" data-name="Trazado 30109" d="M304.326,137.824a8.452,8.452,0,0,1-5.871-1.394,6.407,6.407,0,0,1-2.264-3.738,8.67,8.67,0,0,1,3.052-8.258,6.549,6.549,0,0,1,4.464-1.392c2.1.17,3.956,1.452,6.016,1.907a13.814,13.814,0,0,0,4.6.028,26.033,26.033,0,0,1,4.608-.335,6.749,6.749,0,0,1,4.24,1.606,3.936,3.936,0,0,1,1.121,4.2,17.389,17.389,0,0,1,3.064,10.249,9.59,9.59,0,0,1-1.3,4.717,5.1,5.1,0,0,1-4.053,2.477,100.184,100.184,0,0,0-10.893-5.83c-2.868-1.28-5.895-2.493-8.031-4.8" transform="translate(-235.279 -123.023)" fill="#1b141c"/>
        <rect id="Rectángulo_7611" data-name="Rectángulo 7611" width="11.999" height="16.178" transform="translate(72.451 29.548)" fill="#ff5754"/>
        <path id="Trazado_30110" data-name="Trazado 30110" d="M313.02,165.938v5c2.733.114,9-.174,11.552-4.982l-1.756-.022Z" transform="translate(-240.569 -136.389)" fill="#da2727"/>
        <g id="Grupo_32984" data-name="Grupo 32984" transform="translate(46.847 168.749)">
          <path id="Trazado_30111" data-name="Trazado 30111" d="M284.638,368.11c-2.891-.026-5.844.04-8.8.02l-.006,8.057.025,9.958.066,9.962a4.473,4.473,0,0,0,8.875.766l1.772-9.8,1.731-9.807,1.58-9.127Q287.261,368.133,284.638,368.11Z" transform="translate(-275.835 -368.104)" fill="#ff5754"/>
        </g>
        <path id="Trazado_30112" data-name="Trazado 30112" d="M296.421,233.052h32.847l1.308-44.58c.118-4.012-2.07-7.582-5.372-8.7l-11.82-4.01L300.6,179.844c-3.359,1.073-5.6,4.674-5.485,8.736Z" transform="translate(-234.991 -139.448)" fill="#ff5754"/>
        <path id="Trazado_30113" data-name="Trazado 30113" d="M299.611,284.05h25.751c3.519,0,6.123-4.569,5.577-9.7l-2.117-19.9H296.151l-2.117,19.9C293.488,279.48,296.092,284.05,299.611,284.05Z" transform="translate(-234.633 -163.956)" fill="#ff5754"/>
        <g id="Grupo_32985" data-name="Grupo 32985" transform="translate(85.796 168.146)">
          <path id="Trazado_30114" data-name="Trazado 30114" d="M332.4,367.5l1.178,7.933,1.607,10.535,1.657,10.533a4.316,4.316,0,0,0,8.579-.573l.242-10.663.191-10.661.1-7.378Q339.181,367.382,332.4,367.5Z" transform="translate(-332.402 -367.228)" fill="#ff5754"/>
        </g>
        <path id="Trazado_30115" data-name="Trazado 30115" d="M304.227,142.8c0-7.927,5.3-14.353,11.843-14.353s11.842,6.426,11.842,14.353a16.659,16.659,0,0,1-1.6,7.2,13.5,13.5,0,0,1-4.208,5.134,10.343,10.343,0,0,1-3.821,1.725,14.594,14.594,0,0,1-2.807.164q-1.519.021-3.038-.039a12.541,12.541,0,0,1-3.545-.49,6.484,6.484,0,0,1-2.625-1.714,7.232,7.232,0,0,1-1.909-4.9v-5.043A17.354,17.354,0,0,1,304.227,142.8Z" transform="translate(-237.83 -124.711)" fill="#ff5754"/>
        <g id="Grupo_32987" data-name="Grupo 32987" transform="translate(87.081 16.858)">
          <path id="Trazado_30116" data-name="Trazado 30116" d="M334.633,148.633a2.6,2.6,0,0,1,2.42-1.119,3.354,3.354,0,0,1,2.382,1.3,3.728,3.728,0,0,1,.705,2.406,3.84,3.84,0,0,1-.932,2.43,3.519,3.519,0,0,1-2.579,1.16,2.586,2.586,0,0,1-2.362-1.349Z" transform="translate(-334.268 -147.507)" fill="#ff5754"/>
          <g id="Grupo_32986" data-name="Grupo 32986" transform="translate(2.153 1.295)">
            <path id="Trazado_30117" data-name="Trazado 30117" d="M337.9,153.884a4.263,4.263,0,0,1,.292-4.5" transform="translate(-337.395 -149.388)" fill="none" stroke="#da2727" stroke-linecap="round" stroke-linejoin="round" stroke-width="0.754"/>
            <path id="Trazado_30118" data-name="Trazado 30118" d="M337.718,152.23a3.187,3.187,0,0,1,1.71,1.673" transform="translate(-337.495 -150.273)" fill="none" stroke="#da2727" stroke-linecap="round" stroke-linejoin="round" stroke-width="0.754"/>
          </g>
        </g>
        <g id="Grupo_32989" data-name="Grupo 32989" transform="translate(30.338 189.264)">
          <path id="Trazado_30119" data-name="Trazado 30119" d="M278.7,403c-.006.538-.032,1.108-.065,1.691-.019.357-.045.713-.071,1.076-.039.512-.085,1.031-.129,1.53-.1,1.1-.208,2.132-.305,2.968-.129,1.18-.227,1.964-.227,1.964l-25.721-.019a1.6,1.6,0,0,1-.006-1.944,12.069,12.069,0,0,1,6.305-4.983,16.513,16.513,0,0,0,7.226-4.381c.045-.052.091-.1.129-.149a13.654,13.654,0,0,0,1.134-1.445c.039-.052.072-.11.1-.162.169-.253.317-.5.467-.739,1.4-2.3,4.808,3.966,4.808,3.966s4.582-3.24,5.865-2.773C278.633,399.753,278.743,401.166,278.7,403Z" transform="translate(-251.858 -397.898)" fill="#361274"/>
          <path id="Trazado_30120" data-name="Trazado 30120" d="M278.135,415.856c.079,1.173.07,1.966.07,1.966l-26.024-.022a1.6,1.6,0,0,1,0-1.944Z" transform="translate(-251.858 -403.491)" fill="#d5d5d1"/>
          <path id="Trazado_30121" data-name="Trazado 30121" d="M275.314,401.691l-.777,1a.382.382,0,0,1-.538.065l-1.834-1.438a13.647,13.647,0,0,0,1.134-1.445c.039-.052.072-.11.1-.162l1.847,1.445A.376.376,0,0,1,275.314,401.691Z" transform="translate(-258.182 -398.462)" fill="#d5d5d1"/>
          <g id="Grupo_32988" data-name="Grupo 32988" transform="translate(10.898 6.793)">
            <path id="Trazado_30122" data-name="Trazado 30122" d="M283.568,407.764c-.019.357-.045.713-.071,1.076a9.962,9.962,0,0,1-3.208,1.283,9.568,9.568,0,0,1-2.4.207c-.8-.026-1.549-.116-2.256-.149a5.658,5.658,0,0,0-1.918.2,4.791,4.791,0,0,0-1.614.881,5.428,5.428,0,0,0-1.86,3.078l-2.56-.674a7.815,7.815,0,0,1,3.143-4.173,6.83,6.83,0,0,1,2.43-1.011,7.269,7.269,0,0,1,2.541-.019c.79.116,1.516.285,2.21.375a8.212,8.212,0,0,0,2.08.032A9.08,9.08,0,0,0,283.568,407.764Z" transform="translate(-267.685 -407.764)" fill="#d5d5d1"/>
          </g>
        </g>
        <g id="Grupo_32991" data-name="Grupo 32991" transform="translate(89.645 189.475)">
          <path id="Trazado_30123" data-name="Trazado 30123" d="M337.994,412.208v.019h15.853V410.8q0-.266-.019-.534a8.24,8.24,0,0,0-.471-2.328,8.611,8.611,0,0,0-1.425-2.526L347.95,400.5a2.289,2.289,0,0,0-2.29-2.291h-3.441a2.277,2.277,0,0,0-2.144,1.489l-1.711,3.945a3.906,3.906,0,0,0-.236.738c-.007.032-.013.057-.019.089a.911.911,0,0,0-.025.134,3.746,3.746,0,0,0-.063.808c.006.28.012.629.012,1.03.006.159.006.324.006.5,0,.388,0,.815-.006,1.279,0,.618-.006,1.3-.019,2.042Q337.994,411.187,337.994,412.208Z" transform="translate(-337.992 -398.205)" fill="#361274"/>
          <path id="Trazado_30124" data-name="Trazado 30124" d="M348.869,416.277V417.7l-10.878-.012q0-1.021.013-1.947h10.852Q348.87,416.009,348.869,416.277Z" transform="translate(-337.991 -403.667)" fill="#a8a8a5"/>
          <path id="Trazado_30125" data-name="Trazado 30125" d="M347.957,403.782h-3.7a1,1,0,0,1-1-1h0a1,1,0,0,1,1-1h3.7a1,1,0,0,1,1,1h0A1,1,0,0,1,347.957,403.782Z" transform="translate(-339.631 -399.318)" fill="#d5d5d1"/>
          <path id="Trazado_30126" data-name="Trazado 30126" d="M350.17,406.559h-4.743a.48.48,0,0,1-.48-.48h0a.48.48,0,0,1,.48-.481h4.743a.48.48,0,0,1,.481.481h0A.48.48,0,0,1,350.17,406.559Z" transform="translate(-340.158 -400.508)" fill="#d5d5d1"/>
          <path id="Trazado_30127" data-name="Trazado 30127" d="M351.459,408.948h-4.743a.48.48,0,0,1-.48-.48h0a.48.48,0,0,1,.48-.48h4.743a.48.48,0,0,1,.48.48h0A.48.48,0,0,1,351.459,408.948Z" transform="translate(-340.559 -401.252)" fill="#d5d5d1"/>
          <path id="Trazado_30128" data-name="Trazado 30128" d="M356.306,415.755V417.7l-9.448-.011a.964.964,0,0,1-.963-.968V416.7a.965.965,0,0,1,.964-.961h9.435Z" transform="translate(-340.453 -403.667)" fill="#d5d5d1"/>
          <g id="Grupo_32990" data-name="Grupo 32990" transform="translate(0.026 6.394)">
            <path id="Trazado_30129" data-name="Trazado 30129" d="M338.03,408.3c.006.28.012.629.012,1.03.006.159.006.324.006.5a4.1,4.1,0,0,1,.312.344,5.17,5.17,0,0,1,1.151,3.219l2.513-.146a7.414,7.414,0,0,0-2.138-4.479,6.772,6.772,0,0,0-1.794-1.279A3.748,3.748,0,0,0,338.03,408.3Z" transform="translate(-338.029 -407.491)" fill="#a8a8a5"/>
          </g>
        </g>
        <path id="Trazado_30130" data-name="Trazado 30130" d="M277.162,329.2c-.63,2.422-1.213,4.778-1.718,6.978a3.966,3.966,0,0,0-.1.821l-.08,4.146C278.632,338.215,278.953,333.221,277.162,329.2Z" transform="translate(-228.81 -187.237)" fill="#7986cb"/>
        <path id="Trazado_30131" data-name="Trazado 30131" d="M329.874,312.812l-.227,4.452-1.373,26.971-12.993.991s-2.919-17.744-4.208-25.634-4.16-32.367-4.16-32.367l-2.286.5c-2.375,7.335-12.79,37.082-12.79,37.082l-3.855,21.731-13.471-.937.519-26.852c3.366-2.93,3.689-7.92,1.9-11.948,3.826-14.725,9.359-31.937,9.359-31.937l3.6-17.565H323.1l3.295,17.565a218.8,218.8,0,0,1,3.4,33.7C329.874,311.229,329.874,312.812,329.874,312.812Z" transform="translate(-228.576 -164.844)" fill="#080033"/>
        <path id="Trazado_30132" data-name="Trazado 30132" d="M275.207,185.084l-22.776,30.923L233.4,222.292a2.223,2.223,0,0,0-1.492,2.512l.006.03-4.876,2.07,2.077,9.884,5.294-.567a2.229,2.229,0,0,0,2.7,1.462l22.29-6.537c1.436-3.633,4.92-6.556,9-5.863l6.05-7.8Z" transform="translate(-213.789 -142.352)" fill="#fff"/>
        <path id="Trazado_30133" data-name="Trazado 30133" d="M274.041,249.285l3.087-.905a8.633,8.633,0,0,0,4.387-2.99l1.524-1.967C278.961,242.729,275.477,245.652,274.041,249.285Z" transform="translate(-228.429 -160.49)" fill="#895cd8"/>
        <path id="Trazado_30134" data-name="Trazado 30134" d="M381.3,225.165l-2.295-2.513a18.086,18.086,0,0,0,4.525,14.084l.36-3.842A10.062,10.062,0,0,0,381.3,225.165Z" transform="translate(-261.079 -154.053)" fill="#895cd8"/>
        <path id="Trazado_30135" data-name="Trazado 30135" d="M368.052,210.728l-24.036-26.361.308,17.6-.633,7.9,12.253,11.066-1.188,25.981a1.99,1.99,0,0,0,1.987,2.083l.036,4.363,10.654.317.937-4.232a1.3,1.3,0,0,0,.155.006,1.911,1.911,0,0,0,1.9-1.731l2.147-22.9A18.086,18.086,0,0,1,368.052,210.728Z" transform="translate(-250.122 -142.129)" fill="#d9d9d9"/>
        <path id="Trazado_30136" data-name="Trazado 30136" d="M273.014,383.314l15.992,1.166-.793,3.721-14.751-1.569Z" transform="translate(-228.109 -204.092)" fill="#7986cb"/>
        <path id="Trazado_30137" data-name="Trazado 30137" d="M347.635,381.732,331.643,382.9l.793,3.721,14.751-1.569Z" transform="translate(-246.369 -203.599)" fill="#7986cb"/>
        <path id="Trazado_30138" data-name="Trazado 30138" d="M275.835,388.363v2.1l11.186.38.219-1.24Z" transform="translate(-228.988 -205.665)" fill="#da2727"/>
        <path id="Trazado_30139" data-name="Trazado 30139" d="M346.726,386.81l-.044,2.472H335.741l-.2-1.283Z" transform="translate(-247.585 -205.181)" fill="#da2727"/>
        <path id="Trazado_30140" data-name="Trazado 30140" d="M327.868,139.472a6.508,6.508,0,0,1-1.03,3.822,7.3,7.3,0,0,1-3.17,2.753,14.918,14.918,0,0,0-.367-4.034,5.379,5.379,0,0,0-2.148-2.928,6.567,6.567,0,0,0-3.928-.734,38.292,38.292,0,0,0-5.376.95,18.826,18.826,0,0,1-5.416.547,7.613,7.613,0,0,1-4.907-2.117,30.784,30.784,0,0,1,4.507-7,11.876,11.876,0,0,1,7.288-3.832,12,12,0,0,1,6.242,1.345,13.277,13.277,0,0,1,5.041,4.071C326.047,134.322,327.749,137,327.868,139.472Z" transform="translate(-236.989 -124.218)" fill="#1b141c"/>
        <path id="Trazado_30141" data-name="Trazado 30141" d="M326.494,151.773a14.964,14.964,0,0,1-1.913,8.039,10.955,10.955,0,0,1-5.376,4.175,18.669,18.669,0,0,1-6.8,1.069,14.98,14.98,0,0,1-4.891-.726,7.663,7.663,0,0,1-3.913-2.917,4.035,4.035,0,0,1-.293-3.633,2.871,2.871,0,0,1,1.034-1.456,2.729,2.729,0,0,1,1.9-.241,12,12,0,0,1,2.448,1.007,3.982,3.982,0,0,0,2.568.428c1.08-.272,1.9-1.282,3.01-1.386a6.04,6.04,0,0,1,2.426.658,6.136,6.136,0,0,0,5.044-.594,7.174,7.174,0,0,0,2.4-2.389,7.925,7.925,0,0,0,.412-.751c.1-.2.05-.692.209-.845s.57-.035.76-.087A8.158,8.158,0,0,0,326.494,151.773Z" transform="translate(-237.452 -131.977)" fill="#1b141c"/>
        <g id="Grupo_32992" data-name="Grupo 32992" transform="translate(65.969 17.363)">
          <path id="Trazado_30142" data-name="Trazado 30142" d="M307.778,152c0,.613-.344,1.109-.77,1.109s-.769-.5-.769-1.109.344-1.109.769-1.109S307.778,151.389,307.778,152Z" transform="translate(-304.426 -149.066)" fill="#1b141c"/>
          <path id="Trazado_30143" data-name="Trazado 30143" d="M319.6,152c0,.613-.344,1.109-.769,1.109s-.77-.5-.77-1.109.345-1.109.77-1.109S319.6,151.389,319.6,152Z" transform="translate(-308.11 -149.066)" fill="#1b141c"/>
          <path id="Trazado_30144" data-name="Trazado 30144" d="M312.551,151.423a4.123,4.123,0,0,1-.43,2.623,3.648,3.648,0,0,0-.595,1.353,1.307,1.307,0,0,0,.966,1.331" transform="translate(-306.072 -149.231)" fill="none" stroke="#1b141c" stroke-linecap="round" stroke-linejoin="round" stroke-width="0.885"/>
          <path id="Trazado_30145" data-name="Trazado 30145" d="M308.915,161.436a2.714,2.714,0,1,0,5.427,0Z" transform="translate(-305.26 -152.35)" fill="#fff"/>
          <path id="Trazado_30146" data-name="Trazado 30146" d="M306.908,148.241a1.358,1.358,0,0,1,.666.139.553.553,0,0,1,.292.571.56.56,0,0,1-.348.364,1.63,1.63,0,0,1-.513.091l-2.471.174c-.234.016-.922.105-.927-.26,0-.333.574-.5.8-.592A6.517,6.517,0,0,1,306.908,148.241Z" transform="translate(-303.606 -148.24)" fill="#1b141c"/>
          <path id="Trazado_30147" data-name="Trazado 30147" d="M318.169,148.241a1.358,1.358,0,0,0-.666.139.553.553,0,0,0-.292.571.559.559,0,0,0,.348.364,1.63,1.63,0,0,0,.513.091l2.471.174c.234.016.922.105.927-.26,0-.333-.574-.5-.8-.592A6.517,6.517,0,0,0,318.169,148.241Z" transform="translate(-307.84 -148.24)" fill="#1b141c"/>
        </g>
        <path id="Trazado_30148" data-name="Trazado 30148" d="M226.8,248.056l-1.578.738,2.064,6.557,1.03-.07Z" transform="translate(-213.223 -161.965)" fill="#da2727"/>
        <path id="Trazado_30149" data-name="Trazado 30149" d="M365,284.627l8.035.268-.179,1.227-7.606.228Z" transform="translate(-256.759 -173.356)" fill="#da2727"/>
        <path id="Trazado_30150" data-name="Trazado 30150" d="M234.407,254.2l-5.294.567-2.077-9.884,4.876-2.071Z" transform="translate(-213.789 -160.333)" fill="#895cd8"/>
        <path id="Trazado_30151" data-name="Trazado 30151" d="M374.276,278.672l-.937,4.232-10.654-.316-.036-4.363Z" transform="translate(-256.026 -171.361)" fill="#895cd8"/>
        <path id="Trazado_30152" data-name="Trazado 30152" d="M291.458,359.438l3.292-21.865,12.721-36.842" transform="translate(-233.854 -178.371)" fill="none" stroke="#6d92d0" stroke-miterlimit="10" stroke-width="0.867"/>
        <line id="Línea_24" data-name="Línea 24" x1="8.387" y1="58.507" transform="translate(80.579 121.76)" fill="none" stroke="#6d92d0" stroke-miterlimit="10" stroke-width="0.867"/>
        <path id="Trazado_30153" data-name="Trazado 30153" d="M319.83,275.867a139.652,139.652,0,0,1,.093,14.744" transform="translate(-242.69 -170.627)" fill="none" stroke="#6d92d0" stroke-miterlimit="10" stroke-width="0.867"/>
        <path id="Trazado_30154" data-name="Trazado 30154" d="M314.688,276.771q.018,2.882.036,5.763a6.553,6.553,0,0,0,.9,4,5.767,5.767,0,0,0,3.87,1.807" transform="translate(-241.089 -170.909)" fill="none" stroke="#6d92d0" stroke-miterlimit="10" stroke-width="0.867"/>
        <path id="Trazado_30155" data-name="Trazado 30155" d="M293.962,277.641a8.1,8.1,0,0,0,9.417-6.529" transform="translate(-234.633 -169.146)" fill="none" stroke="#6d92d0" stroke-miterlimit="10" stroke-width="0.867"/>
        <path id="Trazado_30156" data-name="Trazado 30156" d="M343.89,277.746a8.1,8.1,0,0,1-8.575-6.634" transform="translate(-247.513 -169.146)" fill="none" stroke="#6d92d0" stroke-miterlimit="10" stroke-width="0.867"/>
        <path id="Trazado_30157" data-name="Trazado 30157" d="M331.778,243.979a301.346,301.346,0,0,1-2.086-36.836c.094-5.284.189-10.575-.15-15.848-.177-2.75.561-5.558-1.074-7.776s-5.592-3.3-8.117-4.395a9.785,9.785,0,0,1-4.774,4.969,8.984,8.984,0,0,1-7.175.428,7.7,7.7,0,0,1-4.7-5.328c-3.32.775-7.208,1.7-8.849,4.686-.98,1.785-1.006,3.92-1.008,5.957q-.008,8.8-.017,17.608c-.011,11.825.159,23.842-2.366,35.394,4.033,2.532,8.955,2.875,13.669,2.2s9.279-2.173,13.99-2.863S327.718,241.492,331.778,243.979Z" transform="translate(-233.853 -140.496)" fill="#fff"/>
        <path id="Trazado_30158" data-name="Trazado 30158" d="M327.322,180.2a13.275,13.275,0,0,1-6.142,6.028,12.219,12.219,0,0,1-9.764.579,10.489,10.489,0,0,1-6.314-6.882c.954-.286,1.922-.513,2.846-.728a7.711,7.711,0,0,0,4.7,5.33,9,9,0,0,0,7.174-.43,9.762,9.762,0,0,0,4.774-4.971C325.406,179.467,326.349,179.819,327.322,180.2Z" transform="translate(-238.103 -140.495)" fill="#895cd8"/>
        <path id="Trazado_30159" data-name="Trazado 30159" d="M351.812,334.977l-.227,4.452a3.381,3.381,0,0,1-2.776,1.987c-2.137,0-3.861-2.9-3.861-6.475s1.725-6.476,3.861-6.476a3.534,3.534,0,0,1,2.925,2.262C351.812,333.394,351.812,334.977,351.812,334.977Z" transform="translate(-250.514 -187.009)" fill="#7986cb"/>
        <rect id="Rectángulo_7612" data-name="Rectángulo 7612" width="21.212" height="10.336" rx="1.992" transform="translate(66.858 58.263)" fill="#895cd8"/>
        <path id="Trazado_30160" data-name="Trazado 30160" d="M331.781,270.931c-4.064-2.489-7.95-2.5-12.665-1.8s-9.275,2.19-13.99,2.859-9.633.334-13.668-2.2c.155-.716.3-1.432.436-2.148,3.933,1.88,8.481,2.083,12.867,1.456,4.978-.711,9.8-2.292,14.778-3.026,4.387-.638,8.1-.716,11.853,1.08Q331.58,269.045,331.781,270.931Z" transform="translate(-233.853 -167.446)" fill="#895cd8"/>
      </g>
      <path id="Trazado_30161" data-name="Trazado 30161" d="M235.573,271.112c.841.806,1.688,1.606,2.55,2.385,17.354,15.662,41.426,22.193,64.8,22.6a47.787,47.787,0,0,0,15.7-2.475" transform="translate(-105.185 -169.146)" fill="none" stroke="#a777ce" stroke-linecap="round" stroke-linejoin="round" stroke-width="1.734"/>
      <g id="Grupo_33000" data-name="Grupo 33000" transform="translate(228.958 27.378)">
        <circle id="Elipse_540" data-name="Elipse 540" cx="6.972" cy="6.972" r="6.972" transform="translate(190.973 87.14) rotate(-45)" fill="#080033"/>
        <path id="Rectángulo_7613" data-name="Rectángulo 7613" d="M3.29,0h0a3.29,3.29,0,0,1,3.29,3.29V19.106a0,0,0,0,1,0,0H0a0,0,0,0,1,0,0V3.29A3.29,3.29,0,0,1,3.29,0Z" transform="translate(58.153 56.066)" fill="#486363"/>
        <path id="Trazado_30162" data-name="Trazado 30162" d="M479.006,272.778h0a1.645,1.645,0,0,1-1.645-1.646V255.317a1.645,1.645,0,0,1,1.645-1.645h0a1.644,1.644,0,0,1,1.645,1.645v15.815A1.645,1.645,0,0,1,479.006,272.778Z" transform="translate(-409.449 -191.093)" fill="#486363"/>
        <path id="Trazado_30163" data-name="Trazado 30163" d="M455.054,271.284h0a1.645,1.645,0,0,1-1.645-1.646V253.823a1.645,1.645,0,0,1,1.645-1.645h0a1.645,1.645,0,0,1,1.646,1.645v15.815A1.646,1.646,0,0,1,455.054,271.284Z" transform="translate(-401.989 -190.628)" fill="#486363"/>
        <path id="Trazado_30164" data-name="Trazado 30164" d="M626.453,250.915h0a1.646,1.646,0,0,1-1.646-1.646V233.454a1.645,1.645,0,0,1,1.646-1.645h0a1.645,1.645,0,0,1,1.645,1.645v15.815A1.645,1.645,0,0,1,626.453,250.915Z" transform="translate(-455.372 -184.284)" fill="#486363"/>
        <g id="Grupo_32994" data-name="Grupo 32994" transform="translate(135.206)">
          <rect id="Rectángulo_7614" data-name="Rectángulo 7614" width="3.055" height="51.955" transform="translate(5.432 5.858)" fill="#486363"/>
          <path id="Trazado_30165" data-name="Trazado 30165" d="M585.224,245.683h-6.338a3.79,3.79,0,0,0-3.791,3.79h13.92A3.79,3.79,0,0,0,585.224,245.683Z" transform="translate(-575.095 -188.605)" fill="#486363"/>
          <path id="Trazado_30166" data-name="Trazado 30166" d="M587.128,166.3a3.513,3.513,0,1,1-3.514-3.513A3.514,3.514,0,0,1,587.128,166.3Z" transform="translate(-576.654 -162.786)" fill="#486363"/>
        </g>
        <path id="Trazado_30167" data-name="Trazado 30167" d="M420.12,326.387A3.384,3.384,0,1,1,416.736,323,3.385,3.385,0,0,1,420.12,326.387Z" transform="translate(-389.513 -212.686)" fill="#486363"/>
        <path id="Trazado_30168" data-name="Trazado 30168" d="M419.577,313.262a2.393,2.393,0,1,1-2.393-2.393A2.393,2.393,0,0,1,419.577,313.262Z" transform="translate(-389.962 -208.907)" fill="#486363"/>
        <rect id="Rectángulo_7615" data-name="Rectángulo 7615" width="24.513" height="8.469" transform="translate(172.726 83.252)" fill="#080033"/>
        <path id="Rectángulo_7616" data-name="Rectángulo 7616" d="M0,0H23.216a1.3,1.3,0,0,1,1.3,1.3v0a1.3,1.3,0,0,1-1.3,1.3H0a0,0,0,0,1,0,0V0A0,0,0,0,1,0,0Z" transform="translate(36.54 115.266) rotate(90)" fill="#080033"/>
        <path id="Trazado_30169" data-name="Trazado 30169" d="M529.427,239.427c-24.189,0-51.918,11.559-62.77,16.554a24.126,24.126,0,0,1-12.487,2.163,46.845,46.845,0,0,1-24.4-10.3,7.113,7.113,0,0,0-11.5,5.613v51.48a8.043,8.043,0,0,0,8.044,8.044h0a8.043,8.043,0,0,0,8.044-8.044h0a12.734,12.734,0,0,1,8.7-12.059,63.083,63.083,0,0,1,20.091-3.235H515.77a7.585,7.585,0,0,1,7.585,7.585v54.708H573.74V268.07a21.393,21.393,0,0,0-8.191-16.869C558.485,245.682,546.674,239.427,529.427,239.427Z" transform="translate(-391.044 -186.656)" fill="#9fa8da"/>
        <path id="Trazado_30170" data-name="Trazado 30170" d="M378.73,413.691H573.868v-6.419a4.437,4.437,0,0,0-4.437-4.437H389.586a10.855,10.855,0,0,0-10.856,10.856Z" transform="translate(-378.73 -237.551)" fill="#9fa8da"/>
        <path id="Trazado_30171" data-name="Trazado 30171" d="M662.376,304.376h0a6.215,6.215,0,0,1-6.216-6.215V257.53a6.215,6.215,0,0,1,6.216-6.215h0a6.215,6.215,0,0,1,6.215,6.215v40.631A6.216,6.216,0,0,1,662.376,304.376Z" transform="translate(-465.137 -190.359)" fill="#9fa8da"/>
        <rect id="Rectángulo_7617" data-name="Rectángulo 7617" width="14.257" height="26.775" transform="translate(134.704 16.835)" fill="#556bc1"/>
        <g id="Grupo_32995" data-name="Grupo 32995" transform="translate(129.486 11.871)">
          <path id="Trazado_30172" data-name="Trazado 30172" d="M579.947,195.309l-5.81-6.974-5.81-6.974h23.24l-5.81,6.974Z" transform="translate(-567.267 -180.442)" fill="#78a4a5"/>
          <path id="Trazado_30173" data-name="Trazado 30173" d="M579.947,211.739l5.81,6.974,5.81,6.974h-23.24l5.81-6.974Z" transform="translate(-567.267 -189.903)" fill="#78a4a5"/>
          <path id="Trazado_30174" data-name="Trazado 30174" d="M591.227,181.866H567.708a.92.92,0,0,1-.92-.92h0a.92.92,0,0,1,.92-.92h23.519a.92.92,0,0,1,.921.92h0A.92.92,0,0,1,591.227,181.866Z" transform="translate(-566.788 -180.026)" fill="#486363"/>
          <path id="Trazado_30175" data-name="Trazado 30175" d="M591.227,232.5H567.708a.92.92,0,0,1-.92-.92h0a.92.92,0,0,1,.92-.921h23.519a.921.921,0,0,1,.921.921h0A.921.921,0,0,1,591.227,232.5Z" transform="translate(-566.788 -195.796)" fill="#486363"/>
        </g>
        <rect id="Rectángulo_7618" data-name="Rectángulo 7618" width="17.228" height="26.775" transform="translate(133.219 16.835)" fill="#ffb74a"/>
        <g id="Grupo_32996" data-name="Grupo 32996" transform="translate(133.219 16.835)">
          <path id="Trazado_30176" data-name="Trazado 30176" d="M589.437,192.482l-8.614-1.312-8.614-1.312,8.614-1.312,8.614-1.312" transform="translate(-572.209 -187.236)" fill="none" stroke="#ff9029" stroke-linecap="round" stroke-linejoin="round" stroke-width="0.739"/>
          <path id="Trazado_30177" data-name="Trazado 30177" d="M572.209,200.3l8.614-1.312,8.614-1.312-8.614-1.312-8.614-1.312" transform="translate(-572.209 -189.67)" fill="none" stroke="#ff9029" stroke-linecap="round" stroke-linejoin="round" stroke-width="0.739"/>
          <path id="Trazado_30178" data-name="Trazado 30178" d="M589.437,208.115l-8.614-1.312-8.614-1.312,8.614-1.312,8.614-1.312" transform="translate(-572.209 -192.105)" fill="none" stroke="#ff9029" stroke-linecap="round" stroke-linejoin="round" stroke-width="0.739"/>
          <path id="Trazado_30179" data-name="Trazado 30179" d="M572.209,215.932l8.614-1.312,8.614-1.312L580.823,212l-8.614-1.312" transform="translate(-572.209 -194.539)" fill="none" stroke="#ff9029" stroke-linecap="round" stroke-linejoin="round" stroke-width="0.739"/>
          <path id="Trazado_30180" data-name="Trazado 30180" d="M589.437,223.748l-8.614-1.312-8.614-1.312,8.614-1.312,8.614-1.312" transform="translate(-572.209 -196.974)" fill="none" stroke="#ff9029" stroke-linecap="round" stroke-linejoin="round" stroke-width="0.739"/>
        </g>
        <rect id="Rectángulo_7619" data-name="Rectángulo 7619" width="41.995" height="20.807" rx="6.077" transform="translate(121.168 67.906)" fill="#7986cb"/>
        <g id="Grupo_32997" data-name="Grupo 32997" transform="translate(36.66 78.778)">
          <circle id="Elipse_541" data-name="Elipse 541" cx="8.708" cy="8.708" r="8.708" fill="#080033"/>
          <path id="Trazado_30181" data-name="Trazado 30181" d="M446.939,287.931A4.235,4.235,0,1,1,442.7,283.7,4.235,4.235,0,0,1,446.939,287.931Z" transform="translate(-433.996 -279.222)" fill="#fff"/>
        </g>
        <g id="Grupo_32998" data-name="Grupo 32998" transform="translate(145.296 102.891)">
          <circle id="Elipse_542" data-name="Elipse 542" cx="10.277" cy="10.277" r="10.277" transform="translate(0 19.996) rotate(-76.63)" fill="#080033"/>
          <circle id="Elipse_543" data-name="Elipse 543" cx="4.997" cy="4.997" r="4.997" transform="translate(7.377 7.377)" fill="#fff"/>
        </g>
        <g id="Grupo_32999" data-name="Grupo 32999" transform="translate(150.481 136.141)">
          <circle id="Elipse_544" data-name="Elipse 544" cx="7.189" cy="7.189" r="7.189" fill="#080033"/>
          <circle id="Elipse_545" data-name="Elipse 545" cx="3.496" cy="3.496" r="3.496" transform="translate(3.693 3.693)" fill="#fff"/>
        </g>
        <path id="Trazado_30182" data-name="Trazado 30182" d="M468.327,291.372H454.651a2.787,2.787,0,0,1-2.787-2.787h0a2.787,2.787,0,0,1,2.787-2.787h13.676a2.788,2.788,0,0,1,2.787,2.787h0A2.788,2.788,0,0,1,468.327,291.372Z" transform="translate(-401.508 -201.099)" fill="#080033"/>
      </g>
    </g>
  </g>
</svg>
