<svg xmlns="http://www.w3.org/2000/svg" xmlns:xlink="http://www.w3.org/1999/xlink" width="90" height="70.001" viewBox="0 0 90 70.001">
  <defs>
    <clipPath id="clip-path">
      <rect id="Rectángulo_25786" data-name="Rectángulo 25786" width="79.271" height="55" fill="#673ab7"/>
    </clipPath>
  </defs>
  <g id="Grupo_38845" data-name="Grupo 38845" transform="translate(-2329 -15151.999)">
    <circle id="Elipse_1792" data-name="Elipse 1792" cx="34" cy="34" r="34" transform="translate(2351 15154)" fill="#ffd54f"/>
    <g id="Grupo_38844" data-name="Grupo 38844" transform="translate(2329 15151.999)">
      <g id="Grupo_38843" data-name="Grupo 38843" transform="translate(0)">
        <g id="Grupo_38842" data-name="Grupo 38842" clip-path="url(#clip-path)">
          <path id="Trazado_67688" data-name="Trazado 67688" d="M181.991,344.671l-6.018-3.984a1.1,1.1,0,0,0-1.588.432,1.342,1.342,0,0,0,.393,1.743l6.018,3.984a2.761,2.761,0,0,1,1.183,2.3v3.6a.081.081,0,0,1-.077.084,12.365,12.365,0,0,1-6.834-2.087L145.8,331.368a2.062,2.062,0,0,0-2.31,0l-29.266,19.373a12.365,12.365,0,0,1-6.834,2.087.081.081,0,0,1-.077-.084v-3.6a2.761,2.761,0,0,1,1.183-2.3l24.339-16.111a8.337,8.337,0,0,0,3.48-5.329l.044-.221a5.413,5.413,0,0,1,5.123-4.525h6.383a5.4,5.4,0,0,1,5.123,4.524,6.175,6.175,0,0,0,2.647,5.009l14.729,9.749a1.1,1.1,0,0,0,1.588-.432,1.342,1.342,0,0,0-.394-1.743l-14.728-9.749a3.575,3.575,0,0,1-1.53-2.974,1.426,1.426,0,0,0-.022-.248,7.792,7.792,0,0,0-7.413-6.676h-2.125v-3.076a7.289,7.289,0,0,0,5.641-7.583c-.106-3.9-2.968-7.076-6.518-7.233a6.757,6.757,0,0,0-6.335,4.055,1.331,1.331,0,0,0,.5,1.709,1.109,1.109,0,0,0,1.558-.55,4.464,4.464,0,0,1,4.184-2.677,4.984,4.984,0,0,1,.364,9.81,2.067,2.067,0,0,0-1.708,2.1v3.442h-1.944a7.8,7.8,0,0,0-7.384,6.521l-.044.221a5.788,5.788,0,0,1-2.414,3.7L107.3,344.671a5.378,5.378,0,0,0-2.3,4.473v3.6a2.519,2.519,0,0,0,2.391,2.624,14.522,14.522,0,0,0,8.029-2.452l1.841-1.218c.037,0,13.633.006,13.633.006a1.275,1.275,0,0,0,0-2.54h-9.806l23.559-15.594,23.559,15.594H136.158a1.275,1.275,0,0,0,0,2.539h35.883l1.832,1.213a14.522,14.522,0,0,0,8.029,2.451,2.518,2.518,0,0,0,2.391-2.624v-3.6a5.378,5.378,0,0,0-2.3-4.473Zm0,0" transform="translate(-105 -300.442)" fill="#673ab7"/>
        </g>
      </g>
    </g>
  </g>
</svg>
