<svg xmlns="http://www.w3.org/2000/svg" xmlns:xlink="http://www.w3.org/1999/xlink" width="142.821" height="163.937" viewBox="0 0 142.821 163.937">
  <defs>
    <clipPath id="clip-path">
      <rect id="Rectángulo_25908" data-name="Rectángulo 25908" width="116.088" height="116.088" fill="#673ab7"/>
    </clipPath>
  </defs>
  <g id="Grupo_38916" data-name="Grupo 38916" transform="translate(-280 -2546)">
    <circle id="Elipse_1792" data-name="Elipse 1792" cx="71.41" cy="71.41" r="71.41" transform="translate(280 2567.116)" fill="#ffd54f"/>
    <g id="Grupo_38913" data-name="Grupo 38913" transform="translate(280 2546)">
      <g id="Grupo_38912" data-name="Grupo 38912" transform="translate(0 0)">
        <g id="Grupo_38911" data-name="Grupo 38911" transform="translate(0 0)" clip-path="url(#clip-path)">
          <path id="Trazado_67736" data-name="Trazado 67736" d="M248.295,252.7a2.4,2.4,0,0,1-.774-4.683,19.144,19.144,0,0,0,12.33-13.318H222.3a19.14,19.14,0,0,0,12.336,13.318,2.407,2.407,0,1,1-1.55,4.558,23.979,23.979,0,0,1-16.058-20.024,2.407,2.407,0,0,1,2.388-2.666h43.319a2.407,2.407,0,0,1,2.392,2.666,23.979,23.979,0,0,1-16.058,20.024,2.438,2.438,0,0,1-.774.125Zm0,0" transform="translate(-183.317 -229.89)" fill="#673ab7"/>
          <path id="Trazado_67737" data-name="Trazado 67737" d="M339.473,345.387H320.22a7.229,7.229,0,0,1-7.22-7.22V250.278A2.413,2.413,0,0,1,314.632,248a19.135,19.135,0,0,0,12.822-15.985,2.405,2.405,0,0,1,3.283-1.979l15.306,6.113a21.572,21.572,0,0,1,12.793,14.237,184.887,184.887,0,0,1,7.109,50.818v22.526a7.229,7.229,0,0,1-7.22,7.22H346.693v7.22a7.229,7.229,0,0,1-7.22,7.22Zm-21.659-93.453v86.233a2.411,2.411,0,0,0,2.407,2.407h19.253a2.411,2.411,0,0,0,2.407-2.407V328.54a2.408,2.408,0,0,1,2.407-2.407h14.44a2.411,2.411,0,0,0,2.407-2.407V301.2a179.9,179.9,0,0,0-6.921-49.489,16.83,16.83,0,0,0-9.954-11.091L331.7,235.606a24,24,0,0,1-13.886,16.327Zm0,0" transform="translate(-250.428 -229.869)" fill="#673ab7"/>
          <path id="Trazado_67738" data-name="Trazado 67738" d="M411.407,398.088A2.408,2.408,0,0,1,409,395.682V328.3a2.407,2.407,0,0,1,4.813,0v67.385a2.408,2.408,0,0,1-2.407,2.407Zm0,0" transform="translate(-317.549 -297.01)" fill="#673ab7"/>
          <path id="Trazado_67739" data-name="Trazado 67739" d="M150.725,345.413H131.473a7.229,7.229,0,0,1-7.22-7.22v-7.22H112.22a7.229,7.229,0,0,1-7.22-7.22V301.228a184.791,184.791,0,0,1,7.109-50.809A21.584,21.584,0,0,1,124.9,236.181l15.306-6.113a2.406,2.406,0,0,1,3.283,1.974,19.14,19.14,0,0,0,12.822,15.985,2.4,2.4,0,0,1,1.632,2.276v87.889a7.229,7.229,0,0,1-7.22,7.22Zm-11.479-109.78-12.557,5.015a16.8,16.8,0,0,0-9.954,11.1,179.837,179.837,0,0,0-6.921,49.485v22.526a2.411,2.411,0,0,0,2.407,2.407h14.44a2.408,2.408,0,0,1,2.407,2.407v9.626a2.411,2.411,0,0,0,2.407,2.407h19.253a2.411,2.411,0,0,0,2.407-2.407V251.96a24,24,0,0,1-13.886-16.327Zm0,0" transform="translate(-105 -229.895)" fill="#673ab7"/>
        </g>
      </g>
      <path id="Trazado_67740" data-name="Trazado 67740" d="M171.407,398.088A2.408,2.408,0,0,1,169,395.682V328.3a2.407,2.407,0,1,1,4.813,0v67.385a2.408,2.408,0,0,1-2.407,2.407Zm0,0" transform="translate(-149.747 -297.01)" fill="#673ab7"/>
      <path id="Trazado_67741" data-name="Trazado 67741" d="M281.846,570.7h-14.44a2.407,2.407,0,0,1,0-4.813h14.44a2.407,2.407,0,1,1,0,4.813Zm0,0" transform="translate(-216.868 -464.812)" fill="#673ab7"/>
      <path id="Trazado_67742" data-name="Trazado 67742" d="M126.659,506.7H107.407a2.407,2.407,0,1,1,0-4.813h19.253a2.407,2.407,0,0,1,0,4.813Zm0,0" transform="translate(-105 -420.065)" fill="#673ab7"/>
      <path id="Trazado_67743" data-name="Trazado 67743" d="M430.659,506.7H411.407a2.407,2.407,0,0,1,0-4.813h19.253a2.407,2.407,0,0,1,0,4.813Zm0,0" transform="translate(-317.549 -420.065)" fill="#673ab7"/>
    </g>
  </g>
</svg>
