<svg xmlns="http://www.w3.org/2000/svg" width="136.945" height="126.862" viewBox="0 0 136.945 126.862">
  <g id="Grupo_1068234" data-name="Grupo 1068234" transform="translate(-307 -2425.138)">
    <circle id="Elipse_4850" data-name="Elipse 4850" cx="52.5" cy="52.5" r="52.5" transform="translate(307 2447)" fill="#673ab7"/>
    <g id="pants" transform="translate(310.519 2426.138)">
      <g id="Grupo_1068171" data-name="Grupo 1068171" transform="translate(35.062 12.501)">
        <path id="Trazado_771816" data-name="Trazado 771816" d="M89.885,159.027H55.168l-13.5-77.149,13.5-23.145H89.885Z" transform="translate(-41.667 -58.733)" fill="#ffe100"/>
        <path id="Trazado_771817" data-name="Trazado 771817" d="M255,250.913l48.218-48.218L278.723,178.2,255,201.923Z" transform="translate(-206.782 -151.198)" fill="#ffe100"/>
      </g>
      <path id="Trazado_771818" data-name="Trazado 771818" d="M101.4,19.105h34.717V7.533H101.4Z" transform="translate(-52.837 -6.604)" fill="#fdcc00"/>
      <path id="Trazado_771819" data-name="Trazado 771819" d="M278.723,180.76l-2.893,2.893,21.6,21.6L255,247.687v5.786l48.218-48.218Z" transform="translate(-171.72 -140.678)" fill="#ffa800"/>
      <g id="Grupo_1068172" data-name="Grupo 1068172" transform="translate(35.062 0.929)">
        <path id="Trazado_771820" data-name="Trazado 771820" d="M59.026,58.733H55.168l-13.5,23.145,13.5,77.149h3.858l-13.5-77.149Z" transform="translate(-41.667 -47.161)" fill="#fff"/>
        <path id="Trazado_771821" data-name="Trazado 771821" d="M101.4,19.105h3.858V7.533H101.4Z" transform="translate(-87.899 -7.533)" fill="#fff"/>
      </g>
      <path id="Trazado_771822" data-name="Trazado 771822" d="M129.513,14.43H94.8A1.822,1.822,0,0,1,92.867,12.5V.929A1.822,1.822,0,0,1,94.8-1h34.717A1.822,1.822,0,0,1,131.441.929V12.5A1.822,1.822,0,0,1,129.513,14.43ZM96.724,10.572h30.86V2.858H96.724Z" transform="translate(-46.233)"/>
      <path id="Trazado_771823" data-name="Trazado 771823" d="M83.28,154.351H48.563a1.878,1.878,0,0,1-1.929-1.543l-13.5-77.149a3.283,3.283,0,0,1,.193-1.35l13.5-23.145a2.026,2.026,0,0,1,1.736-.964H83.28a1.822,1.822,0,0,1,1.929,1.929V152.422A1.822,1.822,0,0,1,83.28,154.351Zm-33.174-3.858H81.351V54.058H49.72l-12.73,21.6Z" transform="translate(0 -39.628)"/>
      <path id="Trazado_771824" data-name="Trazado 771824" d="M146,14.431a1.822,1.822,0,0,1-1.929-1.929V.93a1.929,1.929,0,1,1,3.857,0V12.5A1.822,1.822,0,0,1,146,14.431Z" transform="translate(-85.86 -0.001)"/>
      <path id="Trazado_771825" data-name="Trazado 771825" d="M197.2,14.431a1.822,1.822,0,0,1-1.929-1.929V.93a1.929,1.929,0,0,1,3.857,0V12.5A1.822,1.822,0,0,1,197.2,14.431Z" transform="translate(-125.488 -0.001)"/>
      <path id="Trazado_771826" data-name="Trazado 771826" d="M139.683,113.791H120.4a1.929,1.929,0,1,1,0-3.857h19.287a1.929,1.929,0,1,1,0,3.857Z" transform="translate(-66.047 -85.86)"/>
      <path id="Trazado_771827" data-name="Trazado 771827" d="M197.2,111.044a1.822,1.822,0,0,1-1.929-1.929V103.33a1.929,1.929,0,1,1,3.857,0v5.786A1.822,1.822,0,0,1,197.2,111.044Z" transform="translate(-125.488 -79.256)"/>
      <path id="Trazado_771828" data-name="Trazado 771828" d="M248.4,246.238a1.16,1.16,0,0,1-.771-.193,1.854,1.854,0,0,1-1.157-1.736v-48.99a1.75,1.75,0,0,1,.579-1.35l23.723-23.723a1.865,1.865,0,0,1,2.7,0l24.495,24.495a1.865,1.865,0,0,1,0,2.7l-48.218,48.218A1.75,1.75,0,0,1,248.4,246.238Zm1.929-50.147V239.68l43.589-43.589L272.119,174.3Z" transform="translate(-165.116 -132.093)"/>
      <path id="Trazado_771829" data-name="Trazado 771829" d="M348.837,204.578a1.75,1.75,0,0,1-1.35-.579L322.992,179.5a1.864,1.864,0,0,1,0-2.7l6.558-6.558a1.865,1.865,0,0,1,2.7,0l24.495,24.495a1.865,1.865,0,0,1,0,2.7L350.187,204A1.5,1.5,0,0,1,348.837,204.578Zm-21.795-26.424,21.795,21.795,3.664-3.665L330.9,174.3Z" transform="translate(-223.896 -132.093)"/>
    </g>
  </g>
</svg>
