<svg xmlns="http://www.w3.org/2000/svg" width="444" height="547" viewBox="0 0 444 547">
  <g id="Grupo_38932" data-name="Grupo 38932" transform="translate(-691 -13427)">
    <rect id="Rect치ngulo_25939" data-name="Rect치ngulo 25939" width="444" height="547" rx="10" transform="translate(691 13427)" fill="#ffd54f" opacity="0.2"/>
    <g id="Grupo_38931" data-name="Grupo 38931" transform="translate(-2138.325 13125.938)">
      <path id="Trazado_62076" data-name="Trazado 62076" d="M2972.618,727.628a16.764,16.764,0,0,1-16.746-16.745V585.331l-36.992-21.138a17,17,0,0,1-6.791-22.289l38.507-77.685a20.049,20.049,0,0,1,7.268-8.054l47.417-29.925a26.957,26.957,0,0,1,27.3-.9c7.685,4.2,14.591,6.236,21.11,6.236a31.618,31.618,0,0,0,16.975-5.122,27.015,27.015,0,0,1,28.656.258l46.207,29.494a20.075,20.075,0,0,1,7.175,7.993l38.515,77.7a17,17,0,0,1-6.792,22.29l-36.991,21.139V710.883a16.764,16.764,0,0,1-16.745,16.745Z" fill="#f8bf14"/>
      <path id="Trazado_62077" data-name="Trazado 62077" d="M3182.258,546.345l-38.513-77.7a10.06,10.06,0,0,0-3.6-4.009l-46.207-29.495a17.016,17.016,0,0,0-18.014-.182c-14.7,9.094-30.447,8.819-48.139-.841a16.963,16.963,0,0,0-17.169.578l-7.969,5.03-.028.017-39.424,24.88a10.037,10.037,0,0,0-3.64,4.036l-38.507,77.685a6.992,6.992,0,0,0,2.792,9.166l42.03,24.017V710.882a6.753,6.753,0,0,0,6.746,6.746H3130.69a6.754,6.754,0,0,0,6.746-6.746v-45.03a4.218,4.218,0,0,0-8.436,0v43.34H2974.308V526.967a4.218,4.218,0,0,0-8.436,0v42.845l-36.656-20.946,37.9-76.46a1.612,1.612,0,0,1,.585-.648l34.267-21.626a51.537,51.537,0,0,0,10.017,19.16,4.218,4.218,0,0,0,6.492-5.388,43.028,43.028,0,0,1-8.992-18.516l5.636-3.557c.175-.11.355-.213.536-.31a36.361,36.361,0,0,0,72.018-.113,8.615,8.615,0,0,1,1.728.845l4.474,2.855a43.069,43.069,0,0,1-63.589,28.733,4.218,4.218,0,1,0-4.2,7.317,51.5,51.5,0,0,0,75.307-31.249l34.211,21.837a1.635,1.635,0,0,1,.578.645l37.906,76.474-36.656,20.946V526.965a4.218,4.218,0,0,0-8.436,0V648.98a4.218,4.218,0,0,0,8.436,0V579.528l42.03-24.017a6.992,6.992,0,0,0,2.792-9.166Zm-130.6-82a27.921,27.921,0,0,1-27.405-22.558c19.5,10.486,37.839,10.918,54.541,1.283A27.8,27.8,0,0,1,3051.654,464.348Z" fill="#ffa000"/>
      <g id="Grupo_38825" data-name="Grupo 38825">
        <path id="Trazado_62078" data-name="Trazado 62078" d="M2990.8,575.286h-2.749V572.9h8.128v2.39h-2.749V589.63h-2.63Z"/>
        <path id="Trazado_62079" data-name="Trazado 62079" d="M2997.449,572.9h7.172v2.39h-4.542v4.423h3.609V582.1h-3.609v5.139h4.542v2.391h-7.172Z"/>
        <path id="Trazado_62080" data-name="Trazado 62080" d="M3006.127,572.9h3.3l2.557,10.016h.048V572.9h2.343V589.63h-2.7l-3.155-12.216h-.048V589.63h-2.343Z"/>
        <path id="Trazado_62081" data-name="Trazado 62081" d="M3016.335,572.9h7.172v2.39h-4.542v4.423h3.609V582.1h-3.609v5.139h4.542v2.391h-7.172Z"/>
        <path id="Trazado_62082" data-name="Trazado 62082" d="M3025.013,572.9h3.9a3.362,3.362,0,0,1,3.9,3.848v1.028q0,2.607-1.721,3.3v.048a2.056,2.056,0,0,1,1.351,1.172,5.914,5.914,0,0,1,.394,2.366V587.6a11.192,11.192,0,0,0,.048,1.159,2.866,2.866,0,0,0,.239.873h-2.678a3.818,3.818,0,0,1-.191-.765,11.468,11.468,0,0,1-.048-1.291v-3.06a2.6,2.6,0,0,0-.371-1.6,1.566,1.566,0,0,0-1.278-.454h-.908v7.172h-2.63Zm3.586,7.171a1.578,1.578,0,0,0,1.183-.406,1.921,1.921,0,0,0,.394-1.363v-1.291a2.133,2.133,0,0,0-.322-1.315,1.222,1.222,0,0,0-1.016-.406h-1.195v4.781Z"/>
        <path id="Trazado_62083" data-name="Trazado 62083" d="M3038.472,572.9h7.172v2.39H3041.1v4.423h3.609V582.1H3041.1v5.139h4.542v2.391h-7.172Z"/>
        <path id="Trazado_62084" data-name="Trazado 62084" d="M3047.149,572.9h3.3l2.558,10.016h.048V572.9h2.342V589.63h-2.7l-3.155-12.216h-.048V589.63h-2.343Z"/>
        <path id="Trazado_62085" data-name="Trazado 62085" d="M3062.006,588.793a4.315,4.315,0,0,1-.992-3.036v-8.988a4.317,4.317,0,0,1,.992-3.037,4.395,4.395,0,0,1,5.762,0,4.318,4.318,0,0,1,.992,3.037v1.768h-2.487V576.6q0-1.554-1.314-1.554t-1.315,1.554v9.347q0,1.531,1.315,1.531t1.314-1.531v-2.557h2.487v2.366a4.316,4.316,0,0,1-.992,3.036,4.395,4.395,0,0,1-5.762,0Z"/>
        <path id="Trazado_62086" data-name="Trazado 62086" d="M3071.246,588.781a4.429,4.429,0,0,1-1-3.12V572.9h2.63v12.957a1.82,1.82,0,0,0,.347,1.243,1.475,1.475,0,0,0,1.983,0,1.818,1.818,0,0,0,.347-1.243V572.9h2.534v12.765a4.43,4.43,0,0,1-1,3.12,4.453,4.453,0,0,1-5.833,0Z"/>
        <path id="Trazado_62087" data-name="Trazado 62087" d="M3079.948,572.9h7.172v2.39h-4.542v4.423h3.61V582.1h-3.61v5.139h4.542v2.391h-7.172Z"/>
        <path id="Trazado_62088" data-name="Trazado 62088" d="M3088.626,572.9h3.3l2.557,10.016h.048V572.9h2.343V589.63h-2.7l-3.155-12.216h-.048V589.63h-2.343Z"/>
        <path id="Trazado_62089" data-name="Trazado 62089" d="M3100.89,575.286h-2.749V572.9h8.128v2.39h-2.749V589.63h-2.63Z"/>
        <path id="Trazado_62090" data-name="Trazado 62090" d="M3108.469,572.9h3.561l2.726,16.734h-2.63l-.479-3.323v.047h-2.988l-.477,3.276h-2.439Zm2.868,11.188-1.171-8.272h-.048l-1.147,8.272Z"/>
        <path id="Trazado_62091" data-name="Trazado 62091" d="M2998.633,596.8h7.172v2.39h-4.542v4.423h3.609v2.391h-3.609v5.14h4.542v2.39h-7.172Z"/>
        <path id="Trazado_62092" data-name="Trazado 62092" d="M3007.311,596.8h2.629v14.344h4.327v2.39h-6.956Z"/>
        <path id="Trazado_62093" data-name="Trazado 62093" d="M3021.392,596.8h3.561l2.726,16.734h-2.63l-.479-3.323v.048h-2.988l-.478,3.275h-2.438Zm2.868,11.188-1.171-8.272h-.048l-1.147,8.272Z"/>
        <path id="Trazado_62094" data-name="Trazado 62094" d="M3028.945,596.8h3.3l2.558,10.016h.048V596.8h2.342v16.734h-2.7l-3.155-12.216h-.048v12.216h-2.343Z"/>
        <path id="Trazado_62095" data-name="Trazado 62095" d="M3041.186,596.8h3.561l2.726,16.734h-2.63l-.479-3.323v.048h-2.988l-.478,3.275h-2.438Zm2.031-3.873h2.869l-2.558,2.749h-1.984Zm.837,15.061-1.171-8.272h-.048l-1.147,8.272Z"/>
        <path id="Trazado_62096" data-name="Trazado 62096" d="M3048.739,596.8h2.63v14.344h4.326v2.39h-6.956Z"/>
        <path id="Trazado_62097" data-name="Trazado 62097" d="M3056.963,596.8h2.63v16.734h-2.63Z"/>
        <path id="Trazado_62098" data-name="Trazado 62098" d="M3062.078,612.688a4.51,4.51,0,0,1-.979-3.121v-.956h2.486v1.148q0,1.626,1.362,1.626a1.279,1.279,0,0,0,1.016-.4,1.915,1.915,0,0,0,.347-1.279,3.557,3.557,0,0,0-.478-1.853,8.878,8.878,0,0,0-1.769-1.924,10.6,10.6,0,0,1-2.272-2.594,5.294,5.294,0,0,1-.645-2.617,4.362,4.362,0,0,1,1-3.073,3.772,3.772,0,0,1,2.916-1.087,3.629,3.629,0,0,1,2.858,1.087,4.549,4.549,0,0,1,.968,3.121v.692h-2.487v-.86a1.915,1.915,0,0,0-.335-1.255,1.211,1.211,0,0,0-.979-.4q-1.315,0-1.316,1.6a3.152,3.152,0,0,0,.491,1.7,9.384,9.384,0,0,0,1.781,1.913,9.862,9.862,0,0,1,2.271,2.606,5.789,5.789,0,0,1,.621,2.749,4.488,4.488,0,0,1-1.015,3.156,3.824,3.824,0,0,1-2.953,1.1A3.7,3.7,0,0,1,3062.078,612.688Z"/>
        <path id="Trazado_62099" data-name="Trazado 62099" d="M3070.445,596.8h2.63v16.734h-2.63Z"/>
        <path id="Trazado_62100" data-name="Trazado 62100" d="M3075.561,612.688a4.5,4.5,0,0,1-.98-3.121v-.956h2.486v1.148q0,1.626,1.363,1.626a1.278,1.278,0,0,0,1.015-.4,1.911,1.911,0,0,0,.347-1.279,3.546,3.546,0,0,0-.478-1.853,8.872,8.872,0,0,0-1.769-1.924,10.606,10.606,0,0,1-2.272-2.594,5.3,5.3,0,0,1-.644-2.617,4.361,4.361,0,0,1,1-3.073,3.769,3.769,0,0,1,2.916-1.087,3.625,3.625,0,0,1,2.857,1.087,4.545,4.545,0,0,1,.968,3.121v.692h-2.486v-.86a1.921,1.921,0,0,0-.335-1.255,1.214,1.214,0,0,0-.98-.4q-1.315,0-1.315,1.6a3.162,3.162,0,0,0,.49,1.7,9.384,9.384,0,0,0,1.781,1.913,9.851,9.851,0,0,1,2.272,2.606,5.786,5.786,0,0,1,.621,2.749,4.489,4.489,0,0,1-1.016,3.156,3.822,3.822,0,0,1-2.953,1.1A3.694,3.694,0,0,1,3075.561,612.688Z"/>
        <path id="Trazado_62101" data-name="Trazado 62101" d="M3087.753,596.8h4.016a3.827,3.827,0,0,1,2.94,1.052,4.37,4.37,0,0,1,.98,3.084V609.4a4.37,4.37,0,0,1-.98,3.084,3.827,3.827,0,0,1-2.94,1.052h-4.016Zm3.968,14.344a1.267,1.267,0,0,0,.992-.383,1.823,1.823,0,0,0,.347-1.243v-8.7a1.822,1.822,0,0,0-.347-1.242,1.271,1.271,0,0,0-.992-.383h-1.338v11.954Z"/>
        <path id="Trazado_62102" data-name="Trazado 62102" d="M3097.459,596.8h7.172v2.39h-4.542v4.423h3.609v2.391h-3.609v5.14h4.542v2.39h-7.172Z"/>
        <path id="Trazado_62103" data-name="Trazado 62103" d="M3003.808,636.606a4.307,4.307,0,0,1-.993-3.036v-8.988a4.31,4.31,0,0,1,.993-3.036,4.393,4.393,0,0,1,5.761,0,4.316,4.316,0,0,1,.993,3.036v1.769h-2.487v-1.937q0-1.552-1.314-1.554t-1.316,1.554v9.348q0,1.53,1.316,1.53t1.314-1.53V631.2h2.487v2.366a4.313,4.313,0,0,1-.993,3.036,4.391,4.391,0,0,1-5.761,0Z"/>
        <path id="Trazado_62104" data-name="Trazado 62104" d="M3014.172,620.709h3.561l2.726,16.734h-2.63l-.478-3.323v.048h-2.989l-.477,3.275h-2.439Zm2.868,11.188-1.171-8.272h-.048l-1.147,8.272Z"/>
        <path id="Trazado_62105" data-name="Trazado 62105" d="M3021.726,620.709h4.015a3.832,3.832,0,0,1,2.941,1.052,4.37,4.37,0,0,1,.98,3.084v8.463a4.373,4.373,0,0,1-.98,3.084,3.832,3.832,0,0,1-2.941,1.051h-4.015Zm3.967,14.344a1.268,1.268,0,0,0,.993-.383,1.825,1.825,0,0,0,.346-1.243v-8.7a1.825,1.825,0,0,0-.346-1.243,1.275,1.275,0,0,0-.993-.382h-1.338v11.953Z"/>
        <path id="Trazado_62106" data-name="Trazado 62106" d="M3033.416,620.709h3.562l2.725,16.734h-2.63l-.478-3.323v.048h-2.989l-.477,3.275h-2.439Zm2.868,11.188-1.171-8.272h-.048l-1.147,8.272Z"/>
        <path id="Trazado_62107" data-name="Trazado 62107" d="M3044.795,620.709h3.872a3.832,3.832,0,0,1,2.941,1.052,4.365,4.365,0,0,1,.98,3.084v1.649a4.365,4.365,0,0,1-.98,3.084,3.832,3.832,0,0,1-2.941,1.052h-1.242v6.813h-2.63Zm3.872,7.53a1.238,1.238,0,0,0,.969-.358,1.82,1.82,0,0,0,.322-1.22v-1.983a1.82,1.82,0,0,0-.322-1.22,1.238,1.238,0,0,0-.969-.358h-1.242v5.139Z"/>
        <path id="Trazado_62108" data-name="Trazado 62108" d="M3054.022,620.709h3.9a3.361,3.361,0,0,1,3.9,3.849v1.028q0,2.605-1.72,3.3v.048a2.053,2.053,0,0,1,1.35,1.171,5.9,5.9,0,0,1,.4,2.367v2.94a10.91,10.91,0,0,0,.048,1.159,2.866,2.866,0,0,0,.239.873h-2.678a3.81,3.81,0,0,1-.191-.764,11.481,11.481,0,0,1-.048-1.291v-3.061a2.6,2.6,0,0,0-.371-1.6,1.566,1.566,0,0,0-1.278-.455h-.909v7.172h-2.63Zm3.586,7.172a1.585,1.585,0,0,0,1.184-.406,1.925,1.925,0,0,0,.394-1.364V624.82a2.125,2.125,0,0,0-.323-1.314,1.217,1.217,0,0,0-1.015-.406h-1.2v4.781Z"/>
        <path id="Trazado_62109" data-name="Trazado 62109" d="M3063.656,620.709h7.172V623.1h-4.542v4.422h3.61v2.391h-3.61v5.14h4.542v2.39h-7.172Z"/>
        <path id="Trazado_62110" data-name="Trazado 62110" d="M3072.334,620.709h3.3l2.557,10.017h.048V620.709h2.343v16.734h-2.7l-3.155-12.215h-.048v12.215h-2.343Z"/>
        <path id="Trazado_62111" data-name="Trazado 62111" d="M3082.542,620.709h4.016a3.83,3.83,0,0,1,2.94,1.052,4.371,4.371,0,0,1,.981,3.084v8.463a4.374,4.374,0,0,1-.981,3.084,3.83,3.83,0,0,1-2.94,1.051h-4.016Zm3.968,14.344a1.267,1.267,0,0,0,.992-.383,1.825,1.825,0,0,0,.347-1.243v-8.7a1.825,1.825,0,0,0-.347-1.243,1.274,1.274,0,0,0-.992-.382h-1.338v11.953Z"/>
        <path id="Trazado_62112" data-name="Trazado 62112" d="M3094.232,620.709h3.562l2.726,16.734h-2.63l-.479-3.323v.048h-2.988l-.478,3.275h-2.438ZM3097.1,631.9l-1.171-8.272h-.048l-1.148,8.272Z"/>
      </g>
      <rect id="Rect치ngulo_6291" data-name="Rect치ngulo 6291" width="144.314" height="42.025" transform="translate(2979.047 523.947)"/>
      <g id="Grupo_38826" data-name="Grupo 38826">
        <path id="Trazado_62113" data-name="Trazado 62113" d="M2989.058,529.946h6.793q3.541,0,5.168,1.646a6.955,6.955,0,0,1,1.625,5.063v1.793q0,4.543-3,5.751v.083a3.585,3.585,0,0,1,2.354,2.042,10.3,10.3,0,0,1,.688,4.126v5.127a19.452,19.452,0,0,0,.083,2.021,5.027,5.027,0,0,0,.417,1.521h-4.668a6.677,6.677,0,0,1-.333-1.334,19.928,19.928,0,0,1-.083-2.25V550.2a4.527,4.527,0,0,0-.647-2.792,2.736,2.736,0,0,0-2.229-.792h-1.584v12.5h-4.584Zm6.251,12.5a2.749,2.749,0,0,0,2.063-.708,3.348,3.348,0,0,0,.688-2.376v-2.25a3.705,3.705,0,0,0-.563-2.292,2.127,2.127,0,0,0-1.771-.709h-2.084v8.335Z" fill="#f8bf14"/>
        <path id="Trazado_62114" data-name="Trazado 62114" d="M3005.854,529.946h12.5v4.167h-7.918v7.71h6.292v4.168h-6.292v8.96h7.918v4.168h-12.5Z" fill="#f8bf14"/>
        <path id="Trazado_62115" data-name="Trazado 62115" d="M3022.419,557.66a7.52,7.52,0,0,1-1.73-5.293V536.7a7.524,7.524,0,0,1,1.73-5.293,7.663,7.663,0,0,1,10.044,0,7.527,7.527,0,0,1,1.729,5.293v3.084h-4.334v-3.376q0-2.708-2.292-2.709t-2.293,2.709v16.3q0,2.667,2.293,2.667t2.292-2.667v-4.46h4.334v4.126a7.523,7.523,0,0,1-1.729,5.293,7.66,7.66,0,0,1-10.044,0Z" fill="#f8bf14"/>
        <path id="Trazado_62116" data-name="Trazado 62116" d="M3038.526,557.64a7.734,7.734,0,0,1-1.75-5.439V529.946h4.584v22.588a3.177,3.177,0,0,0,.6,2.167,2.576,2.576,0,0,0,3.459,0,3.184,3.184,0,0,0,.6-2.167V529.946h4.418V552.2a7.734,7.734,0,0,1-1.751,5.439,7.766,7.766,0,0,1-10.169,0Z" fill="#f8bf14"/>
        <path id="Trazado_62117" data-name="Trazado 62117" d="M3053.7,529.946h12.5v4.167h-7.919v7.71h6.293v4.168h-6.293v8.96h7.919v4.168h-12.5Z" fill="#f8bf14"/>
        <path id="Trazado_62118" data-name="Trazado 62118" d="M3068.824,529.946h6.793q3.543,0,5.168,1.646a6.955,6.955,0,0,1,1.625,5.063v1.793q0,4.543-3,5.751v.083a3.584,3.584,0,0,1,2.355,2.042,10.3,10.3,0,0,1,.687,4.126v5.127a19.521,19.521,0,0,0,.083,2.021,5.07,5.07,0,0,0,.417,1.521h-4.668a6.761,6.761,0,0,1-.333-1.334,20.233,20.233,0,0,1-.083-2.25V550.2a4.533,4.533,0,0,0-.646-2.792,2.736,2.736,0,0,0-2.23-.792h-1.584v12.5h-4.584Zm6.251,12.5a2.752,2.752,0,0,0,2.064-.708,3.348,3.348,0,0,0,.687-2.376v-2.25a3.706,3.706,0,0,0-.562-2.292,2.127,2.127,0,0,0-1.772-.709h-2.084v8.335Z" fill="#f8bf14"/>
        <path id="Trazado_62119" data-name="Trazado 62119" d="M3085.62,529.946h7a6.686,6.686,0,0,1,5.127,1.833,7.623,7.623,0,0,1,1.708,5.377v14.753a7.615,7.615,0,0,1-1.708,5.376,6.675,6.675,0,0,1-5.127,1.834h-7Zm6.918,25.005a2.219,2.219,0,0,0,1.73-.666,3.187,3.187,0,0,0,.6-2.168v-15.17a3.187,3.187,0,0,0-.6-2.167,2.22,2.22,0,0,0-1.73-.667H3090.2v20.838Z" fill="#f8bf14"/>
        <path id="Trazado_62120" data-name="Trazado 62120" d="M3102.54,529.946h12.5v4.167h-7.919v7.71h6.293v4.168h-6.293v8.96h7.919v4.168h-12.5Z" fill="#f8bf14"/>
      </g>
    </g>
  </g>
</svg>
