<svg xmlns="http://www.w3.org/2000/svg" width="131.717" height="108.946" viewBox="0 0 131.717 108.946">
  <g id="Grupo_1068239" data-name="Grupo 1068239" transform="translate(-212.283 -6775)">
    <g id="Grupo_38945" data-name="Grupo 38945" transform="translate(-6793 4796.095)">
      <circle id="Elipse_1792" data-name="Elipse 1792" cx="53" cy="53" r="53" transform="translate(7031 1978.905)" fill="#ffd54f"/>
      <g id="Grupo_38887" data-name="Grupo 38887" transform="translate(7005.283 1979)">
        <path id="Trazado_67723" data-name="Trazado 67723" d="M255.816,236.064a25.176,25.176,0,0,1,35.357,20.169A1.978,1.978,0,0,0,293.135,258a1.906,1.906,0,0,0,.218-.012,1.979,1.979,0,0,0,1.75-2.181,29.129,29.129,0,0,0-40.916-23.342,1.977,1.977,0,1,0,1.628,3.6Zm0,0" transform="translate(-201.007 -229.89)" fill="#673ab7"/>
        <path id="Trazado_67725" data-name="Trazado 67725" d="M296.619,274.116a6.273,6.273,0,1,0,4.435,1.838,6.226,6.226,0,0,0-4.435-1.838Zm2.319,6.273a2.318,2.318,0,1,1-2.319-2.319,2.318,2.318,0,0,1,2.319,2.319Zm0,0" transform="translate(-225.215 -258.574)" fill="#673ab7"/>
        <path id="Trazado_67726" data-name="Trazado 67726" d="M181.774,299.363a29.341,29.341,0,0,0,16.791-20.3,1.977,1.977,0,1,0-3.859-.865,25.358,25.358,0,0,1-14.467,17.522,39.8,39.8,0,0,0-11.34-14.067,6.27,6.27,0,1,0-10.853-6.021,39.388,39.388,0,0,0-13.035-2.36c0-.2-.014-.4-.014-.607a24.926,24.926,0,0,1,7.892-18.3,1.977,1.977,0,1,0-2.715-2.876,28.846,28.846,0,0,0-9.131,21.173c0,.252,0,.5.011.759A39.621,39.621,0,0,0,105,312.834a39.2,39.2,0,0,0,8.113,24.007,1.977,1.977,0,1,0,3.141-2.4,35.294,35.294,0,0,1-7.3-21.605,35.614,35.614,0,1,1,35.614,35.614,35.227,35.227,0,0,1-22.237-7.793,1.977,1.977,0,1,0-2.471,3.087,39.57,39.57,0,0,0,61.913-44.378Zm-19.5-23.144a2.317,2.317,0,0,1,3.392,3.153,39.671,39.671,0,0,0-3.964-2.2,2.3,2.3,0,0,1,.572-.95Zm0,0" transform="translate(-105 -243.551)" fill="#673ab7"/>
        <path id="Trazado_67727" data-name="Trazado 67727" d="M166.066,403.434a27.921,27.921,0,1,0-27.921-27.921,27.951,27.951,0,0,0,27.921,27.921Zm0-51.887A23.966,23.966,0,1,1,142.1,375.514a23.993,23.993,0,0,1,23.966-23.966Zm0,0" transform="translate(-126.497 -306.231)" fill="#673ab7"/>
        <path id="Trazado_67728" data-name="Trazado 67728" d="M179.163,445.64a6.5,6.5,0,1,0-6.5-6.5,6.5,6.5,0,0,0,6.5,6.5Zm0-9.038a2.541,2.541,0,1,1-2.541,2.542,2.545,2.545,0,0,1,2.541-2.542Zm0,0" transform="translate(-148.889 -361.396)" fill="#673ab7"/>
        <path id="Trazado_67729" data-name="Trazado 67729" d="M232.054,445.64a6.5,6.5,0,1,0-6.5-6.5,6.5,6.5,0,0,0,6.5,6.5Zm0-9.038a2.541,2.541,0,1,1-2.541,2.542,2.545,2.545,0,0,1,2.541-2.542Zm0,0" transform="translate(-183.193 -361.396)" fill="#673ab7"/>
        <path id="Trazado_67730" data-name="Trazado 67730" d="M179.163,397.465a6.5,6.5,0,1,0-6.5-6.5,6.5,6.5,0,0,0,6.5,6.5Zm0-9.038a2.542,2.542,0,1,1-2.541,2.541,2.544,2.544,0,0,1,2.541-2.541Zm0,0" transform="translate(-148.889 -330.15)" fill="#673ab7"/>
        <path id="Trazado_67731" data-name="Trazado 67731" d="M232.054,397.465a6.5,6.5,0,1,0-6.5-6.5,6.5,6.5,0,0,0,6.5,6.5Zm0-9.038a2.542,2.542,0,1,1-2.541,2.541,2.544,2.544,0,0,1,2.541-2.541Zm0,0" transform="translate(-183.193 -330.15)" fill="#673ab7"/>
      </g>
    </g>
  </g>
</svg>
