<svg xmlns="http://www.w3.org/2000/svg" width="143.884" height="86" viewBox="0 0 143.884 86">
  <g id="Grupo_38829" data-name="Grupo 38829" transform="translate(-231 -1642.101)">
    <circle id="Elipse_1792" data-name="Elipse 1792" cx="43" cy="43" r="43" transform="translate(288.884 1642.102)" fill="#ffd54f"/>
    <g id="Grupo_38828" data-name="Grupo 38828" transform="translate(231 1665.086)">
      <path id="Trazado_67678" data-name="Trazado 67678" d="M216.246,354.89h-12.77a1.671,1.671,0,0,0,0,3.341h1.068V378a1.671,1.671,0,0,0,3.342,0V358.231h8.249V391.01H135.714a9.265,9.265,0,0,0-1.564-8.428,17.847,17.847,0,0,0,1.971-7.391,16.986,16.986,0,0,0-1.988-7.318,9.338,9.338,0,0,0,1.142-9.642h12.634V378a1.671,1.671,0,1,0,3.341,0V358.231h10.943v5.1a1.67,1.67,0,1,0,3.341,0v-5.1h10.693V378a1.67,1.67,0,1,0,3.341,0V358.231H190.51v5.1a1.671,1.671,0,0,0,3.342,0v-5.1h1.433a1.671,1.671,0,0,0,0-3.341H108.23A3.232,3.232,0,0,0,105,358.12v33a3.233,3.233,0,0,0,3.23,3.229H123.6a1.671,1.671,0,1,0,0-3.341H108.341V358.232h23a5.978,5.978,0,0,1,.068,7.7,2.979,2.979,0,0,0-.335,3.3,14.063,14.063,0,0,1,1.706,5.958,14.693,14.693,0,0,1-1.706,6.069,2.982,2.982,0,0,0,.345,3.255,5.98,5.98,0,0,1,1.359,3.956,5.889,5.889,0,0,1-.653,2.539H131.8a1.67,1.67,0,1,0,0,3.341h84.444a3.233,3.233,0,0,0,3.23-3.23v-33a3.233,3.233,0,0,0-3.23-3.229Zm0,0" transform="translate(-105 -354.89)" fill="#673ab7"/>
      <path id="Trazado_67679" data-name="Trazado 67679" d="M137.285,393.881v9.57a4.733,4.733,0,0,0,9.466,0v-9.57a4.733,4.733,0,0,0-9.466,0Zm6.124,0v9.57a1.392,1.392,0,1,1-2.783,0v-9.57a1.392,1.392,0,0,1,2.783,0Zm0,0" transform="translate(-127.66 -378.935)" fill="#673ab7"/>
      <path id="Trazado_67680" data-name="Trazado 67680" d="M296.435,422.522a1.67,1.67,0,0,0,1.671-1.67v-11.49a1.671,1.671,0,0,0-1.671-1.671h-2.456a1.671,1.671,0,0,0,0,3.342h.786v9.819a1.67,1.67,0,0,0,1.67,1.67Zm0,0" transform="translate(-236.469 -391.95)" fill="#673ab7"/>
      <path id="Trazado_67681" data-name="Trazado 67681" d="M387.161,413.72c-1.815,2.594-2.9,4.013-3.481,4.775-.75.982-1.163,1.523-.885,2.425a1.737,1.737,0,0,0,1.116,1.134,9.1,9.1,0,0,0,2.669.134c.885,0,2.088-.009,3.736-.03a1.671,1.671,0,1,0-.042-3.341c-.891.012-1.826.02-2.674.023.591-.8,1.347-1.845,2.3-3.2a7.5,7.5,0,0,0,1.58-3.9,4.611,4.611,0,0,0-9.135-.892,1.671,1.671,0,0,0,3.279.644,1.27,1.27,0,0,1,2.512.164,4.71,4.71,0,0,1-.974,2.065Zm0,0" transform="translate(-299.64 -391.556)" fill="#673ab7"/>
    </g>
  </g>
</svg>
