<svg xmlns="http://www.w3.org/2000/svg" width="66.555" height="71.729" viewBox="0 0 66.555 71.729">
  <g id="gallery" transform="translate(-18.47)">
    <g id="Grupo_1068159" data-name="Grupo 1068159" transform="translate(19.521 1.051)">
      <path id="Trazado_771802" data-name="Trazado 771802" d="M54.366,7.5H51.189a2.382,2.382,0,0,0-2.382,2.382V48.414A2.382,2.382,0,0,0,51.189,50.8H89.721A2.382,2.382,0,0,0,92.1,48.414V9.882H55.559Z" transform="translate(-45.608 -7.5)" fill="#f47c7c"/>
      <path id="Trazado_771803" data-name="Trazado 771803" d="M78.617,9.2,77.444,7.5H73.869a2.382,2.382,0,0,0-2.382,2.382V48.414A2.382,2.382,0,0,0,73.869,50.8h35.354a2.382,2.382,0,0,0,2.382-2.382V9.882a2.378,2.378,0,0,0-.1-.678H78.617Z" transform="translate(-65.11 -7.5)" fill="#ee6161"/>
      <path id="Trazado_771804" data-name="Trazado 771804" d="M134.341,50.8a2.379,2.379,0,0,0,2.054-1.18h1.8V8.551h-1.874A2.379,2.379,0,0,0,134.341,7.5H99.384A2.382,2.382,0,0,0,97,9.882V48.414A2.382,2.382,0,0,0,99.384,50.8c41.392,0,38.786.079,39.405-.165-.544.215-.528.165-4.448.165Z" transform="translate(-87.051 -7.5)" fill="#60b7ff"/>
      <path id="Trazado_771805" data-name="Trazado 771805" d="M367.1,7.5h-3.575a2.382,2.382,0,0,1,2.382,2.382V48.414a2.382,2.382,0,0,1-2.382,2.382H367.1a2.382,2.382,0,0,0,2.382-2.382V9.882A2.382,2.382,0,0,0,367.1,7.5Z" transform="translate(-316.235 -7.5)" fill="#26a6fe"/>
      <path id="Trazado_771806" data-name="Trazado 771806" d="M189.06,48.88h-1.409a2.382,2.382,0,0,0-2.279-1.69H150.415a2.382,2.382,0,0,0-2.382,2.382V88.1a2.382,2.382,0,0,0,2.382,2.382h34.957a2.381,2.381,0,0,0,2.34-1.947h1.348V48.88Z" transform="translate(-130.932 -41.63)" fill="#eaf6ff"/>
      <path id="Trazado_771807" data-name="Trazado 771807" d="M418.131,47.19h-3.575a2.382,2.382,0,0,1,2.382,2.382V88.1a2.382,2.382,0,0,1-2.382,2.382h3.575a2.382,2.382,0,0,0,2.382-2.382V49.572a2.382,2.382,0,0,0-2.382-2.382Z" transform="translate(-360.116 -41.63)" fill="#d8ecfe"/>
      <path id="Trazado_771808" data-name="Trazado 771808" d="M185.037,116.141V85.176a.981.981,0,0,1,.981-.981h30.965a.981.981,0,0,1,.981.981v30.966a.981.981,0,0,1-.981.981H186.018A.981.981,0,0,1,185.037,116.141Z" transform="translate(-162.752 -73.45)" fill="#c4e2ff"/>
      <path id="Trazado_771809" data-name="Trazado 771809" d="M276.4,184.223h21.45l-9.056-15a1.949,1.949,0,0,0-3.338,0Z" transform="translate(-241.316 -145.758)" fill="#82aee3"/>
      <circle id="Elipse_4842" data-name="Elipse 4842" cx="2.569" cy="2.569" r="2.569" transform="translate(38.468 14.388)" fill="#fdb441"/>
      <path id="Trazado_771810" data-name="Trazado 771810" d="M166.8,162.95h25.636l-11.149-18.464a1.949,1.949,0,0,0-3.338,0Z" transform="translate(-147.068 -124.485)" fill="#82aee3"/>
      <path id="Trazado_771811" data-name="Trazado 771811" d="M86.054,206.351a2.8,2.8,0,0,0-2.8-2.826h-35.6l-3.189-5.814H42.231a2.1,2.1,0,0,0-1.865-1.133H28.072a2.1,2.1,0,0,0-2.1,2.1v38.235a2.8,2.8,0,0,0,2.8,2.8h54.48a2.8,2.8,0,0,0,2.794-2.638h2.645V206.351H86.054Z" transform="translate(-25.97 -170.09)" fill="#fdb441"/>
      <g id="Grupo_1068158" data-name="Grupo 1068158" transform="translate(14.396 26.489)">
        <path id="Trazado_771812" data-name="Trazado 771812" d="M130.588,197.705l3.045,5.819H138l-3.045-5.819a2.1,2.1,0,0,0-1.862-1.127h-4.369A2.1,2.1,0,0,1,130.588,197.705Z" transform="translate(-128.726 -196.578)" fill="#fea613"/>
        <path id="Trazado_771813" data-name="Trazado 771813" d="M439.211,246.164h-4.369a2.8,2.8,0,0,1,2.8,2.8v30.587a2.8,2.8,0,0,1-2.8,2.8h4.369a2.8,2.8,0,0,0,2.8-2.8V248.966A2.8,2.8,0,0,0,439.211,246.164Z" transform="translate(-391.956 -239.217)" fill="#fea613"/>
      </g>
    </g>
    <g id="Grupo_1068160" data-name="Grupo 1068160" transform="translate(18.47 0)">
      <path id="Trazado_771814" data-name="Trazado 771814" d="M296.672,109.941a3.619,3.619,0,1,0-3.62-3.62A3.624,3.624,0,0,0,296.672,109.941Zm0-5.138a1.518,1.518,0,1,1-1.518,1.518A1.52,1.52,0,0,1,296.672,104.8Z" transform="translate(-254.584 -88.314)"/>
      <path id="Trazado_771815" data-name="Trazado 771815" d="M81.171,33.436h-.2v-5.9a1.051,1.051,0,1,0-2.1,0v5.9H75.783V12.776a2.034,2.034,0,0,0-2.032-2.031H42.787a2.034,2.034,0,0,0-2.032,2.031V27.684a3.141,3.141,0,0,0-2.469-1.194h-.613V8.993A1.333,1.333,0,0,1,39,7.662H77.535a1.333,1.333,0,0,1,1.331,1.331V22.628a1.051,1.051,0,0,0,2.1,0V8.993A3.437,3.437,0,0,0,77.535,5.56H73.819V3.433A3.437,3.437,0,0,0,70.386,0H25.1a3.437,3.437,0,0,0-3.433,3.433V26.489h-.047a3.156,3.156,0,0,0-3.152,3.152V47.187a1.051,1.051,0,1,0,2.1,0V29.642a1.052,1.052,0,0,1,1.051-1.051H38.285a1.048,1.048,0,0,1,.931.564l3.045,5.819a1.051,1.051,0,0,0,.931.564H81.172a1.754,1.754,0,0,1,1.752,1.751V67.877a1.754,1.754,0,0,1-1.752,1.751H22.323a1.754,1.754,0,0,1-1.752-1.751V52.093a1.051,1.051,0,1,0-2.1,0V67.877a3.857,3.857,0,0,0,3.853,3.853H81.172a3.857,3.857,0,0,0,3.853-3.853V37.289A3.858,3.858,0,0,0,81.171,33.436Zm-57.4-30A1.333,1.333,0,0,1,25.1,2.1H28.69a3.449,3.449,0,0,0-.269,1.331V26.489H23.771Zm6.752,0A1.333,1.333,0,0,1,31.854,2.1H70.386a1.333,1.333,0,0,1,1.331,1.331V5.56H39a3.437,3.437,0,0,0-3.433,3.433v17.5H30.523V3.433Zm43.159,9.414v20.59h-.07L67.9,23.974a3,3,0,0,0-5.137,0l-3.017,5-5.109-8.461a3,3,0,0,0-5.137,0l-6.643,11V12.846ZM51.3,21.595a.9.9,0,0,1,1.539,0l7.15,11.841H44.149ZM62.442,33.436,60.973,31l3.588-5.942a.9.9,0,0,1,1.539,0l5.057,8.375Z" transform="translate(-18.47 0)"/>
    </g>
  </g>
</svg>
