<svg xmlns="http://www.w3.org/2000/svg" width="93" height="93" viewBox="0 0 93 93">
  <g id="Grupo_1068242" data-name="Grupo 1068242" transform="translate(-333 -3765)">
    <circle id="Elipse_4855" data-name="Elipse 4855" cx="46.5" cy="46.5" r="46.5" transform="translate(333 3765)" fill="#ffd54f"/>
    <g id="diet_1_" data-name="diet (1)" transform="translate(345.511 3775.328)">
      <path id="Trazado_771908" data-name="Trazado 771908" d="M67.412,25.667a22.245,22.245,0,0,0-5.556-3.346,26.929,26.929,0,0,0-5.508-1.676,27.937,27.937,0,0,0-3.383-.467V11.652a1.059,1.059,0,0,0-1.059-1.059,34.569,34.569,0,0,1,2.642-9.127A1.041,1.041,0,0,0,53.975.081a1.059,1.059,0,0,0-1.384.572,49.887,49.887,0,0,0-2.943,9.94H18.156c-.06-.318-.113-.646-.181-.969A50.061,50.061,0,0,0,15.205.652a1.059,1.059,0,0,0-1.955.816,33.625,33.625,0,0,1,2.64,9.126,1.059,1.059,0,0,0-1.059,1.059v8.525a27.9,27.9,0,0,0-3.377.465,26.97,26.97,0,0,0-5.508,1.676A22.245,22.245,0,0,0,.382,25.667,1.059,1.059,0,0,0,0,26.482v9.534a1.073,1.073,0,0,0,.7.995,1,1,0,0,0,1.174-.318,18.923,18.923,0,0,1,10.783-5.809,36,36,0,0,0-3.531,7.374A31.551,31.551,0,0,0,7.415,48.41,31.982,31.982,0,0,0,10.25,61.545l2.127,5.571a1.059,1.059,0,0,0,.989.682,1.078,1.078,0,0,0,.378-.069,1.059,1.059,0,0,0,.611-1.368L12.2,60.725A29.964,29.964,0,0,1,9.534,48.41,29.173,29.173,0,0,1,10.7,40.4l17.94,14.166.943,12.249a1.059,1.059,0,0,0,1.059.978h.083a1.059,1.059,0,0,0,.975-1.138L30.8,55.083h6.186L36.1,66.654a1.059,1.059,0,0,0,.975,1.141h.083a1.059,1.059,0,0,0,1.059-.978l.943-12.249L57.1,40.4a29.173,29.173,0,0,1,1.165,8.007,30.084,30.084,0,0,1-2.695,12.377l-2.127,5.572a1.059,1.059,0,0,0,.611,1.368,1.078,1.078,0,0,0,.378.069,1.059,1.059,0,0,0,.989-.682l2.1-5.508A32.087,32.087,0,0,0,60.38,48.41a31.551,31.551,0,0,0-1.709-10.149,32.561,32.561,0,0,0-3.578-7.38A18.906,18.906,0,0,1,65.923,36.7c.206.245.715.621,1.146.414a1.183,1.183,0,0,0,.726-1.094V26.482A1.059,1.059,0,0,0,67.412,25.667Zm-29.645,27.3H30.028L11.377,38.241a30.812,30.812,0,0,1,3.583-7.007c1.989,1.6,7.372,4.783,18.938,4.783,11.473,0,16.864-3.125,18.89-4.748A30.949,30.949,0,0,1,56.4,38.251ZM33.9,33.9c-11.166,0-16.093-3.086-17.654-4.361A11.778,11.778,0,0,0,19,22.245H40.253a1.059,1.059,0,0,0,0-2.119h-23.3V12.712h7.415v3.178a1.059,1.059,0,0,0,2.119,0V12.712h6.356v3.178a1.059,1.059,0,1,0,2.119,0V12.712h6.356v3.178a1.059,1.059,0,1,0,2.119,0V12.712h7.415v7.415h-5.3a1.059,1.059,0,1,0,0,2.119H48.8a11.787,11.787,0,0,0,2.754,7.291C49.991,30.811,45.068,33.9,33.9,33.9ZM2.119,33.5V26.989A19.767,19.767,0,0,1,5.3,24.965v1.517a1.059,1.059,0,0,0,2.119,0V24.013A24.743,24.743,0,0,1,10.593,23v1.364a1.059,1.059,0,0,0,2.119,0v-1.8a22.056,22.056,0,0,1,3.178-.318h.982a10.046,10.046,0,0,1-2.585,6.372A19.886,19.886,0,0,0,2.119,33.5Zm63.558,0a19.886,19.886,0,0,0-12.169-4.885,10.046,10.046,0,0,1-2.585-6.372h.983a22.081,22.081,0,0,1,3.178.318v1.8a1.059,1.059,0,1,0,2.119,0V23a24.792,24.792,0,0,1,3.178,1.015v2.468a1.059,1.059,0,1,0,2.119,0V24.965a19.668,19.668,0,0,1,3.178,2.023Z" transform="translate(0 0)" fill="#673ab7"/>
      <path id="Trazado_771909" data-name="Trazado 771909" d="M32.059,23A1.059,1.059,0,0,0,31,24.059v3.178a1.059,1.059,0,1,0,2.119,0V24.059A1.059,1.059,0,0,0,32.059,23Z" transform="translate(1.838 1.364)" fill="#673ab7"/>
    </g>
  </g>
</svg>
