<svg xmlns="http://www.w3.org/2000/svg" width="93" height="93" viewBox="0 0 93 93">
  <g id="Grupo_1068241" data-name="Grupo 1068241" transform="translate(-754 -3765)">
    <circle id="Elipse_4856" data-name="Elipse 4856" cx="46.5" cy="46.5" r="46.5" transform="translate(754 3765)" fill="#ffd54f"/>
    <g id="size" transform="translate(761.658 3769.191)">
      <g id="Grupo_1068186" data-name="Grupo 1068186" transform="translate(5 5)">
        <path id="Trazado_771895" data-name="Trazado 771895" d="M52.553,61.517H50a23.641,23.641,0,0,1,.511-2.936c.383-1.915,1.021-4.723,1.532-8.681l2.553.255c-.511,4.085-1.149,7.021-1.532,8.936A8.892,8.892,0,0,0,52.553,61.517Z" transform="translate(7.445 7.418)" fill="#673ab7"/>
        <path id="Trazado_771896" data-name="Trazado 771896" d="M56.489,54.658l-2.553-.128V50.956c0-4.6-3.064-12.893-5.489-19.531C46.277,25.68,45,22.106,45,20.319a52.687,52.687,0,0,1,.638-7.149A62.813,62.813,0,0,0,46.4,5h2.553a68.555,68.555,0,0,1-.766,8.553c-.255,2.553-.638,4.979-.638,6.766,0,1.4,1.66,5.872,3.191,10.213,2.681,7.149,5.745,15.319,5.745,20.425Z" transform="translate(6.063 -5)" fill="#673ab7"/>
        <path id="Trazado_771897" data-name="Trazado 771897" d="M14.968,61.489H12.415a11.768,11.768,0,0,0-.383-2.3c-.383-1.915-1.021-4.851-1.532-8.936L13.053,50c.511,3.957,1.021,6.766,1.4,8.681A10.049,10.049,0,0,1,14.968,61.489Z" transform="translate(-3.479 7.445)" fill="#673ab7"/>
        <path id="Trazado_771898" data-name="Trazado 771898" d="M10.128,54.914c0-1.277-.128-2.553-.128-3.957,0-5.106,3.064-13.276,5.745-20.425,1.532-4.34,3.191-8.681,3.191-10.213a47.707,47.707,0,0,0-.638-6.766A68.555,68.555,0,0,1,17.532,5h2.553a62.813,62.813,0,0,0,.766,8.17,51,51,0,0,1,.638,7.149c0,1.787-1.277,5.362-3.447,11.106-2.425,6.638-5.489,14.936-5.489,19.531v3.83Z" transform="translate(-3.617 -5)" fill="#673ab7"/>
        <path id="Trazado_771899" data-name="Trazado 771899" d="M35.853,60.853H33.3c0-3.447,0-6.128.128-8.553l2.553.128C35.853,54.725,35.853,57.534,35.853,60.853Z" transform="translate(2.827 8.081)" fill="#673ab7"/>
        <path id="Trazado_771900" data-name="Trazado 771900" d="M31.281,60.853H28.728c0-3.319,0-6.128-.128-8.425l2.553-.128C31.281,54.725,31.281,57.534,31.281,60.853Z" transform="translate(1.527 8.081)" fill="#673ab7"/>
        <path id="Trazado_771901" data-name="Trazado 771901" d="M36.353,51.744,33.8,51.361A13.108,13.108,0,0,1,34.821,47.4a.125.125,0,0,1,.128-.128C39.545,39.872,48.1,34.894,57.672,34l.255,2.553c-8.808.766-16.6,5.362-20.808,12A11.6,11.6,0,0,0,36.353,51.744Z" transform="translate(2.965 3.02)" fill="#673ab7"/>
        <path id="Trazado_771902" data-name="Trazado 771902" d="M32.874,51.744a14.339,14.339,0,0,0-.766-3.191c-4.213-6.766-12-11.234-20.808-12L11.555,34c9.7.894,18.127,5.872,22.723,13.276l.128.128a13.107,13.107,0,0,1,1.021,3.957Z" transform="translate(-3.258 3.02)" fill="#673ab7"/>
        <path id="Trazado_771903" data-name="Trazado 771903" d="M54.986,10.957A85.038,85.038,0,0,1,44.9,10.191c-3.064-.255-6-.638-8.808-.638s-5.745.383-8.808.638a85.038,85.038,0,0,1-10.085.766V8.4a82.785,82.785,0,0,0,9.83-.766C30.093,7.383,33.157,7,36.093,7s6,.383,9.064.638a82.785,82.785,0,0,0,9.83.766Z" transform="translate(-1.626 -4.447)" fill="#673ab7"/>
        <path id="Trazado_771904" data-name="Trazado 771904" d="M37.172,35.355A77.426,77.426,0,0,1,13.3,31.525l.894-2.425a75.826,75.826,0,0,0,22.978,3.7A75.826,75.826,0,0,0,60.15,29.1l.894,2.425A77.426,77.426,0,0,1,37.172,35.355Z" transform="translate(-2.705 1.665)" fill="#673ab7"/>
        <path id="Trazado_771905" data-name="Trazado 771905" d="M39.467,54.291C16.872,54.291,5,49.057,5,43.951c0-1.787,1.149-3.319,3.447-4.723L9.723,41.4c-1.4.894-2.3,1.787-2.3,2.553,0,3.191,12.127,7.787,31.914,7.787s31.914-4.468,31.914-7.787c0-.766-.894-1.787-2.425-2.681L70.1,39.1c2.425,1.4,3.574,3.064,3.574,4.851C73.934,49.057,62.062,54.291,39.467,54.291Z" transform="translate(-5 4.431)" fill="#673ab7"/>
      </g>
      <path id="Trazado_771906" data-name="Trazado 771906" d="M24.936,46,16,49.191l7.659,5.745Z" transform="translate(3.042 11.339)" fill="#673ab7"/>
      <path id="Trazado_771907" data-name="Trazado 771907" d="M32.277,26.106A1.206,1.206,0,0,1,31,24.83c0-2.3.766-3.191,1.021-3.447a1.264,1.264,0,0,1,1.787,1.787,3.465,3.465,0,0,0-.383,1.66A1.056,1.056,0,0,1,32.277,26.106Z" transform="translate(7.191 4.425)" fill="#673ab7"/>
    </g>
  </g>
</svg>
