<svg xmlns="http://www.w3.org/2000/svg" width="113.729" height="68" viewBox="0 0 113.729 68">
  <g id="Grupo_1068227" data-name="Grupo 1068227" transform="translate(-211.5 -803)">
    <circle id="Elipse_1792" data-name="Elipse 1792" cx="34" cy="34" r="34" transform="translate(257.229 803)" fill="#ffd54f"/>
    <g id="Grupo_38828" data-name="Grupo 38828" transform="translate(211.5 821.192)">
      <path id="Trazado_67678" data-name="Trazado 67678" d="M192.932,354.89H182.838a1.32,1.32,0,0,0,0,2.641h.844v15.622a1.321,1.321,0,0,0,2.642,0V357.531h6.521V383.44H129.277a7.323,7.323,0,0,0-1.236-6.661,14.106,14.106,0,0,0,1.558-5.842,13.426,13.426,0,0,0-1.571-5.784,7.381,7.381,0,0,0,.9-7.621h9.986v15.622a1.32,1.32,0,1,0,2.641,0V357.531h8.65v4.031a1.32,1.32,0,1,0,2.641,0v-4.031H161.3v15.622a1.32,1.32,0,1,0,2.641,0V357.531h8.65v4.031a1.321,1.321,0,0,0,2.642,0v-4.031h1.133a1.32,1.32,0,0,0,0-2.641H107.553A2.555,2.555,0,0,0,105,357.443v26.084a2.556,2.556,0,0,0,2.553,2.552H119.7a1.32,1.32,0,1,0,0-2.641H107.641V357.532h18.18a4.725,4.725,0,0,1,.053,6.085,2.354,2.354,0,0,0-.265,2.611,11.116,11.116,0,0,1,1.349,4.709,11.614,11.614,0,0,1-1.349,4.8,2.357,2.357,0,0,0,.272,2.573,4.727,4.727,0,0,1,1.074,3.127,4.655,4.655,0,0,1-.517,2.007h-.254a1.32,1.32,0,1,0,0,2.641h66.746a2.556,2.556,0,0,0,2.553-2.553V357.442a2.556,2.556,0,0,0-2.553-2.552Zm0,0" transform="translate(-105 -354.89)" fill="#673ab7"/>
      <path id="Trazado_67679" data-name="Trazado 67679" d="M137.285,392.889v7.564a3.741,3.741,0,0,0,7.482,0v-7.564a3.741,3.741,0,0,0-7.482,0Zm4.841,0v7.564a1.1,1.1,0,1,1-2.2,0v-7.564a1.1,1.1,0,1,1,2.2,0Zm0,0" transform="translate(-129.677 -381.076)" fill="#673ab7"/>
      <path id="Trazado_67680" data-name="Trazado 67680" d="M295.57,419.414a1.32,1.32,0,0,0,1.321-1.32v-9.082a1.321,1.321,0,0,0-1.321-1.321h-1.941a1.321,1.321,0,0,0,0,2.642h.621v7.761a1.32,1.32,0,0,0,1.32,1.32Zm0,0" transform="translate(-248.172 -395.249)" fill="#673ab7"/>
      <path id="Trazado_67681" data-name="Trazado 67681" d="M386.145,412.339c-1.435,2.051-2.291,3.172-2.751,3.774-.593.776-.919,1.2-.7,1.917a1.373,1.373,0,0,0,.882.9,7.193,7.193,0,0,0,2.11.106c.7,0,1.65-.007,2.953-.024a1.321,1.321,0,1,0-.033-2.641c-.7.009-1.443.016-2.113.018.467-.632,1.065-1.458,1.817-2.533a5.929,5.929,0,0,0,1.249-3.08,3.645,3.645,0,0,0-7.221-.705,1.321,1.321,0,0,0,2.592.509,1,1,0,0,1,1.986.13,3.723,3.723,0,0,1-.77,1.632Zm0,0" transform="translate(-316.966 -394.819)" fill="#673ab7"/>
    </g>
  </g>
</svg>
