<svg xmlns="http://www.w3.org/2000/svg" width="261.322" height="282.5" viewBox="0 0 261.322 282.5">
  <g id="Grupo_38827" data-name="Grupo 38827" transform="translate(-2910.325 -422.063)">
    <path id="Trazado_62076" data-name="Trazado 62076" d="M2967.916,704.563a15.5,15.5,0,0,1-15.482-15.481V573.007l-34.2-19.542a15.72,15.72,0,0,1-6.278-20.607l35.6-71.821a18.536,18.536,0,0,1,6.719-7.446l43.838-27.666a24.922,24.922,0,0,1,25.239-.83c7.1,3.879,13.49,5.765,19.516,5.765a29.231,29.231,0,0,0,15.694-4.735,24.975,24.975,0,0,1,26.493.239l42.719,27.268a18.56,18.56,0,0,1,6.633,7.39l35.608,71.837a15.719,15.719,0,0,1-6.28,20.607l-34.2,19.543V689.082a15.5,15.5,0,0,1-15.481,15.481Z" fill="#f8bf14"/>
    <path id="Trazado_62077" data-name="Trazado 62077" d="M3162.487,537.719l-35.606-71.834a9.3,9.3,0,0,0-3.326-3.706l-42.719-27.269a15.732,15.732,0,0,0-16.654-.168c-13.59,8.408-28.149,8.153-44.505-.778a15.683,15.683,0,0,0-15.873.534l-7.367,4.65-.026.016-36.448,23a9.279,9.279,0,0,0-3.365,3.731L2921,537.719a6.464,6.464,0,0,0,2.581,8.474l38.857,22.2V689.836a6.243,6.243,0,0,0,6.237,6.237h146.14a6.244,6.244,0,0,0,6.237-6.237V648.2a3.9,3.9,0,0,0-7.8,0v40.069H2970.233V519.8a3.9,3.9,0,0,0-7.8,0v39.611l-33.889-19.365,35.038-70.689a1.491,1.491,0,0,1,.541-.6l31.68-19.994a47.647,47.647,0,0,0,9.261,17.714,3.9,3.9,0,0,0,6-4.981,39.778,39.778,0,0,1-8.313-17.118l5.211-3.289c.162-.1.328-.2.5-.287a33.616,33.616,0,0,0,66.582-.1,7.965,7.965,0,0,1,1.6.781l4.136,2.64a39.818,39.818,0,0,1-58.789,26.564,3.9,3.9,0,1,0-3.88,6.765,47.61,47.61,0,0,0,69.622-28.89l31.629,20.189a1.509,1.509,0,0,1,.534.6l35.045,70.7-33.889,19.365V519.8a3.9,3.9,0,0,0-7.8,0v112.8a3.9,3.9,0,0,0,7.8,0V568.4l38.857-22.2a6.465,6.465,0,0,0,2.581-8.474Zm-120.746-75.808a25.814,25.814,0,0,1-25.336-20.855c18.029,9.694,34.983,10.094,50.424,1.186A25.7,25.7,0,0,1,3041.741,461.911Z" transform="translate(-0.755 -0.755)" fill="#ffa000"/>
    <g id="Grupo_38825" data-name="Grupo 38825" transform="translate(2982.187 561.289)">
      <path id="Trazado_62078" data-name="Trazado 62078" d="M2990.6,575.106h-2.542V572.9h7.514v2.21h-2.542v13.261H2990.6Z" transform="translate(-2988.054 -572.674)"/>
      <path id="Trazado_62079" data-name="Trazado 62079" d="M2997.449,572.9h6.631v2.21h-4.2v4.089h3.336v2.211h-3.336v4.751h4.2v2.211h-6.631Z" transform="translate(-2988.763 -572.674)"/>
      <path id="Trazado_62080" data-name="Trazado 62080" d="M3006.127,572.9h3.05l2.364,9.26h.044V572.9h2.166v15.471h-2.5l-2.917-11.294h-.045v11.294h-2.166Z" transform="translate(-2989.418 -572.674)"/>
      <path id="Trazado_62081" data-name="Trazado 62081" d="M3016.335,572.9h6.631v2.21h-4.2v4.089h3.336v2.211h-3.336v4.751h4.2v2.211h-6.631Z" transform="translate(-2990.189 -572.674)"/>
      <path id="Trazado_62082" data-name="Trazado 62082" d="M3025.013,572.9h3.6a3.108,3.108,0,0,1,3.6,3.558v.95q0,2.41-1.591,3.05v.044a1.9,1.9,0,0,1,1.249,1.083,5.468,5.468,0,0,1,.364,2.187v2.719a10.358,10.358,0,0,0,.044,1.072,2.65,2.65,0,0,0,.221.807h-2.476a3.517,3.517,0,0,1-.177-.707,10.611,10.611,0,0,1-.044-1.194v-2.829a2.4,2.4,0,0,0-.343-1.481,1.448,1.448,0,0,0-1.182-.42h-.84v6.631h-2.431Zm3.315,6.63a1.459,1.459,0,0,0,1.094-.375,1.775,1.775,0,0,0,.364-1.26V576.7a1.972,1.972,0,0,0-.3-1.216,1.13,1.13,0,0,0-.939-.375h-1.1v4.42Z" transform="translate(-2990.844 -572.674)"/>
      <path id="Trazado_62083" data-name="Trazado 62083" d="M3038.472,572.9h6.631v2.21h-4.2v4.089h3.336v2.211H3040.9v4.751h4.2v2.211h-6.631Z" transform="translate(-2991.859 -572.674)"/>
      <path id="Trazado_62084" data-name="Trazado 62084" d="M3047.149,572.9h3.05l2.365,9.26h.044V572.9h2.165v15.471h-2.5l-2.917-11.294h-.044v11.294h-2.166Z" transform="translate(-2992.515 -572.674)"/>
      <path id="Trazado_62085" data-name="Trazado 62085" d="M3061.931,587.575a3.989,3.989,0,0,1-.917-2.807v-8.31a3.992,3.992,0,0,1,.917-2.808,4.063,4.063,0,0,1,5.327,0,3.993,3.993,0,0,1,.917,2.808v1.635h-2.3V576.3q0-1.437-1.215-1.437t-1.216,1.437v8.641q0,1.416,1.216,1.415t1.215-1.415v-2.364h2.3v2.187a3.991,3.991,0,0,1-.917,2.807,4.063,4.063,0,0,1-5.327,0Z" transform="translate(-2993.561 -572.656)"/>
      <path id="Trazado_62086" data-name="Trazado 62086" d="M3071.17,587.582a4.1,4.1,0,0,1-.928-2.884V572.9h2.432v11.979a1.683,1.683,0,0,0,.321,1.149,1.364,1.364,0,0,0,1.833,0,1.68,1.68,0,0,0,.321-1.149V572.9h2.343v11.8a4.1,4.1,0,0,1-.928,2.884,4.117,4.117,0,0,1-5.393,0Z" transform="translate(-2994.258 -572.674)"/>
      <path id="Trazado_62087" data-name="Trazado 62087" d="M3079.948,572.9h6.631v2.21h-4.2v4.089h3.338v2.211h-3.338v4.751h4.2v2.211h-6.631Z" transform="translate(-2994.99 -572.674)"/>
      <path id="Trazado_62088" data-name="Trazado 62088" d="M3088.626,572.9h3.05l2.364,9.26h.044V572.9h2.166v15.471h-2.5l-2.917-11.294h-.045v11.294h-2.166Z" transform="translate(-2995.646 -572.674)"/>
      <path id="Trazado_62089" data-name="Trazado 62089" d="M3100.682,575.106h-2.541V572.9h7.514v2.21h-2.542v13.261h-2.432Z" transform="translate(-2996.364 -572.674)"/>
      <path id="Trazado_62090" data-name="Trazado 62090" d="M3108.263,572.9h3.292l2.52,15.471h-2.432l-.443-3.072v.043h-2.762l-.441,3.029h-2.255Zm2.651,10.344-1.083-7.648h-.044l-1.06,7.648Z" transform="translate(-2996.938 -572.674)"/>
      <path id="Trazado_62091" data-name="Trazado 62091" d="M2998.633,596.8h6.63v2.21h-4.2V603.1h3.337v2.211h-3.337v4.752h4.2v2.21h-6.63Z" transform="translate(-2988.853 -574.479)"/>
      <path id="Trazado_62092" data-name="Trazado 62092" d="M3007.311,596.8h2.43v13.261h4v2.21h-6.431Z" transform="translate(-2989.508 -574.479)"/>
      <path id="Trazado_62093" data-name="Trazado 62093" d="M3021.186,596.8h3.292l2.52,15.471h-2.431l-.443-3.072v.044h-2.763l-.442,3.028h-2.254Zm2.651,10.343-1.083-7.648h-.044l-1.06,7.648Z" transform="translate(-2990.365 -574.479)"/>
      <path id="Trazado_62094" data-name="Trazado 62094" d="M3028.945,596.8h3.05l2.365,9.26h.044V596.8h2.165v15.471h-2.5l-2.917-11.294h-.044v11.294h-2.166Z" transform="translate(-2991.141 -574.479)"/>
      <path id="Trazado_62095" data-name="Trazado 62095" d="M3040.98,596.51h3.292l2.52,15.471h-2.431l-.443-3.072v.044h-2.762l-.442,3.028h-2.254Zm1.878-3.581h2.652l-2.365,2.542h-1.834Zm.774,13.924-1.083-7.648h-.045l-1.06,7.648Z" transform="translate(-2991.859 -574.186)"/>
      <path id="Trazado_62096" data-name="Trazado 62096" d="M3048.739,596.8h2.431v13.261h4v2.21h-6.431Z" transform="translate(-2992.635 -574.479)"/>
      <path id="Trazado_62097" data-name="Trazado 62097" d="M3056.963,596.8h2.432v15.471h-2.432Z" transform="translate(-2993.255 -574.479)"/>
      <path id="Trazado_62098" data-name="Trazado 62098" d="M3062,611.471a4.169,4.169,0,0,1-.9-2.885V607.7h2.3v1.061q0,1.5,1.259,1.5a1.183,1.183,0,0,0,.939-.365,1.771,1.771,0,0,0,.321-1.182,3.288,3.288,0,0,0-.442-1.713,8.206,8.206,0,0,0-1.635-1.779,9.8,9.8,0,0,1-2.1-2.4,4.895,4.895,0,0,1-.6-2.419,4.033,4.033,0,0,1,.928-2.841,3.486,3.486,0,0,1,2.7-1.005,3.355,3.355,0,0,1,2.642,1.005,4.205,4.205,0,0,1,.9,2.885v.64H3066v-.8a1.772,1.772,0,0,0-.31-1.16,1.12,1.12,0,0,0-.905-.365q-1.216,0-1.217,1.481a2.916,2.916,0,0,0,.454,1.569,8.678,8.678,0,0,0,1.647,1.769,9.12,9.12,0,0,1,2.1,2.409,5.352,5.352,0,0,1,.574,2.542,4.149,4.149,0,0,1-.938,2.918,3.535,3.535,0,0,1-2.73,1.016A3.417,3.417,0,0,1,3062,611.471Z" transform="translate(-2993.568 -574.461)"/>
      <path id="Trazado_62099" data-name="Trazado 62099" d="M3070.445,596.8h2.431v15.471h-2.431Z" transform="translate(-2994.273 -574.479)"/>
      <path id="Trazado_62100" data-name="Trazado 62100" d="M3075.487,611.471a4.164,4.164,0,0,1-.906-2.885V607.7h2.3v1.061q0,1.5,1.26,1.5a1.181,1.181,0,0,0,.938-.365,1.766,1.766,0,0,0,.321-1.182,3.279,3.279,0,0,0-.442-1.713,8.2,8.2,0,0,0-1.635-1.779,9.808,9.808,0,0,1-2.1-2.4,4.9,4.9,0,0,1-.6-2.419,4.032,4.032,0,0,1,.928-2.841,3.485,3.485,0,0,1,2.7-1.005,3.351,3.351,0,0,1,2.641,1.005,4.2,4.2,0,0,1,.9,2.885v.64h-2.3v-.8a1.776,1.776,0,0,0-.31-1.16,1.122,1.122,0,0,0-.906-.365q-1.216,0-1.216,1.481a2.923,2.923,0,0,0,.453,1.569,8.675,8.675,0,0,0,1.646,1.769,9.109,9.109,0,0,1,2.1,2.409,5.349,5.349,0,0,1,.574,2.542,4.149,4.149,0,0,1-.939,2.918,3.534,3.534,0,0,1-2.73,1.016A3.416,3.416,0,0,1,3075.487,611.471Z" transform="translate(-2994.585 -574.461)"/>
      <path id="Trazado_62101" data-name="Trazado 62101" d="M3087.753,596.8h3.713a3.538,3.538,0,0,1,2.718.973,4.04,4.04,0,0,1,.906,2.851v7.823a4.04,4.04,0,0,1-.906,2.851,3.538,3.538,0,0,1-2.718.973h-3.713Zm3.668,13.261a1.171,1.171,0,0,0,.917-.354,1.685,1.685,0,0,0,.321-1.149v-8.046a1.684,1.684,0,0,0-.321-1.148,1.174,1.174,0,0,0-.917-.354h-1.237v11.052Z" transform="translate(-2995.58 -574.479)"/>
      <path id="Trazado_62102" data-name="Trazado 62102" d="M3097.459,596.8h6.631v2.21h-4.2V603.1h3.336v2.211h-3.336v4.752h4.2v2.21h-6.631Z" transform="translate(-2996.312 -574.479)"/>
      <path id="Trazado_62103" data-name="Trazado 62103" d="M3003.733,635.388a3.981,3.981,0,0,1-.918-2.807v-8.31a3.984,3.984,0,0,1,.918-2.807,4.062,4.062,0,0,1,5.326,0,3.991,3.991,0,0,1,.918,2.807v1.635h-2.3v-1.791q0-1.435-1.215-1.437t-1.217,1.437v8.642q0,1.414,1.217,1.414t1.215-1.414v-2.365h2.3v2.187a3.988,3.988,0,0,1-.918,2.807,4.059,4.059,0,0,1-5.326,0Z" transform="translate(-2989.168 -576.265)"/>
      <path id="Trazado_62104" data-name="Trazado 62104" d="M3013.966,620.709h3.292l2.521,15.471h-2.431l-.442-3.072v.044h-2.763l-.441,3.028h-2.255Zm2.652,10.344-1.083-7.648h-.044l-1.061,7.648Z" transform="translate(-2989.82 -576.283)"/>
      <path id="Trazado_62105" data-name="Trazado 62105" d="M3021.726,620.709h3.712a3.543,3.543,0,0,1,2.719.973,4.04,4.04,0,0,1,.906,2.851v7.824a4.043,4.043,0,0,1-.906,2.851,3.542,3.542,0,0,1-2.719.972h-3.712Zm3.667,13.261a1.172,1.172,0,0,0,.918-.354,1.687,1.687,0,0,0,.32-1.149v-8.045a1.687,1.687,0,0,0-.32-1.149,1.178,1.178,0,0,0-.918-.353h-1.237V633.97Z" transform="translate(-2990.596 -576.283)"/>
      <path id="Trazado_62106" data-name="Trazado 62106" d="M3033.21,620.709h3.293l2.519,15.471h-2.431l-.442-3.072v.044h-2.763l-.441,3.028h-2.255Zm2.651,10.344-1.083-7.648h-.044l-1.061,7.648Z" transform="translate(-2991.272 -576.283)"/>
      <path id="Trazado_62107" data-name="Trazado 62107" d="M3044.795,620.709h3.58a3.543,3.543,0,0,1,2.719.973,4.035,4.035,0,0,1,.906,2.851v1.525a4.035,4.035,0,0,1-.906,2.851,3.543,3.543,0,0,1-2.719.973h-1.148v6.3h-2.432Zm3.58,6.962a1.145,1.145,0,0,0,.9-.331,1.683,1.683,0,0,0,.3-1.128v-1.833a1.683,1.683,0,0,0-.3-1.128,1.145,1.145,0,0,0-.9-.331h-1.148v4.751Z" transform="translate(-2992.337 -576.283)"/>
      <path id="Trazado_62108" data-name="Trazado 62108" d="M3054.022,620.709h3.6a3.107,3.107,0,0,1,3.6,3.558v.95q0,2.409-1.59,3.05v.044a1.9,1.9,0,0,1,1.248,1.083,5.456,5.456,0,0,1,.365,2.188V634.3a10.066,10.066,0,0,0,.044,1.072,2.642,2.642,0,0,0,.221.807h-2.476a3.508,3.508,0,0,1-.177-.706,10.621,10.621,0,0,1-.044-1.193v-2.83a2.4,2.4,0,0,0-.343-1.48,1.447,1.447,0,0,0-1.182-.421h-.84v6.631h-2.431Zm3.315,6.631a1.466,1.466,0,0,0,1.095-.375,1.779,1.779,0,0,0,.364-1.261V624.51a1.965,1.965,0,0,0-.3-1.215,1.125,1.125,0,0,0-.938-.375h-1.106v4.42Z" transform="translate(-2993.033 -576.283)"/>
      <path id="Trazado_62109" data-name="Trazado 62109" d="M3063.656,620.709h6.631v2.21h-4.2v4.088h3.338v2.211h-3.338v4.752h4.2v2.21h-6.631Z" transform="translate(-2993.761 -576.283)"/>
      <path id="Trazado_62110" data-name="Trazado 62110" d="M3072.334,620.709h3.05l2.364,9.261h.045v-9.261h2.166V636.18h-2.5l-2.917-11.293h-.044V636.18h-2.166Z" transform="translate(-2994.416 -576.283)"/>
      <path id="Trazado_62111" data-name="Trazado 62111" d="M3082.542,620.709h3.713a3.541,3.541,0,0,1,2.718.973,4.041,4.041,0,0,1,.907,2.851v7.824a4.045,4.045,0,0,1-.907,2.851,3.541,3.541,0,0,1-2.718.972h-3.713Zm3.668,13.261a1.171,1.171,0,0,0,.917-.354,1.687,1.687,0,0,0,.321-1.149v-8.045a1.686,1.686,0,0,0-.321-1.149,1.177,1.177,0,0,0-.917-.353h-1.237V633.97Z" transform="translate(-2995.186 -576.283)"/>
      <path id="Trazado_62112" data-name="Trazado 62112" d="M3094.026,620.709h3.293l2.52,15.471h-2.431l-.443-3.072v.044H3094.2l-.442,3.028h-2.254Zm2.653,10.344L3095.6,623.4h-.044l-1.062,7.648Z" transform="translate(-2995.863 -576.283)"/>
    </g>
    <rect id="Rectángulo_6291" data-name="Rectángulo 6291" width="133.42" height="38.853" transform="translate(2973.86 516.257)"/>
    <g id="Grupo_38826" data-name="Grupo 38826" transform="translate(2983.115 521.417)">
      <path id="Trazado_62113" data-name="Trazado 62113" d="M2989.058,529.946h6.28q3.274,0,4.778,1.522a6.43,6.43,0,0,1,1.5,4.681v1.658q0,4.2-2.774,5.317v.077a3.315,3.315,0,0,1,2.176,1.888,9.518,9.518,0,0,1,.636,3.815v4.74a17.964,17.964,0,0,0,.077,1.868,4.648,4.648,0,0,0,.385,1.406H2997.8a6.184,6.184,0,0,1-.308-1.233,18.467,18.467,0,0,1-.077-2.08v-4.932a4.185,4.185,0,0,0-.6-2.581,2.529,2.529,0,0,0-2.061-.732H2993.3v11.559h-4.238Zm5.779,11.558a2.542,2.542,0,0,0,1.907-.655,3.1,3.1,0,0,0,.636-2.2v-2.08a3.426,3.426,0,0,0-.521-2.119,1.966,1.966,0,0,0-1.637-.656H2993.3V541.5Z" transform="translate(-2989.058 -529.56)" fill="#f8bf14"/>
      <path id="Trazado_62114" data-name="Trazado 62114" d="M3005.854,529.946h11.558V533.8h-7.32v7.128h5.817v3.853h-5.817v8.284h7.32v3.853h-11.558Z" transform="translate(-2990.326 -529.56)" fill="#f8bf14"/>
      <path id="Trazado_62115" data-name="Trazado 62115" d="M3022.288,555.537a6.952,6.952,0,0,1-1.6-4.893V536.156a6.955,6.955,0,0,1,1.6-4.893,7.084,7.084,0,0,1,9.286,0,6.959,6.959,0,0,1,1.6,4.893v2.851h-4.007v-3.121q0-2.5-2.119-2.5t-2.12,2.5v15.066q0,2.466,2.12,2.466t2.119-2.466v-4.123h4.007v3.815a6.955,6.955,0,0,1-1.6,4.893,7.081,7.081,0,0,1-9.286,0Z" transform="translate(-2991.446 -529.529)" fill="#f8bf14"/>
      <path id="Trazado_62116" data-name="Trazado 62116" d="M3038.394,555.55a7.15,7.15,0,0,1-1.618-5.028V529.946h4.238v20.883a2.938,2.938,0,0,0,.559,2,2.381,2.381,0,0,0,3.2,0,2.943,2.943,0,0,0,.558-2V529.946h4.084v20.575a7.15,7.15,0,0,1-1.619,5.028,7.18,7.18,0,0,1-9.4,0Z" transform="translate(-2992.66 -529.56)" fill="#f8bf14"/>
      <path id="Trazado_62117" data-name="Trazado 62117" d="M3053.7,529.946h11.559V533.8h-7.321v7.128h5.818v3.853h-5.818v8.284h7.321v3.853H3053.7Z" transform="translate(-2993.937 -529.56)" fill="#f8bf14"/>
      <path id="Trazado_62118" data-name="Trazado 62118" d="M3068.824,529.946h6.28q3.276,0,4.778,1.522a6.43,6.43,0,0,1,1.5,4.681v1.658q0,4.2-2.774,5.317v.077a3.314,3.314,0,0,1,2.177,1.888,9.52,9.52,0,0,1,.635,3.815v4.74a18.032,18.032,0,0,0,.077,1.868,4.69,4.69,0,0,0,.385,1.406h-4.316a6.269,6.269,0,0,1-.308-1.233,18.712,18.712,0,0,1-.077-2.08v-4.932a4.191,4.191,0,0,0-.6-2.581,2.53,2.53,0,0,0-2.062-.732h-1.464v11.559h-4.238ZM3074.6,541.5a2.544,2.544,0,0,0,1.908-.655,3.094,3.094,0,0,0,.635-2.2v-2.08a3.427,3.427,0,0,0-.52-2.119,1.967,1.967,0,0,0-1.638-.656h-1.927V541.5Z" transform="translate(-2995.079 -529.56)" fill="#f8bf14"/>
      <path id="Trazado_62119" data-name="Trazado 62119" d="M3085.62,529.946h6.473a6.181,6.181,0,0,1,4.74,1.695,7.047,7.047,0,0,1,1.579,4.971v13.639a7.04,7.04,0,0,1-1.579,4.97,6.171,6.171,0,0,1-4.74,1.7h-6.473Zm6.4,23.117a2.051,2.051,0,0,0,1.6-.616,2.946,2.946,0,0,0,.559-2V536.419a2.946,2.946,0,0,0-.559-2,2.052,2.052,0,0,0-1.6-.617h-2.158v19.265Z" transform="translate(-2996.347 -529.56)" fill="#f8bf14"/>
      <path id="Trazado_62120" data-name="Trazado 62120" d="M3102.54,529.946H3114.1V533.8h-7.321v7.128h5.818v3.853h-5.818v8.284h7.321v3.853H3102.54Z" transform="translate(-2997.624 -529.56)" fill="#f8bf14"/>
    </g>
  </g>
</svg>
