<svg xmlns="http://www.w3.org/2000/svg" width="105.268" height="92.895" viewBox="0 0 105.268 92.895">
  <g id="Grupo_1068238" data-name="Grupo 1068238" transform="translate(-515.448 -6589.855)">
    <circle id="Elipse_4853" data-name="Elipse 4853" cx="38" cy="38" r="38" transform="translate(544.716 6606.75)" fill="#ffd54f"/>
    <g id="Filled_outline" data-name="Filled outline" transform="translate(511.448 6587.856)">
      <path id="Trazado_771861" data-name="Trazado 771861" d="M12.314,14.629A4.314,4.314,0,1,0,8,10.314a4.314,4.314,0,0,0,4.314,4.314Zm0-5.753a1.438,1.438,0,1,1-1.438,1.438A1.438,1.438,0,0,1,12.314,8.876Z" transform="translate(1.753 1.753)" fill="#673ab7"/>
      <path id="Trazado_771862" data-name="Trazado 771862" d="M4,88.288H24.134V2H4ZM6.876,4.876H21.258v7.191a7.191,7.191,0,0,1-14.381,0Zm0,14.222a10.034,10.034,0,0,0,14.381,0v7.35H14.067v2.876h7.191V32.2H16.943v2.876h4.314v2.876H14.067v2.876h7.191v2.876H16.943v2.876h4.314v2.876H14.067v2.876h7.191v2.876H16.943v2.876h4.314v2.876H14.067v2.876h7.191v2.876H16.943v2.876h4.314v2.876H14.067v2.876h7.191v2.876H16.943V81.1h4.314v4.314H6.876Z" transform="translate(0 0)" fill="#673ab7"/>
      <path id="Trazado_771863" data-name="Trazado 771863" d="M65.968,36.133a1.438,1.438,0,0,0-.736-.9c-3.949-2-6.4-6.466-6.4-11.659s2.453-9.663,6.4-11.659a1.438,1.438,0,0,0-.2-2.648L43.464,2.075a1.419,1.419,0,0,0-1.294.2,1.438,1.438,0,0,0-.6,1.168A20.155,20.155,0,0,1,21.438,23.572,1.438,1.438,0,0,0,20,25.01V86.85a1.438,1.438,0,0,0,1.438,1.438H45.886a1.438,1.438,0,0,0,1.438-1.438v-21.5L58.995,87.52a1.438,1.438,0,0,0,.863.706,1.412,1.412,0,0,0,.41.062,1.438,1.438,0,0,0,.689-.175l15.819-8.629a1.438,1.438,0,0,0,.7-1.645ZM60.86,84.885l-13.7-26.03a1.438,1.438,0,0,0-2.711.67V85.412H22.876V26.4a23.049,23.049,0,0,0,21.488-21l16.98,5.653a16.228,16.228,0,0,0-5.392,12.512,15.69,15.69,0,0,0,7.4,13.918L74.4,77.5Z" transform="translate(7.01)" fill="#673ab7"/>
      <path id="Trazado_771864" data-name="Trazado 771864" d="M24,23h5.753v2.876H24Z" transform="translate(8.763 9.201)" fill="#673ab7"/>
      <path id="Trazado_771865" data-name="Trazado 771865" d="M30,23h5.753v2.876H30Z" transform="translate(11.391 9.201)" fill="#673ab7"/>
      <path id="Trazado_771866" data-name="Trazado 771866" d="M36,23h5.753v2.876H36Z" transform="translate(14.02 9.201)" fill="#673ab7"/>
      <path id="Trazado_771867" data-name="Trazado 771867" d="M42,23h5.753v2.876H42Z" transform="translate(16.649 9.201)" fill="#673ab7"/>
      <path id="Trazado_771868" data-name="Trazado 771868" d="M24,35h5.753v2.876H24Z" transform="translate(8.763 14.459)" fill="#673ab7"/>
      <path id="Trazado_771869" data-name="Trazado 771869" d="M30,35h5.753v2.876H30Z" transform="translate(11.391 14.459)" fill="#673ab7"/>
      <path id="Trazado_771870" data-name="Trazado 771870" d="M36,35h5.753v2.876H36Z" transform="translate(14.02 14.459)" fill="#673ab7"/>
      <path id="Trazado_771871" data-name="Trazado 771871" d="M42,35h5.753v2.876H42Z" transform="translate(16.649 14.459)" fill="#673ab7"/>
      <path id="Trazado_771872" data-name="Trazado 771872" d="M48,35h5.753v2.876H48Z" transform="translate(19.278 14.459)" fill="#673ab7"/>
      <path id="Trazado_771873" data-name="Trazado 771873" d="M24,47h5.753v2.876H24Z" transform="translate(8.763 19.716)" fill="#673ab7"/>
      <path id="Trazado_771874" data-name="Trazado 771874" d="M30,47h5.753v2.876H30Z" transform="translate(11.391 19.716)" fill="#673ab7"/>
      <path id="Trazado_771875" data-name="Trazado 771875" d="M44,47h5.753v2.876H44Z" transform="translate(17.525 19.716)" fill="#673ab7"/>
      <path id="Trazado_771876" data-name="Trazado 771876" d="M50,47h5.753v2.876H50Z" transform="translate(20.154 19.716)" fill="#673ab7"/>
    </g>
  </g>
</svg>
