<svg xmlns="http://www.w3.org/2000/svg" width="126.342" height="100.012" viewBox="0 0 126.342 100.012">
  <g id="Grupo_1068232" data-name="Grupo 1068232" transform="translate(-232.693 -1245.988)">
    <g id="Grupo_38851" data-name="Grupo 38851" transform="translate(-33.578 64.252)">
      <circle id="Elipse_1792" data-name="Elipse 1792" cx="42.226" cy="42.226" r="42.226" transform="translate(308.161 1189.516)" fill="#ffd54f"/>
      <g id="Grupo_38850" data-name="Grupo 38850" transform="translate(266.271 1181.736)">
        <path id="Trazado_67692" data-name="Trazado 67692" d="M244.009,250.434a1.465,1.465,0,0,0,1.465-1.465V234.286a1.467,1.467,0,0,1,1.466-1.465h11.267a1.466,1.466,0,0,0,0-2.931H246.94a4.4,4.4,0,0,0-4.4,4.4v14.683a1.466,1.466,0,0,0,1.466,1.465Zm0,0" transform="translate(-211.929 -229.89)" fill="#673ab7"/>
        <path id="Trazado_67693" data-name="Trazado 67693" d="M357.723,229.89H325.93a1.466,1.466,0,1,0,0,2.931h26.357v.293a1.465,1.465,0,0,0,2.931,0v-.293h2.5a1.467,1.467,0,0,1,1.466,1.465v39.109a1.477,1.477,0,0,1-.573,1.162l-5.428,4.172a32.961,32.961,0,0,0-12.874,26.133v4.5a1.466,1.466,0,0,0,2.931,0v-4.5a30.217,30.217,0,0,1,11.729-23.81l5.428-4.172a4.424,4.424,0,0,0,1.717-3.486V234.286a4.4,4.4,0,0,0-4.4-4.4Zm0,0" transform="translate(-272.514 -229.89)" fill="#673ab7"/>
        <path id="Trazado_67694" data-name="Trazado 67694" d="M194.267,351.5a1.466,1.466,0,0,0-1.465,1.466v8.972a1.467,1.467,0,0,1-1.466,1.466h-25.6v-1.3a1.465,1.465,0,0,0-2.93,0v1.3h-2.791a1.468,1.468,0,0,1-1.466-1.466V330.449h23.913a2.992,2.992,0,0,0,2.989-2.989V302.633a21.107,21.107,0,0,1,3.546-11.729l5.169-7.769a2.56,2.56,0,0,0-2.132-3.979H168.746a2.992,2.992,0,0,0-2.988,2.988,9.318,9.318,0,0,1-9.306,9.307h-8.205a9.317,9.317,0,0,1-9.306-9.307,2.992,2.992,0,0,0-2.989-2.988h-7.963A2.992,2.992,0,0,0,125,282.144V327.46a2.991,2.991,0,0,0,2.989,2.988h27.625v31.492a4.4,4.4,0,0,0,4.4,4.4h31.326a4.4,4.4,0,0,0,4.4-4.4v-8.972a1.465,1.465,0,0,0-1.465-1.466ZM127.931,327.46V282.145a.057.057,0,0,1,.058-.058h7.964a.057.057,0,0,1,.057.058,12.251,12.251,0,0,0,12.237,12.237h8.205a12.251,12.251,0,0,0,12.237-12.237.057.057,0,0,1,.058-.058h13.927l-.3.558a1.465,1.465,0,0,0,2.531,1.477l1.188-2.036h5.247l-4.786,7.193a24.027,24.027,0,0,0-4.037,13.353V327.46a.058.058,0,0,1-.058.058H127.989a.059.059,0,0,1-.058-.058Zm0,0" transform="translate(-125 -266.325)" fill="#673ab7"/>
        <path id="Trazado_67695" data-name="Trazado 67695" d="M432.758,274.141a1.466,1.466,0,0,0,1.466-1.465v-5.961a1.465,1.465,0,1,0-2.931,0v5.96a1.466,1.466,0,0,0,1.465,1.466Zm0,0" transform="translate(-351.52 -256.04)" fill="#673ab7"/>
        <path id="Trazado_67696" data-name="Trazado 67696" d="M431.293,324.171a1.465,1.465,0,1,0,2.931,0V318.21a1.465,1.465,0,0,0-2.931,0Zm0,0" transform="translate(-351.52 -294.124)" fill="#673ab7"/>
        <path id="Trazado_67697" data-name="Trazado 67697" d="M431.293,375.665a1.465,1.465,0,0,0,2.931,0V369.7a1.465,1.465,0,1,0-2.931,0Zm0,0" transform="translate(-351.52 -332.206)" fill="#673ab7"/>
        <path id="Trazado_67698" data-name="Trazado 67698" d="M273.067,487.546a1.466,1.466,0,0,0-2.931,0v6.132a1.466,1.466,0,1,0,2.931,0Zm0,0" transform="translate(-232.336 -419.357)" fill="#673ab7"/>
        <path id="Trazado_67699" data-name="Trazado 67699" d="M271.6,539.05a1.466,1.466,0,0,0-1.466,1.466v6.132a1.466,1.466,0,0,0,2.931,0v-6.132a1.466,1.466,0,0,0-1.465-1.466Zm0,0" transform="translate(-232.336 -458.53)" fill="#673ab7"/>
        <path id="Trazado_67700" data-name="Trazado 67700" d="M153.449,436.331H147.2a1.466,1.466,0,1,0,0,2.931h6.253a1.466,1.466,0,0,0,0-2.931Zm0,0" transform="translate(-140.331 -382.564)" fill="#673ab7"/>
        <path id="Trazado_67701" data-name="Trazado 67701" d="M207.468,436.331h-6.253a1.466,1.466,0,0,0,0,2.931h6.253a1.466,1.466,0,0,0,0-2.931Zm0,0" transform="translate(-180.282 -382.564)" fill="#673ab7"/>
        <path id="Trazado_67702" data-name="Trazado 67702" d="M326.348,316.08a1.465,1.465,0,0,0-1.941.726,31.413,31.413,0,0,0-2.073,6.21,1.465,1.465,0,0,0,1.114,1.748,1.485,1.485,0,0,0,.318.035,1.465,1.465,0,0,0,1.429-1.149,28.519,28.519,0,0,1,1.88-5.63,1.466,1.466,0,0,0-.727-1.94Zm0,0" transform="translate(-270.913 -293.535)" fill="#673ab7"/>
        <path id="Trazado_67703" data-name="Trazado 67703" d="M321.04,368.492a1.465,1.465,0,0,0-1.466,1.465v6.253a1.466,1.466,0,1,0,2.931,0v-6.253a1.465,1.465,0,0,0-1.465-1.465Zm0,0" transform="translate(-268.898 -332.394)" fill="#673ab7"/>
        <path id="Trazado_67704" data-name="Trazado 67704" d="M261.484,436.331h-6.253a1.466,1.466,0,1,0,0,2.931h6.253a1.466,1.466,0,0,0,0-2.931Zm0,0" transform="translate(-220.229 -382.564)" fill="#673ab7"/>
        <path id="Trazado_67705" data-name="Trazado 67705" d="M312.321,422.507a1.466,1.466,0,0,0-1.466,1.466v2.134H309.25a1.466,1.466,0,0,0,0,2.931h2.095a2.445,2.445,0,0,0,2.442-2.443v-2.624a1.466,1.466,0,0,0-1.465-1.465Zm0,0" transform="translate(-260.179 -372.341)" fill="#673ab7"/>
      </g>
    </g>
  </g>
</svg>
