<svg xmlns="http://www.w3.org/2000/svg" xmlns:xlink="http://www.w3.org/1999/xlink" width="129.167" height="184.054" viewBox="0 0 129.167 184.054">
  <defs>
    <clipPath id="clip-path">
      <rect id="Rectángulo_25890" data-name="Rectángulo 25890" width="103" height="153" transform="translate(0 -0.148)" fill="#673ab7"/>
    </clipPath>
  </defs>
  <g id="Grupo_38898" data-name="Grupo 38898" transform="translate(-8828.001 -6047.852)">
    <circle id="Elipse_1792" data-name="Elipse 1792" cx="56.304" cy="56.304" r="56.304" transform="translate(8844.56 6119.297)" fill="#ffd54f"/>
    <g id="Grupo_38896" data-name="Grupo 38896" transform="translate(8828.001 6048)">
      <g id="Grupo_38897" data-name="Grupo 38897" transform="translate(0 0)">
        <g id="Grupo_38896-2" data-name="Grupo 38896" transform="translate(0 0)" clip-path="url(#clip-path)">
          <path id="Trazado_67732" data-name="Trazado 67732" d="M267.093,285.79c-.256-.264-10.136-6.126-10.136-6.126l.568-1.3a4.291,4.291,0,0,0-1.849-5.459,4.836,4.836,0,0,0-5.941.82l-.947,1.01-13.708-8.268a3.549,3.549,0,0,1-1.606-3.2,10.324,10.324,0,0,0-10.1-8.288H221.45v-5.995a9.677,9.677,0,1,0-10.831-13.835,2.219,2.219,0,0,0,3.948,2.028,5.237,5.237,0,1,1,5.308,7.584,3.251,3.251,0,0,0-2.863,3.217v7h-1.691a10.36,10.36,0,0,0-10.059,8.1,5.921,5.921,0,0,1-2.753,4.017l-12.672,7.644-.947-1.011a4.834,4.834,0,0,0-5.941-.819,4.289,4.289,0,0,0-1.849,5.457l.568,1.3-9.875,5.955a6.8,6.8,0,0,0-3.271,5.794,2.219,2.219,0,0,0,4.438,0,2.343,2.343,0,0,1,.934-1.861h12.1l6.4,14.642a86.242,86.242,0,0,0,5.778,10.966l1.862,2.993a109.644,109.644,0,0,0-25.1,45.405l-3.556,13.094a3.995,3.995,0,0,0,3.856,5.042h13.472a2.219,2.219,0,1,0,0-4.438H175.82l3.4-12.535a105.2,105.2,0,0,1,24.487-44,3.626,3.626,0,0,0,.426-4.384l-2.191-3.522a81.72,81.72,0,0,1-5.479-10.4l-11.241-25.7a.423.423,0,0,1,.425.043L200.9,293.043a25.78,25.78,0,0,0,36.817,0l15.254-16.281a.427.427,0,0,1,.425-.041l-11.241,25.7a81.74,81.74,0,0,1-5.479,10.4l-2.191,3.521a3.625,3.625,0,0,0,.411,4.367.191.191,0,0,0,.017.02,104.985,104.985,0,0,1,10.516,13.288,2.22,2.22,0,0,0,3.692-2.465,109.522,109.522,0,0,0-10.539-13.394l1.862-2.993a86.009,86.009,0,0,0,5.777-10.964l6.405-14.642h12.1a2.339,2.339,0,0,1,.934,1.859,2.219,2.219,0,1,0,4.438,0,6.8,6.8,0,0,0-3.01-5.623Zm-85.867-.675,2.238-1.35.59,1.35ZM204.8,270.9a10.338,10.338,0,0,0,4.741-6.617l.056-.253a5.893,5.893,0,0,1,5.723-4.605h8.055a5.874,5.874,0,0,1,5.708,4.537,7.717,7.717,0,0,0,3.7,6.314l12.9,7.778-6.622,7.068c-.02,0-.04,0-.061,0H199.558l-6.619-7.065Zm14.511,25.441a20.763,20.763,0,0,1-15.171-6.328l-.426-.455H234.91l-.426.455a20.763,20.763,0,0,1-15.171,6.328Zm35.85-12.572,2.238,1.35h-2.828Zm0,0" transform="translate(-167.639 -229.343)" fill="#673ab7"/>
        </g>
      </g>
      <path id="Trazado_67733" data-name="Trazado 67733" d="M307.521,530.505a109.366,109.366,0,0,0-9.347-23.36,2.219,2.219,0,0,0-3.9,2.113,104.913,104.913,0,0,1,8.967,22.41l3.4,12.535H243.235a2.219,2.219,0,0,0,0,4.438h63.987a3.995,3.995,0,0,0,3.856-5.042Zm0,0" transform="translate(-211.473 -396.289)" fill="#673ab7"/>
    </g>
  </g>
</svg>
