<svg xmlns="http://www.w3.org/2000/svg" width="105.39" height="117.629" viewBox="0 0 105.39 117.629">
  <g id="Grupo_38936" data-name="Grupo 38936" transform="translate(-8159.885 -14870)">
    <circle id="Elipse_1792" data-name="Elipse 1792" cx="45.447" cy="45.447" r="45.447" transform="translate(8174.38 14892.724)" fill="#ffd54f"/>
    <g id="Grupo_38935" data-name="Grupo 38935" transform="translate(8159.885 14870)">
      <path id="Trazado_67751" data-name="Trazado 67751" d="M244.267,254.053a1.724,1.724,0,0,0,1.723-1.723V235.06a1.725,1.725,0,0,1,1.724-1.723h13.252a1.724,1.724,0,0,0,0-3.447H247.714a5.177,5.177,0,0,0-5.171,5.17V252.33a1.724,1.724,0,0,0,1.724,1.723Zm0,0" transform="translate(-206.537 -229.89)" fill="#673ab7"/>
      <path id="Trazado_67752" data-name="Trazado 67752" d="M363.582,229.89H326.188a1.724,1.724,0,1,0,0,3.447h31v.345a1.724,1.724,0,0,0,3.447,0v-.345h2.946a1.725,1.725,0,0,1,1.724,1.723v46a1.737,1.737,0,0,1-.674,1.367l-6.384,4.907a38.767,38.767,0,0,0-15.141,30.736v5.29a1.724,1.724,0,0,0,3.447,0v-5.29a35.541,35.541,0,0,1,13.8-28l6.384-4.907a5.2,5.2,0,0,0,2.02-4.1v-46a5.177,5.177,0,0,0-5.171-5.17Zm0,0" transform="translate(-263.363 -229.89)" fill="#673ab7"/>
      <path id="Trazado_67753" data-name="Trazado 67753" d="M206.468,364.245a1.724,1.724,0,0,0-1.723,1.724v10.553a1.726,1.726,0,0,1-1.724,1.724H172.906v-1.528a1.723,1.723,0,0,0-3.446,0v1.528h-3.282a1.726,1.726,0,0,1-1.724-1.724V339.484h28.126a3.519,3.519,0,0,0,3.515-3.516v-29.2a24.825,24.825,0,0,1,4.17-13.8l6.08-9.137a3.011,3.011,0,0,0-2.508-4.68H176.452a3.519,3.519,0,0,0-3.514,3.514,10.959,10.959,0,0,1-10.945,10.947h-9.65A10.958,10.958,0,0,1,141.4,282.67a3.519,3.519,0,0,0-3.516-3.514h-9.366A3.519,3.519,0,0,0,125,282.67v53.3a3.518,3.518,0,0,0,3.515,3.514h32.491v37.039a5.177,5.177,0,0,0,5.17,5.172h36.844a5.177,5.177,0,0,0,5.17-5.172V365.969a1.723,1.723,0,0,0-1.723-1.724Zm-78.021-28.277v-53.3a.067.067,0,0,1,.068-.068h9.367a.067.067,0,0,1,.067.068,14.409,14.409,0,0,0,14.392,14.393h9.65a14.409,14.409,0,0,0,14.393-14.393.067.067,0,0,1,.068-.068h16.38l-.354.657A1.723,1.723,0,0,0,195.456,285l1.4-2.394h6.171l-5.629,8.46a28.26,28.26,0,0,0-4.748,15.705v29.2a.068.068,0,0,1-.068.068H128.515a.069.069,0,0,1-.068-.068Zm0,0" transform="translate(-125 -264.065)" fill="#673ab7"/>
      <path id="Trazado_67754" data-name="Trazado 67754" d="M433.016,275.707a1.724,1.724,0,0,0,1.724-1.723v-7.011a1.724,1.724,0,1,0-3.447,0v7.01a1.724,1.724,0,0,0,1.723,1.724Zm0,0" transform="translate(-337.468 -254.418)" fill="#673ab7"/>
      <path id="Trazado_67755" data-name="Trazado 67755" d="M431.293,325.479a1.724,1.724,0,1,0,3.447,0v-7.011a1.724,1.724,0,0,0-3.447,0Zm0,0" transform="translate(-337.468 -290.139)" fill="#673ab7"/>
      <path id="Trazado_67756" data-name="Trazado 67756" d="M431.293,376.973a1.724,1.724,0,0,0,3.447,0v-7.011a1.724,1.724,0,1,0-3.447,0Zm0,0" transform="translate(-337.468 -325.858)" fill="#673ab7"/>
      <path id="Trazado_67757" data-name="Trazado 67757" d="M273.583,487.8a1.724,1.724,0,0,0-3.447,0v7.212a1.724,1.724,0,1,0,3.447,0Zm0,0" transform="translate(-225.677 -407.603)" fill="#673ab7"/>
      <path id="Trazado_67758" data-name="Trazado 67758" d="M271.86,539.05a1.724,1.724,0,0,0-1.724,1.724v7.212a1.724,1.724,0,0,0,3.447,0v-7.212a1.724,1.724,0,0,0-1.723-1.724Zm0,0" transform="translate(-225.677 -444.346)" fill="#673ab7"/>
      <path id="Trazado_67759" data-name="Trazado 67759" d="M154.809,436.331h-7.354a1.724,1.724,0,1,0,0,3.447h7.354a1.724,1.724,0,0,0,0-3.447Zm0,0" transform="translate(-139.38 -373.093)" fill="#673ab7"/>
      <path id="Trazado_67760" data-name="Trazado 67760" d="M208.827,436.331h-7.354a1.724,1.724,0,0,0,0,3.447h7.354a1.724,1.724,0,0,0,0-3.447Zm0,0" transform="translate(-176.852 -373.093)" fill="#673ab7"/>
      <path id="Trazado_67761" data-name="Trazado 67761" d="M327.062,316.1a1.723,1.723,0,0,0-2.283.854,36.945,36.945,0,0,0-2.439,7.3,1.723,1.723,0,0,0,1.31,2.056,1.747,1.747,0,0,0,.374.041,1.724,1.724,0,0,0,1.681-1.351,33.537,33.537,0,0,1,2.211-6.622,1.724,1.724,0,0,0-.856-2.282Zm0,0" transform="translate(-261.861 -289.586)" fill="#673ab7"/>
      <path id="Trazado_67762" data-name="Trazado 67762" d="M321.3,368.492a1.724,1.724,0,0,0-1.724,1.723v7.354a1.724,1.724,0,1,0,3.447,0v-7.354a1.723,1.723,0,0,0-1.723-1.723Zm0,0" transform="translate(-259.971 -326.035)" fill="#673ab7"/>
      <path id="Trazado_67763" data-name="Trazado 67763" d="M262.844,436.331h-7.354a1.724,1.724,0,1,0,0,3.447h7.354a1.724,1.724,0,0,0,0-3.447Zm0,0" transform="translate(-214.321 -373.093)" fill="#673ab7"/>
      <path id="Trazado_67764" data-name="Trazado 67764" d="M313.121,422.507a1.724,1.724,0,0,0-1.724,1.724v2.51h-1.888a1.724,1.724,0,0,0,0,3.447h2.464a2.876,2.876,0,0,0,2.872-2.873V424.23a1.724,1.724,0,0,0-1.723-1.723Zm0,0" transform="translate(-251.793 -363.504)" fill="#673ab7"/>
    </g>
  </g>
</svg>
